<svg xmlns="http://www.w3.org/2000/svg" width="104.352" height="121.359" viewBox="0 0 104.352 121.359">
  <g id="Grupo_62128" data-name="Grupo 62128" transform="translate(-651.222 72.425)">
    <path id="Trazado_130978" data-name="Trazado 130978" d="M705.06-71.425H652.222V30.109h40.914V-6.486h43.883V-40.333Z" transform="translate(2.898 2.898)" fill="#fff"/>
    <path id="Trazado_130979" data-name="Trazado 130979" d="M673.975-63.449V-29.6h3.9V-59.657Z" transform="translate(65.942 26.015)"/>
    <line id="Línea_194" data-name="Línea 194" x2="4.007" y2="3.898" transform="translate(703.951 -72.425)" fill="none" stroke="#fff" stroke-linecap="round" stroke-linejoin="round" stroke-width="0"/>
    <line id="Línea_195" data-name="Línea 195" x2="31.959" y2="31.093" transform="translate(707.958 -68.527)" fill="none" stroke="#fff" stroke-linecap="round" stroke-linejoin="round" stroke-width="0"/>
    <line id="Línea_196" data-name="Línea 196" x2="3.898" y2="3.793" transform="translate(739.917 -37.434)" fill="none" stroke="#fff" stroke-linecap="round" stroke-linejoin="round" stroke-width="0"/>
    <rect id="Rectángulo_31258" data-name="Rectángulo 31258" width="55.642" height="48.624" transform="translate(699.932 0.311)"/>
    <rect id="Rectángulo_31259" data-name="Rectángulo 31259" width="47.45" height="34.627" transform="translate(703.607 9.64)" fill="#fff"/>
    <line id="Línea_197" data-name="Línea 197" y2="109.33" transform="translate(665.259 -72.425)" fill="none" stroke="#757575" stroke-miterlimit="10" stroke-width="1"/>
    <line id="Línea_198" data-name="Línea 198" x2="44.812" transform="translate(651.222 24.622)" fill="none" stroke="#757575" stroke-miterlimit="10" stroke-width="1"/>
    <line id="Línea_199" data-name="Línea 199" x2="53.72" transform="translate(651.222 -58.658)" fill="none" stroke="#757575" stroke-miterlimit="10" stroke-width="1"/>
    <line id="Línea_200" data-name="Línea 200" y2="29.425" transform="translate(730.318 -33.012)" fill="none" stroke="#757575" stroke-miterlimit="10" stroke-width="1"/>
    <rect id="Rectángulo_31260" data-name="Rectángulo 31260" width="7.241" height="7.241" transform="translate(707.102 21.002)"/>
    <rect id="Rectángulo_31261" data-name="Rectángulo 31261" width="7.241" height="7.241" transform="translate(707.102 33.007)"/>
    <line id="Línea_201" data-name="Línea 201" x2="31.314" transform="translate(716.01 36.905)" fill="none" stroke="#000" stroke-miterlimit="10" stroke-width="1"/>
    <line id="Línea_202" data-name="Línea 202" x2="31.314" transform="translate(716.01 24.622)" fill="none" stroke="#000" stroke-miterlimit="10" stroke-width="1"/>
    <path id="Trazado_130980" data-name="Trazado 130980" d="M664.66-71.883v37.3h38.477Z" transform="translate(38.947 1.573)" stroke="#000" stroke-linejoin="round" stroke-width="1"/>
    <path id="Trazado_130981" data-name="Trazado 130981" d="M655.12-68.527h52.838l-4.007-3.9H651.222V36.905h44.812v-3.9H655.12Z" transform="translate(0)"/>
  </g>
</svg>
