<svg xmlns="http://www.w3.org/2000/svg" width="505" height="327.866" viewBox="0 0 505 327.866">
  <g id="Grupo_62902" data-name="Grupo 62902" transform="translate(-810 -7803.394)">
    <g id="Grupo_62200" data-name="Grupo 62200" transform="translate(525 -160.143)">
      <g id="Grupo_62088" data-name="Grupo 62088" transform="translate(285 7963.537)">
        <g id="Grupo_60039" data-name="Grupo 60039" transform="translate(0)">
          <g id="Grupo_59588" data-name="Grupo 59588">
            <rect id="Rectángulo_29951" data-name="Rectángulo 29951" width="505" height="28.137" transform="translate(0 299.728)" fill="#e8e8e8"/>
            <path id="Trazado_134006" data-name="Trazado 134006" d="M8.176,14H6.951L2.3,6.878V14H1.073V4.758H2.3l4.666,7.154V4.758H8.176Zm1.669-3.5a4.057,4.057,0,0,1,.4-1.815,2.96,2.96,0,0,1,1.1-1.244A3.007,3.007,0,0,1,12.962,7a2.9,2.9,0,0,1,2.269.971A3.736,3.736,0,0,1,16.1,10.56v.083a4.092,4.092,0,0,1-.384,1.8,2.916,2.916,0,0,1-1.1,1.241,3.041,3.041,0,0,1-1.641.444,2.889,2.889,0,0,1-2.263-.971,3.718,3.718,0,0,1-.866-2.571Zm1.181.14a2.938,2.938,0,0,0,.53,1.834,1.8,1.8,0,0,0,2.841-.01,3.213,3.213,0,0,0,.527-1.965,2.933,2.933,0,0,0-.536-1.831,1.705,1.705,0,0,0-1.425-.7,1.686,1.686,0,0,0-1.4.692A3.189,3.189,0,0,0,11.026,10.642Zm8.138-5.173V7.132h1.282V8.04H19.164V12.3a.953.953,0,0,0,.171.62.721.721,0,0,0,.584.207,2.843,2.843,0,0,0,.559-.076V14a3.424,3.424,0,0,1-.9.126,1.462,1.462,0,0,1-1.187-.476,2.045,2.045,0,0,1-.4-1.352V8.04h-1.25V7.132h1.25V5.469ZM26.057,14a2.467,2.467,0,0,1-.165-.724,2.62,2.62,0,0,1-1.955.851,2.424,2.424,0,0,1-1.666-.574A1.859,1.859,0,0,1,21.62,12.1a1.942,1.942,0,0,1,.816-1.666,3.846,3.846,0,0,1,2.295-.594h1.143V9.3a1.319,1.319,0,0,0-.368-.981,1.48,1.48,0,0,0-1.085-.365,1.712,1.712,0,0,0-1.054.317.935.935,0,0,0-.425.768H21.76a1.621,1.621,0,0,1,.365-.993,2.491,2.491,0,0,1,.99-.759A3.331,3.331,0,0,1,24.489,7a2.715,2.715,0,0,1,1.86.594,2.141,2.141,0,0,1,.7,1.635v3.161a3.865,3.865,0,0,0,.241,1.5V14Zm-1.949-.9a2.064,2.064,0,0,0,1.047-.286,1.728,1.728,0,0,0,.717-.743V10.667h-.92q-2.158,0-2.158,1.263a1.069,1.069,0,0,0,.368.863A1.415,1.415,0,0,0,24.108,13.1Zm4.805.279a.735.735,0,0,1,.181-.508.689.689,0,0,1,.543-.2.71.71,0,0,1,.549.2.721.721,0,0,1,.187.508.681.681,0,0,1-.187.489.723.723,0,0,1-.549.2.653.653,0,0,1-.724-.686ZM37.02,14H35.8V4.758H37.02Zm3.148-6.868.032.762A2.536,2.536,0,0,1,42.237,7a1.964,1.964,0,0,1,1.961,1.1,2.6,2.6,0,0,1,.892-.8,2.634,2.634,0,0,1,1.3-.3q2.26,0,2.3,2.393V14H47.512V9.468a1.577,1.577,0,0,0-.336-1.1A1.482,1.482,0,0,0,46.046,8a1.557,1.557,0,0,0-1.085.39,1.584,1.584,0,0,0-.5,1.051V14H43.278V9.5A1.31,1.31,0,0,0,41.812,8a1.571,1.571,0,0,0-1.581.984V14H39.057V7.132ZM54.7,14a2.467,2.467,0,0,1-.165-.724,2.62,2.62,0,0,1-1.955.851,2.424,2.424,0,0,1-1.666-.574,1.859,1.859,0,0,1-.651-1.457,1.942,1.942,0,0,1,.816-1.666,3.846,3.846,0,0,1,2.295-.594h1.143V9.3a1.319,1.319,0,0,0-.368-.981,1.48,1.48,0,0,0-1.085-.365,1.712,1.712,0,0,0-1.054.317.935.935,0,0,0-.425.768H50.4a1.621,1.621,0,0,1,.365-.993,2.491,2.491,0,0,1,.99-.759A3.331,3.331,0,0,1,53.13,7a2.715,2.715,0,0,1,1.86.594,2.141,2.141,0,0,1,.7,1.635v3.161a3.865,3.865,0,0,0,.241,1.5V14Zm-1.949-.9a2.064,2.064,0,0,0,1.047-.286,1.728,1.728,0,0,0,.717-.743V10.667h-.92q-2.158,0-2.158,1.263a1.069,1.069,0,0,0,.368.863A1.415,1.415,0,0,0,52.749,13.1Zm4.5-2.6a4.037,4.037,0,0,1,.743-2.555,2.56,2.56,0,0,1,3.929-.06l.057-.762h1.073v6.7a2.794,2.794,0,0,1-.79,2.1,2.916,2.916,0,0,1-2.123.768,3.532,3.532,0,0,1-1.454-.317,2.5,2.5,0,0,1-1.085-.87l.609-.7a2.3,2.3,0,0,0,1.847.933,1.8,1.8,0,0,0,1.336-.482,1.844,1.844,0,0,0,.479-1.358v-.59a2.414,2.414,0,0,1-1.923.813A2.346,2.346,0,0,1,58,13.156,4.244,4.244,0,0,1,57.25,10.509Zm1.181.133a3.08,3.08,0,0,0,.476,1.825,1.547,1.547,0,0,0,1.333.663,1.72,1.72,0,0,0,1.631-1.009V8.985A1.74,1.74,0,0,0,60.252,8a1.561,1.561,0,0,0-1.339.667A3.354,3.354,0,0,0,58.43,10.642Zm9.242,3.485A3,3,0,0,1,65.4,13.21a3.4,3.4,0,0,1-.876-2.453v-.216a4.121,4.121,0,0,1,.39-1.825,3.045,3.045,0,0,1,1.092-1.257A2.745,2.745,0,0,1,67.526,7a2.572,2.572,0,0,1,2.082.882,3.82,3.82,0,0,1,.743,2.526V10.9H65.7a2.441,2.441,0,0,0,.594,1.641,1.866,1.866,0,0,0,1.444.625,2.045,2.045,0,0,0,1.054-.254,2.648,2.648,0,0,0,.755-.673l.717.559A2.884,2.884,0,0,1,67.672,14.127ZM67.526,7.97a1.566,1.566,0,0,0-1.193.517,2.515,2.515,0,0,0-.6,1.45h3.44V9.849a2.237,2.237,0,0,0-.482-1.387A1.475,1.475,0,0,0,67.526,7.97Zm5.294-.838L72.858,8A2.5,2.5,0,0,1,74.915,7q2.177,0,2.2,2.457V14H75.937V9.455a1.581,1.581,0,0,0-.34-1.1A1.361,1.361,0,0,0,74.56,8a1.7,1.7,0,0,0-1,.3,2.069,2.069,0,0,0-.673.8V14H71.709V7.132Zm12.13,7a3,3,0,0,1-2.272-.917,3.4,3.4,0,0,1-.876-2.453v-.216a4.121,4.121,0,0,1,.39-1.825,3.045,3.045,0,0,1,1.092-1.257A2.745,2.745,0,0,1,84.8,7a2.572,2.572,0,0,1,2.082.882,3.82,3.82,0,0,1,.743,2.526V10.9H82.977a2.441,2.441,0,0,0,.594,1.641,1.866,1.866,0,0,0,1.444.625,2.045,2.045,0,0,0,1.054-.254,2.648,2.648,0,0,0,.755-.673l.717.559A2.884,2.884,0,0,1,84.951,14.127ZM84.8,7.97a1.566,1.566,0,0,0-1.193.517,2.515,2.515,0,0,0-.6,1.45h3.44V9.849a2.237,2.237,0,0,0-.482-1.387A1.475,1.475,0,0,0,84.8,7.97Zm6.487,1.669,1.523-2.507h1.371l-2.247,3.4L94.256,14H92.9l-1.587-2.571L89.724,14H88.359l2.317-3.472-2.247-3.4h1.358Zm5.732-4.17V7.132h1.282V8.04H97.024V12.3a.953.953,0,0,0,.171.62.721.721,0,0,0,.584.207,2.843,2.843,0,0,0,.559-.076V14a3.424,3.424,0,0,1-.9.126,1.462,1.462,0,0,1-1.187-.476,2.045,2.045,0,0,1-.4-1.352V8.04H94.6V7.132h1.25V5.469ZM103,8.186a3.519,3.519,0,0,0-.578-.044,1.547,1.547,0,0,0-1.568.984V14H99.677V7.132h1.143l.019.793A1.829,1.829,0,0,1,102.477,7a1.2,1.2,0,0,1,.521.089ZM108.063,14a2.467,2.467,0,0,1-.165-.724,2.62,2.62,0,0,1-1.955.851,2.424,2.424,0,0,1-1.666-.574,1.859,1.859,0,0,1-.651-1.457,1.942,1.942,0,0,1,.816-1.666,3.846,3.846,0,0,1,2.295-.594h1.143V9.3a1.319,1.319,0,0,0-.368-.981,1.48,1.48,0,0,0-1.085-.365,1.712,1.712,0,0,0-1.054.317.935.935,0,0,0-.425.768h-1.181a1.621,1.621,0,0,1,.365-.993,2.491,2.491,0,0,1,.99-.759A3.331,3.331,0,0,1,106.495,7a2.715,2.715,0,0,1,1.86.594,2.141,2.141,0,0,1,.7,1.635v3.161a3.865,3.865,0,0,0,.241,1.5V14Zm-1.949-.9a2.064,2.064,0,0,0,1.047-.286,1.728,1.728,0,0,0,.717-.743V10.667h-.92q-2.158,0-2.158,1.263a1.069,1.069,0,0,0,.368.863A1.415,1.415,0,0,0,106.114,13.1Zm6.056.9h-1.181V7.132h1.181Zm.013-9.744H113.6l-1.7,1.866-.946,0Zm1.638,6.252a4.023,4.023,0,0,1,.749-2.542,2.548,2.548,0,0,1,3.872-.136V4.25h1.174V14h-1.079l-.057-.736a2.391,2.391,0,0,1-1.961.863,2.346,2.346,0,0,1-1.946-.978,4.069,4.069,0,0,1-.752-2.552Zm1.174.133a3.046,3.046,0,0,0,.482,1.828,1.56,1.56,0,0,0,1.333.66,1.713,1.713,0,0,0,1.631-1V8.973A1.726,1.726,0,0,0,116.822,8a1.567,1.567,0,0,0-1.346.667A3.354,3.354,0,0,0,114.994,10.642ZM125.677,14a2.467,2.467,0,0,1-.165-.724,2.62,2.62,0,0,1-1.955.851,2.424,2.424,0,0,1-1.666-.574,1.859,1.859,0,0,1-.651-1.457,1.942,1.942,0,0,1,.816-1.666,3.846,3.846,0,0,1,2.295-.594h1.143V9.3a1.319,1.319,0,0,0-.368-.981,1.48,1.48,0,0,0-1.085-.365,1.712,1.712,0,0,0-1.054.317.935.935,0,0,0-.425.768H121.38a1.621,1.621,0,0,1,.365-.993,2.491,2.491,0,0,1,.99-.759A3.331,3.331,0,0,1,124.109,7a2.715,2.715,0,0,1,1.86.594,2.141,2.141,0,0,1,.7,1.635v3.161a3.865,3.865,0,0,0,.241,1.5V14Zm-1.949-.9a2.064,2.064,0,0,0,1.047-.286,1.728,1.728,0,0,0,.717-.743V10.667h-.92q-2.158,0-2.158,1.263a1.069,1.069,0,0,0,.368.863A1.415,1.415,0,0,0,123.729,13.1Zm7.712-2.6a4.023,4.023,0,0,1,.749-2.542,2.548,2.548,0,0,1,3.872-.136V4.25h1.174V14h-1.079l-.057-.736a2.391,2.391,0,0,1-1.961.863,2.346,2.346,0,0,1-1.946-.978,4.069,4.069,0,0,1-.752-2.552Zm1.174.133a3.046,3.046,0,0,0,.482,1.828,1.56,1.56,0,0,0,1.333.66,1.713,1.713,0,0,0,1.631-1V8.973A1.726,1.726,0,0,0,134.443,8a1.567,1.567,0,0,0-1.346.667A3.354,3.354,0,0,0,132.615,10.642Zm9.293,3.485a3,3,0,0,1-2.272-.917,3.4,3.4,0,0,1-.876-2.453v-.216a4.121,4.121,0,0,1,.39-1.825,3.045,3.045,0,0,1,1.092-1.257A2.745,2.745,0,0,1,141.762,7a2.572,2.572,0,0,1,2.082.882,3.82,3.82,0,0,1,.743,2.526V10.9h-4.653a2.441,2.441,0,0,0,.594,1.641,1.866,1.866,0,0,0,1.444.625,2.045,2.045,0,0,0,1.054-.254,2.647,2.647,0,0,0,.755-.673l.717.559A2.884,2.884,0,0,1,141.908,14.127Zm-.146-6.157a1.566,1.566,0,0,0-1.193.517,2.515,2.515,0,0,0-.6,1.45h3.44V9.849a2.237,2.237,0,0,0-.482-1.387A1.475,1.475,0,0,0,141.762,7.97Zm12.689,3.612h-3.872L149.709,14h-1.257l3.529-9.242h1.066L156.584,14h-1.25Zm-3.5-1h3.142l-1.574-4.323Zm10.867,2.736a2.494,2.494,0,0,1-2.012.806,2.135,2.135,0,0,1-1.673-.638,2.761,2.761,0,0,1-.581-1.888V7.132h1.174v4.437q0,1.562,1.27,1.562a1.758,1.758,0,0,0,1.79-1v-5h1.174V14H161.84Zm4.52-7.852V7.132h1.282V8.04h-1.282V12.3a.953.953,0,0,0,.171.62.721.721,0,0,0,.584.207,2.843,2.843,0,0,0,.559-.076V14a3.424,3.424,0,0,1-.9.126,1.462,1.462,0,0,1-1.187-.476,2.045,2.045,0,0,1-.4-1.352V8.04h-1.25V7.132h1.25V5.469Zm2.215,5.034a4.057,4.057,0,0,1,.4-1.815,2.959,2.959,0,0,1,1.1-1.244A3.007,3.007,0,0,1,171.666,7a2.9,2.9,0,0,1,2.269.971,3.736,3.736,0,0,1,.866,2.583v.083a4.092,4.092,0,0,1-.384,1.8,2.916,2.916,0,0,1-1.1,1.241,3.041,3.041,0,0,1-1.641.444,2.889,2.889,0,0,1-2.263-.971,3.718,3.718,0,0,1-.866-2.571Zm1.181.14a2.938,2.938,0,0,0,.53,1.834,1.8,1.8,0,0,0,2.841-.01,3.213,3.213,0,0,0,.527-1.965,2.933,2.933,0,0,0-.536-1.831,1.705,1.705,0,0,0-1.425-.7,1.686,1.686,0,0,0-1.4.692A3.189,3.189,0,0,0,169.73,10.642Zm6.259-.133a4.023,4.023,0,0,1,.749-2.542,2.548,2.548,0,0,1,3.872-.136V4.25h1.174V14h-1.079l-.057-.736a2.391,2.391,0,0,1-1.961.863,2.346,2.346,0,0,1-1.946-.978,4.069,4.069,0,0,1-.752-2.552Zm1.174.133a3.046,3.046,0,0,0,.482,1.828,1.56,1.56,0,0,0,1.333.66,1.713,1.713,0,0,0,1.631-1V8.973A1.726,1.726,0,0,0,178.991,8a1.567,1.567,0,0,0-1.346.667A3.354,3.354,0,0,0,177.163,10.642Zm9.293,3.485a3,3,0,0,1-2.272-.917,3.4,3.4,0,0,1-.876-2.453v-.216a4.121,4.121,0,0,1,.39-1.825,3.045,3.045,0,0,1,1.092-1.257A2.745,2.745,0,0,1,186.31,7a2.572,2.572,0,0,1,2.082.882,3.82,3.82,0,0,1,.743,2.526V10.9h-4.653a2.441,2.441,0,0,0,.594,1.641,1.866,1.866,0,0,0,1.444.625,2.045,2.045,0,0,0,1.054-.254,2.647,2.647,0,0,0,.755-.673l.717.559A2.884,2.884,0,0,1,186.456,14.127ZM186.31,7.97a1.566,1.566,0,0,0-1.193.517,2.515,2.515,0,0,0-.6,1.45h3.44V9.849a2.237,2.237,0,0,0-.482-1.387A1.475,1.475,0,0,0,186.31,7.97Zm8.182,4.208a.865.865,0,0,0-.359-.74,3.452,3.452,0,0,0-1.25-.454,5.912,5.912,0,0,1-1.416-.457,2.014,2.014,0,0,1-.774-.635,1.518,1.518,0,0,1-.251-.876,1.782,1.782,0,0,1,.714-1.428A2.789,2.789,0,0,1,192.981,7a2.87,2.87,0,0,1,1.895.6A1.915,1.915,0,0,1,195.6,9.15h-1.181a1.06,1.06,0,0,0-.409-.832,1.534,1.534,0,0,0-1.031-.349,1.605,1.605,0,0,0-1,.279.879.879,0,0,0-.362.73.712.712,0,0,0,.336.641,4.139,4.139,0,0,0,1.216.413,6.334,6.334,0,0,1,1.425.47,2.079,2.079,0,0,1,.809.657,1.615,1.615,0,0,1,.263.936,1.758,1.758,0,0,1-.736,1.476,3.089,3.089,0,0,1-1.911.555,3.459,3.459,0,0,1-1.46-.292,2.375,2.375,0,0,1-.993-.816,1.966,1.966,0,0,1-.359-1.133h1.174a1.216,1.216,0,0,0,.473.936,1.835,1.835,0,0,0,1.165.346,1.894,1.894,0,0,0,1.07-.27A.829.829,0,0,0,194.492,12.178Zm4.621-1.358-.736.768V14H197.2V4.25h1.174v5.9l.628-.755,2.139-2.26h1.428L199.9,10l2.983,4h-1.377Zm7.846-.571a9.814,9.814,0,0,1,.384-2.755,8,8,0,0,1,1.146-2.4,4.874,4.874,0,0,1,1.581-1.523l.241.774a5.056,5.056,0,0,0-1.52,2.171,9.411,9.411,0,0,0-.651,3.269l-.006.54a9.46,9.46,0,0,0,.9,4.253,5.079,5.079,0,0,0,1.282,1.688l-.241.717a5.031,5.031,0,0,1-1.612-1.574A8.823,8.823,0,0,1,206.959,10.249ZM217.382,14h-6.056v-.844l3.2-3.555a7.6,7.6,0,0,0,.981-1.311,2.188,2.188,0,0,0,.27-1.044,1.658,1.658,0,0,0-.438-1.187A1.531,1.531,0,0,0,214.17,5.6a1.814,1.814,0,0,0-1.362.5,1.9,1.9,0,0,0-.486,1.387h-1.174a2.726,2.726,0,0,1,.822-2.063,3.047,3.047,0,0,1,2.2-.787,2.928,2.928,0,0,1,2.038.676,2.306,2.306,0,0,1,.749,1.8,5.287,5.287,0,0,1-1.739,3.25l-2.476,2.685h4.64Zm7.04-3.942a5.371,5.371,0,0,1-.7,3.066,2.928,2.928,0,0,1-4.393.022,5.1,5.1,0,0,1-.736-2.929V8.649a5.251,5.251,0,0,1,.7-3.028,2.98,2.98,0,0,1,4.405-.035,5.068,5.068,0,0,1,.724,2.948Zm-1.174-1.606a4.3,4.3,0,0,0-.419-2.174A1.442,1.442,0,0,0,221.5,5.6a1.423,1.423,0,0,0-1.314.679,4.2,4.2,0,0,0-.425,2.088v1.879a4.372,4.372,0,0,0,.435,2.212,1.439,1.439,0,0,0,1.317.714,1.42,1.42,0,0,0,1.292-.673,4.214,4.214,0,0,0,.441-2.12ZM231.981,14h-6.056v-.844l3.2-3.555a7.6,7.6,0,0,0,.981-1.311,2.188,2.188,0,0,0,.27-1.044,1.658,1.658,0,0,0-.438-1.187A1.531,1.531,0,0,0,228.77,5.6a1.814,1.814,0,0,0-1.362.5,1.9,1.9,0,0,0-.486,1.387h-1.174a2.726,2.726,0,0,1,.822-2.063,3.047,3.047,0,0,1,2.2-.787,2.928,2.928,0,0,1,2.038.676,2.306,2.306,0,0,1,.749,1.8,5.287,5.287,0,0,1-1.739,3.25l-2.476,2.685h4.64Zm7.04-3.942a5.371,5.371,0,0,1-.7,3.066,2.928,2.928,0,0,1-4.393.022,5.1,5.1,0,0,1-.736-2.929V8.649a5.251,5.251,0,0,1,.7-3.028,2.98,2.98,0,0,1,4.405-.035,5.068,5.068,0,0,1,.724,2.948Zm-1.174-1.606a4.3,4.3,0,0,0-.419-2.174A1.442,1.442,0,0,0,236.1,5.6a1.423,1.423,0,0,0-1.314.679,4.2,4.2,0,0,0-.425,2.088v1.879a4.372,4.372,0,0,0,.435,2.212,1.439,1.439,0,0,0,1.317.714,1.42,1.42,0,0,0,1.292-.673,4.214,4.214,0,0,0,.441-2.12Zm5.51,1.86a9.819,9.819,0,0,1-.371,2.714,8.024,8.024,0,0,1-1.136,2.4,4.978,4.978,0,0,1-1.6,1.562L240,16.266a5.1,5.1,0,0,0,1.571-2.326,10.065,10.065,0,0,0,.606-3.5v-.2a10.449,10.449,0,0,0-.279-2.479,8.366,8.366,0,0,0-.778-2.053A4.743,4.743,0,0,0,240,4.288l.248-.717a4.959,4.959,0,0,1,1.6,1.549,8.041,8.041,0,0,1,1.136,2.393A10.045,10.045,0,0,1,243.356,10.312Z" transform="translate(12 306.143)" fill="#12263f"/>
            <path id="Trazado_131078" data-name="Trazado 131078" d="M0,0H505V300.143H0Z" fill="none"/>
          </g>
        </g>
      </g>
      <g id="Grupo_62199" data-name="Grupo 62199" transform="translate(-574.687 7556.811)">
        <text id="_40" data-name=" 40" transform="translate(973.341 598.746)" fill="#4e5ff9" font-size="11" font-family="Roboto-Regular, Roboto"><tspan x="0" y="0" xml:space="preserve"> 40</tspan></text>
        <text id="_70" data-name=" 70" transform="translate(1003.696 623.085)" fill="#4e5ff9" font-size="11" font-family="Roboto-Regular, Roboto"><tspan x="0" y="0" xml:space="preserve"> 70</tspan></text>
        <text id="_100" data-name=" 100" transform="translate(1024.764 644.334)" fill="#4e5ff9" font-size="11" font-family="Roboto-Regular, Roboto"><tspan x="0" y="0" xml:space="preserve"> 100</tspan></text>
        <text id="_130" data-name=" 130" transform="translate(1057.607 666.437)" fill="#4e5ff9" font-size="11" font-family="Roboto-Regular, Roboto"><tspan x="0" y="0" xml:space="preserve"> 130</tspan></text>
        <text id="_170" data-name="170" transform="translate(1099.779 689.193)" fill="#4e5ff9" font-size="11" font-family="Roboto-Regular, Roboto"><tspan x="0" y="0">170</tspan></text>
        <g id="Rectángulo_31267" data-name="Rectángulo 31267" transform="translate(931.686 419.19)" fill="#f2f2f3" stroke="#000" stroke-miterlimit="10" stroke-width="1">
          <rect width="361.567" height="146.47" stroke="none"/>
          <rect x="0.5" y="0.5" width="360.567" height="145.47" fill="none"/>
        </g>
        <g id="Grupo_62187" data-name="Grupo 62187" transform="translate(965.516 443.1)">
          <g id="Trazado_131066" data-name="Trazado 131066" transform="translate(-955.057 -435.708)" fill="#fff" stroke-miterlimit="10">
            <path d="M 984.5711059570312 537.255126953125 C 976.0137939453125 532.388427734375 968.8092041015625 525.2704467773438 963.7135620117188 516.6417846679688 C 961.0944213867188 512.206787109375 959.0694580078125 507.4317626953125 957.6948852539062 502.4493713378906 C 956.2762451171875 497.3072204589844 955.5569458007812 491.9623718261719 955.5569458007812 486.5632934570312 C 955.5569458007812 481.2568359375 956.2523803710938 476.0005187988281 957.6239013671875 470.9403686523438 C 958.9530639648438 466.0364990234375 960.9129638671875 461.3276977539062 963.4490966796875 456.9447326660156 C 968.3798828125 448.4233703613281 975.3777465820312 441.32275390625 983.7073364257812 436.3831481933594 L 995.3765258789062 454.6748046875 C 983.8212890625 460.9103393554688 976.6661376953125 473.0774230957031 976.6661376953125 486.5632934570312 C 976.6661376953125 499.6027526855469 983.4771118164062 511.5857238769531 994.4752197265625 517.9573364257812 L 984.5711059570312 537.255126953125 Z" stroke="none"/>
            <path d="M 983.5472412109375 437.0618896484375 C 975.473876953125 441.9461669921875 968.6876220703125 448.8898315429688 963.8818969726562 457.1951293945312 C 961.367431640625 461.5405883789062 959.42431640625 466.2091369628906 958.1065063476562 471.0711364746094 C 956.7465209960938 476.0886840820312 956.0569458007812 481.3009948730469 956.0569458007812 486.5632934570312 C 956.0569458007812 491.9174499511719 956.7702026367188 497.2175598144531 958.1768798828125 502.31640625 C 959.5397338867188 507.2562866210938 961.54736328125 511.990478515625 964.14404296875 516.3875732421875 C 969.1053466796875 524.7886962890625 976.08251953125 531.7446899414062 984.36572265625 536.5602416992188 L 993.8148803710938 518.14892578125 C 982.9033813476562 511.6300659179688 976.1661376953125 499.6185302734375 976.1661376953125 486.5632934570312 C 976.1661376953125 473.0762634277344 983.2265014648438 460.89013671875 994.6678466796875 454.49365234375 L 983.5472412109375 437.0618896484375 M 983.8696899414062 435.7080078125 L 996.089599609375 454.8629150390625 C 984.8682861328125 460.6963500976562 977.1661376953125 472.6961059570312 977.1661376953125 486.5632934570312 C 977.1661376953125 500.0352172851562 984.4340209960938 511.7543334960938 995.1384887695312 517.760009765625 L 984.7787475585938 537.9456176757812 C 967.0858154296875 528.1010131835938 955.0569458007812 508.7854614257812 955.0569458007812 486.5632934570312 C 955.0569458007812 464.7247009277344 966.677734375 445.7030029296875 983.8696899414062 435.7080078125 Z" stroke="none" fill="#000"/>
          </g>
        </g>
        <g id="Grupo_62188" data-name="Grupo 62188" transform="translate(1218.954 443.1)">
          <g id="Trazado_131067" data-name="Trazado 131067" transform="translate(-1130.143 -435.708)" fill="#fff" stroke-miterlimit="10">
            <path d="M 1141.66015625 537.255126953125 L 1131.755859375 517.9573974609375 C 1142.754760742188 511.5860595703125 1149.566162109375 499.6030578613281 1149.566162109375 486.5632934570312 C 1149.566162109375 473.0781860351562 1142.4111328125 460.9111022949219 1130.85595703125 454.6748046875 L 1142.523803710938 436.3831481933594 C 1150.853637695312 441.3228454589844 1157.851684570312 448.4234619140625 1162.782836914062 456.9447326660156 C 1165.319213867188 461.3277587890625 1167.279174804688 466.0365600585938 1168.608520507812 470.9403686523438 C 1169.980224609375 476.0005798339844 1170.675659179688 481.2568664550781 1170.675659179688 486.5632934570312 C 1170.675659179688 491.96240234375 1169.956298828125 497.3072509765625 1168.537719726562 502.4493713378906 C 1167.1630859375 507.4317932128906 1165.138061523438 512.206787109375 1162.518920898438 516.6417846679688 C 1157.423095703125 525.2705078125 1150.218017578125 532.3884887695312 1141.66015625 537.255126953125 Z" stroke="none"/>
            <path d="M 1142.683959960938 437.0618896484375 L 1131.564575195312 454.49365234375 C 1143.005737304688 460.890869140625 1150.066162109375 473.0770263671875 1150.066162109375 486.5632934570312 C 1150.066162109375 499.6188659667969 1143.328491210938 511.6304321289062 1132.416137695312 518.1489868164062 L 1141.865478515625 536.560302734375 C 1150.149291992188 531.7447509765625 1157.126953125 524.7886962890625 1162.08837890625 516.3875122070312 C 1164.685180664062 511.9905090332031 1166.69287109375 507.2562866210938 1168.0556640625 502.31640625 C 1169.46240234375 497.2175903320312 1170.175659179688 491.91748046875 1170.175659179688 486.5632934570312 C 1170.175659179688 481.3010559082031 1169.485961914062 476.0887451171875 1168.125854492188 471.0711669921875 C 1166.807983398438 466.2091979980469 1164.864624023438 461.5406494140625 1162.35009765625 457.1951904296875 C 1157.5439453125 448.8899536132812 1150.757568359375 441.9462890625 1142.683959960938 437.0618896484375 M 1142.361450195312 435.7080078125 C 1159.553466796875 445.7030029296875 1171.175659179688 464.7247009277344 1171.175659179688 486.5632934570312 C 1171.175659179688 508.7854614257812 1159.146850585938 528.1010131835938 1141.452514648438 537.9456176757812 L 1131.092529296875 517.760009765625 C 1141.79833984375 511.7543334960938 1149.066162109375 500.0352172851562 1149.066162109375 486.5632934570312 C 1149.066162109375 472.6961059570312 1141.362670898438 460.6963500976562 1130.142944335938 454.8629150390625 L 1142.361450195312 435.7080078125 Z" stroke="none" fill="#000"/>
          </g>
        </g>
        <g id="Elipse_4634" data-name="Elipse 4634" transform="translate(1009.928 477.68)" fill="#fff" stroke="#000" stroke-miterlimit="10" stroke-width="1">
          <circle cx="14.836" cy="14.836" r="14.836" stroke="none"/>
          <circle cx="14.836" cy="14.836" r="14.336" fill="none"/>
        </g>
        <g id="Elipse_4635" data-name="Elipse 4635" transform="translate(1068.728 477.68)" fill="#fff" stroke="#000" stroke-miterlimit="10" stroke-width="1">
          <circle cx="14.836" cy="14.836" r="14.836" stroke="none"/>
          <circle cx="14.836" cy="14.836" r="14.336" fill="none"/>
        </g>
        <g id="Elipse_4636" data-name="Elipse 4636" transform="translate(1126.576 477.68)" fill="#fff" stroke="#000" stroke-miterlimit="10" stroke-width="1">
          <circle cx="14.836" cy="14.836" r="14.836" stroke="none"/>
          <circle cx="14.836" cy="14.836" r="14.336" fill="none"/>
        </g>
        <g id="Elipse_4637" data-name="Elipse 4637" transform="translate(1185.607 477.68)" fill="#fff" stroke="#000" stroke-miterlimit="10" stroke-width="1">
          <circle cx="14.836" cy="14.836" r="14.836" stroke="none"/>
          <circle cx="14.836" cy="14.836" r="14.336" fill="none"/>
        </g>
        <g id="Elipse_4638" data-name="Elipse 4638" transform="translate(939.822 427.646)" fill="none" stroke="#000" stroke-miterlimit="10" stroke-width="1">
          <circle cx="7.727" cy="7.727" r="7.727" stroke="none"/>
          <circle cx="7.727" cy="7.727" r="7.227" fill="none"/>
        </g>
        <g id="Elipse_4639" data-name="Elipse 4639" transform="translate(939.822 542.293)" fill="none" stroke="#000" stroke-miterlimit="10" stroke-width="1">
          <circle cx="7.727" cy="7.727" r="7.727" stroke="none"/>
          <circle cx="7.727" cy="7.727" r="7.227" fill="none"/>
        </g>
        <g id="Elipse_4640" data-name="Elipse 4640" transform="translate(1269.712 543.339)" fill="none" stroke="#000" stroke-miterlimit="10" stroke-width="1">
          <circle cx="7.727" cy="7.727" r="7.727" stroke="none"/>
          <circle cx="7.727" cy="7.727" r="7.227" fill="none"/>
        </g>
        <g id="Elipse_4641" data-name="Elipse 4641" transform="translate(1269.712 427.646)" fill="none" stroke="#000" stroke-miterlimit="10" stroke-width="1">
          <circle cx="7.727" cy="7.727" r="7.727" stroke="none"/>
          <circle cx="7.727" cy="7.727" r="7.227" fill="none"/>
        </g>
        <line id="Línea_310" data-name="Línea 310" x1="13.154" transform="translate(940.972 435.379)" fill="none" stroke="#4e5ff9" stroke-miterlimit="10" stroke-width="1"/>
        <line id="Línea_311" data-name="Línea 311" y2="13.154" transform="translate(947.549 428.802)" fill="none" stroke="#4e5ff9" stroke-miterlimit="10" stroke-width="1"/>
        <line id="Línea_312" data-name="Línea 312" y2="152.571" transform="translate(947.549 545.337)" fill="none" stroke="#4e5ff9" stroke-miterlimit="10" stroke-width="1"/>
        <line id="Línea_313" data-name="Línea 313" y2="122.388" transform="translate(1024.764 487.489)" fill="none" stroke="#4e5ff9" stroke-miterlimit="10" stroke-width="1"/>
        <line id="Línea_314" data-name="Línea 314" y1="10.877" transform="translate(1024.764 472.059)" fill="none" stroke="#4e5ff9" stroke-miterlimit="10" stroke-width="1"/>
        <line id="Línea_315" data-name="Línea 315" y2="12.142" transform="translate(1083.899 472.059)" fill="none" stroke="#4e5ff9" stroke-miterlimit="10" stroke-width="1"/>
        <line id="Línea_316" data-name="Línea 316" y2="144.426" transform="translate(1083.564 487.489)" fill="none" stroke="#4e5ff9" stroke-miterlimit="10" stroke-width="1"/>
        <line id="Línea_317" data-name="Línea 317" x2="10.624" transform="translate(1061.779 491.324)" fill="none" stroke="#4e5ff9" stroke-miterlimit="10" stroke-width="1"/>
        <line id="Línea_318" data-name="Línea 318" x2="11.679" transform="translate(1077.463 491.324)" fill="none" stroke="#4e5ff9" stroke-miterlimit="10" stroke-width="1"/>
        <line id="Línea_319" data-name="Línea 319" x2="9.36" transform="translate(1093.652 491.324)" fill="none" stroke="#4e5ff9" stroke-miterlimit="10" stroke-width="1"/>
        <line id="Línea_320" data-name="Línea 320" x2="10.624" transform="translate(1003.95 492.771)" fill="none" stroke="#4e5ff9" stroke-miterlimit="10" stroke-width="1"/>
        <line id="Línea_321" data-name="Línea 321" x2="11.679" transform="translate(1019.633 492.771)" fill="none" stroke="#4e5ff9" stroke-miterlimit="10" stroke-width="1"/>
        <line id="Línea_322" data-name="Línea 322" x2="9.36" transform="translate(1035.823 492.771)" fill="none" stroke="#4e5ff9" stroke-miterlimit="10" stroke-width="1"/>
        <line id="Línea_323" data-name="Línea 323" y2="11.13" transform="translate(1142.763 473.071)" fill="none" stroke="#4e5ff9" stroke-miterlimit="10" stroke-width="1"/>
        <line id="Línea_324" data-name="Línea 324" x2="10.877" transform="translate(1120.213 491.324)" fill="none" stroke="#4e5ff9" stroke-miterlimit="10" stroke-width="1"/>
        <line id="Línea_325" data-name="Línea 325" x2="9.866" transform="translate(1136.909 491.324)" fill="none" stroke="#4e5ff9" stroke-miterlimit="10" stroke-width="1"/>
        <line id="Línea_326" data-name="Línea 326" x2="8.601" transform="translate(1151.581 491.324)" fill="none" stroke="#4e5ff9" stroke-miterlimit="10" stroke-width="1"/>
        <line id="Línea_327" data-name="Línea 327" y2="11.13" transform="translate(1201.597 473.071)" fill="none" stroke="#4e5ff9" stroke-miterlimit="10" stroke-width="1"/>
        <line id="Línea_328" data-name="Línea 328" x2="11.889" transform="translate(1177.636 491.324)" fill="none" stroke="#4e5ff9" stroke-miterlimit="10" stroke-width="1"/>
        <line id="Línea_329" data-name="Línea 329" x2="13.66" transform="translate(1193.067 491.324)" fill="none" stroke="#4e5ff9" stroke-miterlimit="10" stroke-width="1"/>
        <line id="Línea_330" data-name="Línea 330" x1="9.866" transform="translate(1209.762 491.069)" fill="none" stroke="#4e5ff9" stroke-miterlimit="10" stroke-width="1"/>
        <line id="Línea_331" data-name="Línea 331" y2="188.158" transform="translate(1201.344 488.501)" fill="none" stroke="#4e5ff9" stroke-miterlimit="10" stroke-width="1"/>
        <line id="Línea_332" data-name="Línea 332" y2="165.898" transform="translate(1142.763 488.501)" fill="none" stroke="#4e5ff9" stroke-miterlimit="10" stroke-width="1"/>
        <line id="Línea_333" data-name="Línea 333" x2="10.877" transform="translate(1272.679 551.066)" fill="none" stroke="#4e5ff9" stroke-miterlimit="10" stroke-width="1"/>
        <line id="Línea_334" data-name="Línea 334" y2="150.72" transform="translate(1277.439 547.188)" fill="none" stroke="#4e5ff9" stroke-miterlimit="10" stroke-width="1"/>
        <line id="Línea_335" data-name="Línea 335" x2="10.877" transform="translate(1272 435.373)" fill="none" stroke="#4e5ff9" stroke-miterlimit="10" stroke-width="1"/>
        <line id="Línea_336" data-name="Línea 336" y2="11.636" transform="translate(1277.439 429.555)" fill="none" stroke="#4e5ff9" stroke-miterlimit="10" stroke-width="1"/>
        <g id="Grupo_62189" data-name="Grupo 62189" transform="translate(998.32 594.87)">
          <path id="Trazado_131068" data-name="Trazado 131068" d="M988.4,540.557l-.049,6.9,10.021-3.452Z" transform="translate(-972.962 -540.557)" fill="#4e5ff9"/>
          <line id="Línea_337" data-name="Línea 337" x2="15.411" transform="translate(0 3.452)" fill="none" stroke="#4e5ff9" stroke-miterlimit="10" stroke-width="1"/>
        </g>
        <g id="Grupo_62190" data-name="Grupo 62190" transform="translate(949.392 594.87)">
          <path id="Trazado_131069" data-name="Trazado 131069" d="M953.89,540.557l.05,6.9-10.021-3.452Z" transform="translate(-943.918 -540.557)" fill="#4e5ff9"/>
          <line id="Línea_338" data-name="Línea 338" x1="15.411" transform="translate(10 3.452)" fill="none" stroke="#4e5ff9" stroke-miterlimit="10" stroke-width="1"/>
        </g>
        <g id="Grupo_62191" data-name="Grupo 62191" transform="translate(949.392 617.636)">
          <path id="Trazado_131070" data-name="Trazado 131070" d="M953.89,556.285l.05,6.9-10.021-3.452Z" transform="translate(-943.918 -556.285)" fill="#4e5ff9"/>
          <line id="Línea_339" data-name="Línea 339" x1="43.413" transform="translate(10 3.452)" fill="none" stroke="#4e5ff9" stroke-miterlimit="10" stroke-width="1"/>
        </g>
        <g id="Grupo_62192" data-name="Grupo 62192" transform="translate(949.392 639.943)">
          <path id="Trazado_131071" data-name="Trazado 131071" d="M953.89,571.7l.05,6.9-10.021-3.452Z" transform="translate(-943.918 -571.695)" fill="#4e5ff9"/>
          <line id="Línea_340" data-name="Línea 340" x1="68.962" transform="translate(10 3.452)" fill="none" stroke="#4e5ff9" stroke-miterlimit="10" stroke-width="1"/>
        </g>
        <g id="Grupo_62193" data-name="Grupo 62193" transform="translate(949.392 662.56)">
          <path id="Trazado_131072" data-name="Trazado 131072" d="M953.89,587.32l.05,6.9-10.021-3.452Z" transform="translate(-943.918 -587.32)" fill="#4e5ff9"/>
          <line id="Línea_341" data-name="Línea 341" x1="98.216" transform="translate(10 3.452)" fill="none" stroke="#4e5ff9" stroke-miterlimit="10" stroke-width="1"/>
        </g>
        <g id="Grupo_62194" data-name="Grupo 62194" transform="translate(949.392 683.981)">
          <path id="Trazado_131073" data-name="Trazado 131073" d="M953.89,602.119l.05,6.9-10.021-3.452Z" transform="translate(-943.918 -602.119)" fill="#4e5ff9"/>
          <line id="Línea_342" data-name="Línea 342" x1="135.491" transform="translate(10 3.452)" fill="none" stroke="#4e5ff9" stroke-miterlimit="10" stroke-width="1"/>
        </g>
        <g id="Grupo_62195" data-name="Grupo 62195" transform="translate(1028.354 617.636)">
          <path id="Trazado_131074" data-name="Trazado 131074" d="M1028.913,556.285l-.05,6.9,10.021-3.452Z" transform="translate(-984.866 -556.285)" fill="#4e5ff9"/>
          <line id="Línea_343" data-name="Línea 343" x2="44.019" transform="translate(0 3.452)" fill="none" stroke="#4e5ff9" stroke-miterlimit="10" stroke-width="1"/>
        </g>
        <g id="Grupo_62196" data-name="Grupo 62196" transform="translate(1060.733 639.943)">
          <path id="Trazado_131075" data-name="Trazado 131075" d="M1069.5,571.7l-.049,6.9,10.021-3.452Z" transform="translate(-999.08 -571.695)" fill="#4e5ff9"/>
          <line id="Línea_344" data-name="Línea 344" x2="70.396" transform="translate(0 3.452)" fill="none" stroke="#4e5ff9" stroke-miterlimit="10" stroke-width="1"/>
        </g>
        <g id="Grupo_62197" data-name="Grupo 62197" transform="translate(1091.341 662.56)">
          <path id="Trazado_131076" data-name="Trazado 131076" d="M1109.873,587.32l-.049,6.9,10.021-3.452Z" transform="translate(-1011.623 -587.32)" fill="#4e5ff9"/>
          <line id="Línea_345" data-name="Línea 345" x2="98.222" transform="translate(0 3.452)" fill="none" stroke="#4e5ff9" stroke-miterlimit="10" stroke-width="1"/>
        </g>
        <g id="Grupo_62198" data-name="Grupo 62198" transform="translate(1129.033 683.981)">
          <path id="Trazado_131077" data-name="Trazado 131077" d="M1163.674,602.119l-.05,6.9,10.021-3.452Z" transform="translate(-1025.238 -602.119)" fill="#4e5ff9"/>
          <line id="Línea_346" data-name="Línea 346" x2="138.407" transform="translate(0 3.452)" fill="none" stroke="#4e5ff9" stroke-miterlimit="10" stroke-width="1"/>
        </g>
        <line id="Línea_347" data-name="Línea 347" x2="14.58" transform="translate(939.822 550.02)" fill="none" stroke="#4e5ff9" stroke-miterlimit="10" stroke-width="1"/>
      </g>
    </g>
  </g>
</svg>
