<svg xmlns="http://www.w3.org/2000/svg" width="505" height="266.5" viewBox="0 0 505 266.5">
  <g id="Grupo_62899" data-name="Grupo 62899" transform="translate(-810 -6604)">
    <g id="Grupo_62082" data-name="Grupo 62082" transform="translate(810 6604)">
      <g id="Grupo_60039" data-name="Grupo 60039" transform="translate(0)">
        <g id="Grupo_59588" data-name="Grupo 59588">
          <rect id="Rectángulo_29951" data-name="Rectángulo 29951" width="505" height="28.137" transform="translate(0 238.363)" fill="#e8e8e8"/>
          <path id="Trazado_134003" data-name="Trazado 134003" d="M8.176,14H6.951L2.3,6.878V14H1.073V4.758H2.3l4.666,7.154V4.758H8.176Zm1.669-3.5a4.057,4.057,0,0,1,.4-1.815,2.96,2.96,0,0,1,1.1-1.244A3.007,3.007,0,0,1,12.962,7a2.9,2.9,0,0,1,2.269.971A3.736,3.736,0,0,1,16.1,10.56v.083a4.092,4.092,0,0,1-.384,1.8,2.916,2.916,0,0,1-1.1,1.241,3.041,3.041,0,0,1-1.641.444,2.889,2.889,0,0,1-2.263-.971,3.718,3.718,0,0,1-.866-2.571Zm1.181.14a2.938,2.938,0,0,0,.53,1.834,1.8,1.8,0,0,0,2.841-.01,3.213,3.213,0,0,0,.527-1.965,2.933,2.933,0,0,0-.536-1.831,1.705,1.705,0,0,0-1.425-.7,1.686,1.686,0,0,0-1.4.692A3.189,3.189,0,0,0,11.026,10.642Zm8.138-5.173V7.132h1.282V8.04H19.164V12.3a.953.953,0,0,0,.171.62.721.721,0,0,0,.584.207,2.843,2.843,0,0,0,.559-.076V14a3.424,3.424,0,0,1-.9.126,1.462,1.462,0,0,1-1.187-.476,2.045,2.045,0,0,1-.4-1.352V8.04h-1.25V7.132h1.25V5.469ZM26.057,14a2.467,2.467,0,0,1-.165-.724,2.62,2.62,0,0,1-1.955.851,2.424,2.424,0,0,1-1.666-.574A1.859,1.859,0,0,1,21.62,12.1a1.942,1.942,0,0,1,.816-1.666,3.846,3.846,0,0,1,2.295-.594h1.143V9.3a1.319,1.319,0,0,0-.368-.981,1.48,1.48,0,0,0-1.085-.365,1.712,1.712,0,0,0-1.054.317.935.935,0,0,0-.425.768H21.76a1.621,1.621,0,0,1,.365-.993,2.491,2.491,0,0,1,.99-.759A3.331,3.331,0,0,1,24.489,7a2.715,2.715,0,0,1,1.86.594,2.141,2.141,0,0,1,.7,1.635v3.161a3.865,3.865,0,0,0,.241,1.5V14Zm-1.949-.9a2.064,2.064,0,0,0,1.047-.286,1.728,1.728,0,0,0,.717-.743V10.667h-.92q-2.158,0-2.158,1.263a1.069,1.069,0,0,0,.368.863A1.415,1.415,0,0,0,24.108,13.1Zm4.805.279a.735.735,0,0,1,.181-.508.689.689,0,0,1,.543-.2.71.71,0,0,1,.549.2.721.721,0,0,1,.187.508.681.681,0,0,1-.187.489.723.723,0,0,1-.549.2.653.653,0,0,1-.724-.686ZM37.02,14H35.8V4.758H37.02Zm3.148-6.868.032.762A2.536,2.536,0,0,1,42.237,7a1.964,1.964,0,0,1,1.961,1.1,2.6,2.6,0,0,1,.892-.8,2.634,2.634,0,0,1,1.3-.3q2.26,0,2.3,2.393V14H47.512V9.468a1.577,1.577,0,0,0-.336-1.1A1.482,1.482,0,0,0,46.046,8a1.557,1.557,0,0,0-1.085.39,1.584,1.584,0,0,0-.5,1.051V14H43.278V9.5A1.31,1.31,0,0,0,41.812,8a1.571,1.571,0,0,0-1.581.984V14H39.057V7.132ZM54.7,14a2.467,2.467,0,0,1-.165-.724,2.62,2.62,0,0,1-1.955.851,2.424,2.424,0,0,1-1.666-.574,1.859,1.859,0,0,1-.651-1.457,1.942,1.942,0,0,1,.816-1.666,3.846,3.846,0,0,1,2.295-.594h1.143V9.3a1.319,1.319,0,0,0-.368-.981,1.48,1.48,0,0,0-1.085-.365,1.712,1.712,0,0,0-1.054.317.935.935,0,0,0-.425.768H50.4a1.621,1.621,0,0,1,.365-.993,2.491,2.491,0,0,1,.99-.759A3.331,3.331,0,0,1,53.13,7a2.715,2.715,0,0,1,1.86.594,2.141,2.141,0,0,1,.7,1.635v3.161a3.865,3.865,0,0,0,.241,1.5V14Zm-1.949-.9a2.064,2.064,0,0,0,1.047-.286,1.728,1.728,0,0,0,.717-.743V10.667h-.92q-2.158,0-2.158,1.263a1.069,1.069,0,0,0,.368.863A1.415,1.415,0,0,0,52.749,13.1Zm4.5-2.6a4.037,4.037,0,0,1,.743-2.555,2.56,2.56,0,0,1,3.929-.06l.057-.762h1.073v6.7a2.794,2.794,0,0,1-.79,2.1,2.916,2.916,0,0,1-2.123.768,3.532,3.532,0,0,1-1.454-.317,2.5,2.5,0,0,1-1.085-.87l.609-.7a2.3,2.3,0,0,0,1.847.933,1.8,1.8,0,0,0,1.336-.482,1.844,1.844,0,0,0,.479-1.358v-.59a2.414,2.414,0,0,1-1.923.813A2.346,2.346,0,0,1,58,13.156,4.244,4.244,0,0,1,57.25,10.509Zm1.181.133a3.08,3.08,0,0,0,.476,1.825,1.547,1.547,0,0,0,1.333.663,1.72,1.72,0,0,0,1.631-1.009V8.985A1.74,1.74,0,0,0,60.252,8a1.561,1.561,0,0,0-1.339.667A3.354,3.354,0,0,0,58.43,10.642Zm9.242,3.485A3,3,0,0,1,65.4,13.21a3.4,3.4,0,0,1-.876-2.453v-.216a4.121,4.121,0,0,1,.39-1.825,3.045,3.045,0,0,1,1.092-1.257A2.745,2.745,0,0,1,67.526,7a2.572,2.572,0,0,1,2.082.882,3.82,3.82,0,0,1,.743,2.526V10.9H65.7a2.441,2.441,0,0,0,.594,1.641,1.866,1.866,0,0,0,1.444.625,2.045,2.045,0,0,0,1.054-.254,2.648,2.648,0,0,0,.755-.673l.717.559A2.884,2.884,0,0,1,67.672,14.127ZM67.526,7.97a1.566,1.566,0,0,0-1.193.517,2.515,2.515,0,0,0-.6,1.45h3.44V9.849a2.237,2.237,0,0,0-.482-1.387A1.475,1.475,0,0,0,67.526,7.97Zm5.294-.838L72.858,8A2.5,2.5,0,0,1,74.915,7q2.177,0,2.2,2.457V14H75.937V9.455a1.581,1.581,0,0,0-.34-1.1A1.361,1.361,0,0,0,74.56,8a1.7,1.7,0,0,0-1,.3,2.069,2.069,0,0,0-.673.8V14H71.709V7.132Zm12.13,7a3,3,0,0,1-2.272-.917,3.4,3.4,0,0,1-.876-2.453v-.216a4.121,4.121,0,0,1,.39-1.825,3.045,3.045,0,0,1,1.092-1.257A2.745,2.745,0,0,1,84.8,7a2.572,2.572,0,0,1,2.082.882,3.82,3.82,0,0,1,.743,2.526V10.9H82.977a2.441,2.441,0,0,0,.594,1.641,1.866,1.866,0,0,0,1.444.625,2.045,2.045,0,0,0,1.054-.254,2.648,2.648,0,0,0,.755-.673l.717.559A2.884,2.884,0,0,1,84.951,14.127ZM84.8,7.97a1.566,1.566,0,0,0-1.193.517,2.515,2.515,0,0,0-.6,1.45h3.44V9.849a2.237,2.237,0,0,0-.482-1.387A1.475,1.475,0,0,0,84.8,7.97Zm6.487,1.669,1.523-2.507h1.371l-2.247,3.4L94.256,14H92.9l-1.587-2.571L89.724,14H88.359l2.317-3.472-2.247-3.4h1.358Zm5.732-4.17V7.132h1.282V8.04H97.024V12.3a.953.953,0,0,0,.171.62.721.721,0,0,0,.584.207,2.843,2.843,0,0,0,.559-.076V14a3.424,3.424,0,0,1-.9.126,1.462,1.462,0,0,1-1.187-.476,2.045,2.045,0,0,1-.4-1.352V8.04H94.6V7.132h1.25V5.469ZM103,8.186a3.519,3.519,0,0,0-.578-.044,1.547,1.547,0,0,0-1.568.984V14H99.677V7.132h1.143l.019.793A1.829,1.829,0,0,1,102.477,7a1.2,1.2,0,0,1,.521.089ZM108.063,14a2.467,2.467,0,0,1-.165-.724,2.62,2.62,0,0,1-1.955.851,2.424,2.424,0,0,1-1.666-.574,1.859,1.859,0,0,1-.651-1.457,1.942,1.942,0,0,1,.816-1.666,3.846,3.846,0,0,1,2.295-.594h1.143V9.3a1.319,1.319,0,0,0-.368-.981,1.48,1.48,0,0,0-1.085-.365,1.712,1.712,0,0,0-1.054.317.935.935,0,0,0-.425.768h-1.181a1.621,1.621,0,0,1,.365-.993,2.491,2.491,0,0,1,.99-.759A3.331,3.331,0,0,1,106.495,7a2.715,2.715,0,0,1,1.86.594,2.141,2.141,0,0,1,.7,1.635v3.161a3.865,3.865,0,0,0,.241,1.5V14Zm-1.949-.9a2.064,2.064,0,0,0,1.047-.286,1.728,1.728,0,0,0,.717-.743V10.667h-.92q-2.158,0-2.158,1.263a1.069,1.069,0,0,0,.368.863A1.415,1.415,0,0,0,106.114,13.1Zm6.056.9h-1.181V7.132h1.181Zm.013-9.744H113.6l-1.7,1.866-.946,0Zm1.638,6.252a4.023,4.023,0,0,1,.749-2.542,2.548,2.548,0,0,1,3.872-.136V4.25h1.174V14h-1.079l-.057-.736a2.391,2.391,0,0,1-1.961.863,2.346,2.346,0,0,1-1.946-.978,4.069,4.069,0,0,1-.752-2.552Zm1.174.133a3.046,3.046,0,0,0,.482,1.828,1.56,1.56,0,0,0,1.333.66,1.713,1.713,0,0,0,1.631-1V8.973A1.726,1.726,0,0,0,116.822,8a1.567,1.567,0,0,0-1.346.667A3.354,3.354,0,0,0,114.994,10.642ZM125.677,14a2.467,2.467,0,0,1-.165-.724,2.62,2.62,0,0,1-1.955.851,2.424,2.424,0,0,1-1.666-.574,1.859,1.859,0,0,1-.651-1.457,1.942,1.942,0,0,1,.816-1.666,3.846,3.846,0,0,1,2.295-.594h1.143V9.3a1.319,1.319,0,0,0-.368-.981,1.48,1.48,0,0,0-1.085-.365,1.712,1.712,0,0,0-1.054.317.935.935,0,0,0-.425.768H121.38a1.621,1.621,0,0,1,.365-.993,2.491,2.491,0,0,1,.99-.759A3.331,3.331,0,0,1,124.109,7a2.715,2.715,0,0,1,1.86.594,2.141,2.141,0,0,1,.7,1.635v3.161a3.865,3.865,0,0,0,.241,1.5V14Zm-1.949-.9a2.064,2.064,0,0,0,1.047-.286,1.728,1.728,0,0,0,.717-.743V10.667h-.92q-2.158,0-2.158,1.263a1.069,1.069,0,0,0,.368.863A1.415,1.415,0,0,0,123.729,13.1Zm7.712-2.6a4.023,4.023,0,0,1,.749-2.542,2.548,2.548,0,0,1,3.872-.136V4.25h1.174V14h-1.079l-.057-.736a2.391,2.391,0,0,1-1.961.863,2.346,2.346,0,0,1-1.946-.978,4.069,4.069,0,0,1-.752-2.552Zm1.174.133a3.046,3.046,0,0,0,.482,1.828,1.56,1.56,0,0,0,1.333.66,1.713,1.713,0,0,0,1.631-1V8.973A1.726,1.726,0,0,0,134.443,8a1.567,1.567,0,0,0-1.346.667A3.354,3.354,0,0,0,132.615,10.642Zm9.293,3.485a3,3,0,0,1-2.272-.917,3.4,3.4,0,0,1-.876-2.453v-.216a4.121,4.121,0,0,1,.39-1.825,3.045,3.045,0,0,1,1.092-1.257A2.745,2.745,0,0,1,141.762,7a2.572,2.572,0,0,1,2.082.882,3.82,3.82,0,0,1,.743,2.526V10.9h-4.653a2.441,2.441,0,0,0,.594,1.641,1.866,1.866,0,0,0,1.444.625,2.045,2.045,0,0,0,1.054-.254,2.647,2.647,0,0,0,.755-.673l.717.559A2.884,2.884,0,0,1,141.908,14.127Zm-.146-6.157a1.566,1.566,0,0,0-1.193.517,2.515,2.515,0,0,0-.6,1.45h3.44V9.849a2.237,2.237,0,0,0-.482-1.387A1.475,1.475,0,0,0,141.762,7.97Zm12.689,3.612h-3.872L149.709,14h-1.257l3.529-9.242h1.066L156.584,14h-1.25Zm-3.5-1h3.142l-1.574-4.323Zm10.867,2.736a2.494,2.494,0,0,1-2.012.806,2.135,2.135,0,0,1-1.673-.638,2.761,2.761,0,0,1-.581-1.888V7.132h1.174v4.437q0,1.562,1.27,1.562a1.758,1.758,0,0,0,1.79-1v-5h1.174V14H161.84Zm4.52-7.852V7.132h1.282V8.04h-1.282V12.3a.953.953,0,0,0,.171.62.721.721,0,0,0,.584.207,2.843,2.843,0,0,0,.559-.076V14a3.424,3.424,0,0,1-.9.126,1.462,1.462,0,0,1-1.187-.476,2.045,2.045,0,0,1-.4-1.352V8.04h-1.25V7.132h1.25V5.469Zm2.215,5.034a4.057,4.057,0,0,1,.4-1.815,2.959,2.959,0,0,1,1.1-1.244A3.007,3.007,0,0,1,171.666,7a2.9,2.9,0,0,1,2.269.971,3.736,3.736,0,0,1,.866,2.583v.083a4.092,4.092,0,0,1-.384,1.8,2.916,2.916,0,0,1-1.1,1.241,3.041,3.041,0,0,1-1.641.444,2.889,2.889,0,0,1-2.263-.971,3.718,3.718,0,0,1-.866-2.571Zm1.181.14a2.938,2.938,0,0,0,.53,1.834,1.8,1.8,0,0,0,2.841-.01,3.213,3.213,0,0,0,.527-1.965,2.933,2.933,0,0,0-.536-1.831,1.705,1.705,0,0,0-1.425-.7,1.686,1.686,0,0,0-1.4.692A3.189,3.189,0,0,0,169.73,10.642Zm6.259-.133a4.023,4.023,0,0,1,.749-2.542,2.548,2.548,0,0,1,3.872-.136V4.25h1.174V14h-1.079l-.057-.736a2.391,2.391,0,0,1-1.961.863,2.346,2.346,0,0,1-1.946-.978,4.069,4.069,0,0,1-.752-2.552Zm1.174.133a3.046,3.046,0,0,0,.482,1.828,1.56,1.56,0,0,0,1.333.66,1.713,1.713,0,0,0,1.631-1V8.973A1.726,1.726,0,0,0,178.991,8a1.567,1.567,0,0,0-1.346.667A3.354,3.354,0,0,0,177.163,10.642Zm9.293,3.485a3,3,0,0,1-2.272-.917,3.4,3.4,0,0,1-.876-2.453v-.216a4.121,4.121,0,0,1,.39-1.825,3.045,3.045,0,0,1,1.092-1.257A2.745,2.745,0,0,1,186.31,7a2.572,2.572,0,0,1,2.082.882,3.82,3.82,0,0,1,.743,2.526V10.9h-4.653a2.441,2.441,0,0,0,.594,1.641,1.866,1.866,0,0,0,1.444.625,2.045,2.045,0,0,0,1.054-.254,2.647,2.647,0,0,0,.755-.673l.717.559A2.884,2.884,0,0,1,186.456,14.127ZM186.31,7.97a1.566,1.566,0,0,0-1.193.517,2.515,2.515,0,0,0-.6,1.45h3.44V9.849a2.237,2.237,0,0,0-.482-1.387A1.475,1.475,0,0,0,186.31,7.97Zm8.182,4.208a.865.865,0,0,0-.359-.74,3.452,3.452,0,0,0-1.25-.454,5.912,5.912,0,0,1-1.416-.457,2.014,2.014,0,0,1-.774-.635,1.518,1.518,0,0,1-.251-.876,1.782,1.782,0,0,1,.714-1.428A2.789,2.789,0,0,1,192.981,7a2.87,2.87,0,0,1,1.895.6A1.915,1.915,0,0,1,195.6,9.15h-1.181a1.06,1.06,0,0,0-.409-.832,1.534,1.534,0,0,0-1.031-.349,1.605,1.605,0,0,0-1,.279.879.879,0,0,0-.362.73.712.712,0,0,0,.336.641,4.139,4.139,0,0,0,1.216.413,6.334,6.334,0,0,1,1.425.47,2.079,2.079,0,0,1,.809.657,1.615,1.615,0,0,1,.263.936,1.758,1.758,0,0,1-.736,1.476,3.089,3.089,0,0,1-1.911.555,3.459,3.459,0,0,1-1.46-.292,2.375,2.375,0,0,1-.993-.816,1.966,1.966,0,0,1-.359-1.133h1.174a1.216,1.216,0,0,0,.473.936,1.835,1.835,0,0,0,1.165.346,1.894,1.894,0,0,0,1.07-.27A.829.829,0,0,0,194.492,12.178Zm4.621-1.358-.736.768V14H197.2V4.25h1.174v5.9l.628-.755,2.139-2.26h1.428L199.9,10l2.983,4h-1.377Zm7.846-.571a9.814,9.814,0,0,1,.384-2.755,8,8,0,0,1,1.146-2.4,4.874,4.874,0,0,1,1.581-1.523l.241.774a5.056,5.056,0,0,0-1.52,2.171,9.411,9.411,0,0,0-.651,3.269l-.006.54a9.46,9.46,0,0,0,.9,4.253,5.079,5.079,0,0,0,1.282,1.688l-.241.717a5.031,5.031,0,0,1-1.612-1.574A8.823,8.823,0,0,1,206.959,10.249ZM217.382,14h-6.056v-.844l3.2-3.555a7.6,7.6,0,0,0,.981-1.311,2.188,2.188,0,0,0,.27-1.044,1.658,1.658,0,0,0-.438-1.187A1.531,1.531,0,0,0,214.17,5.6a1.814,1.814,0,0,0-1.362.5,1.9,1.9,0,0,0-.486,1.387h-1.174a2.726,2.726,0,0,1,.822-2.063,3.047,3.047,0,0,1,2.2-.787,2.928,2.928,0,0,1,2.038.676,2.306,2.306,0,0,1,.749,1.8,5.287,5.287,0,0,1-1.739,3.25l-2.476,2.685h4.64Zm7.04-3.942a5.371,5.371,0,0,1-.7,3.066,2.928,2.928,0,0,1-4.393.022,5.1,5.1,0,0,1-.736-2.929V8.649a5.251,5.251,0,0,1,.7-3.028,2.98,2.98,0,0,1,4.405-.035,5.068,5.068,0,0,1,.724,2.948Zm-1.174-1.606a4.3,4.3,0,0,0-.419-2.174A1.442,1.442,0,0,0,221.5,5.6a1.423,1.423,0,0,0-1.314.679,4.2,4.2,0,0,0-.425,2.088v1.879a4.372,4.372,0,0,0,.435,2.212,1.439,1.439,0,0,0,1.317.714,1.42,1.42,0,0,0,1.292-.673,4.214,4.214,0,0,0,.441-2.12ZM231.981,14h-6.056v-.844l3.2-3.555a7.6,7.6,0,0,0,.981-1.311,2.188,2.188,0,0,0,.27-1.044,1.658,1.658,0,0,0-.438-1.187A1.531,1.531,0,0,0,228.77,5.6a1.814,1.814,0,0,0-1.362.5,1.9,1.9,0,0,0-.486,1.387h-1.174a2.726,2.726,0,0,1,.822-2.063,3.047,3.047,0,0,1,2.2-.787,2.928,2.928,0,0,1,2.038.676,2.306,2.306,0,0,1,.749,1.8,5.287,5.287,0,0,1-1.739,3.25l-2.476,2.685h4.64Zm7.04-3.942a5.371,5.371,0,0,1-.7,3.066,2.928,2.928,0,0,1-4.393.022,5.1,5.1,0,0,1-.736-2.929V8.649a5.251,5.251,0,0,1,.7-3.028,2.98,2.98,0,0,1,4.405-.035,5.068,5.068,0,0,1,.724,2.948Zm-1.174-1.606a4.3,4.3,0,0,0-.419-2.174A1.442,1.442,0,0,0,236.1,5.6a1.423,1.423,0,0,0-1.314.679,4.2,4.2,0,0,0-.425,2.088v1.879a4.372,4.372,0,0,0,.435,2.212,1.439,1.439,0,0,0,1.317.714,1.42,1.42,0,0,0,1.292-.673,4.214,4.214,0,0,0,.441-2.12Zm5.51,1.86a9.819,9.819,0,0,1-.371,2.714,8.024,8.024,0,0,1-1.136,2.4,4.978,4.978,0,0,1-1.6,1.562L240,16.266a5.1,5.1,0,0,0,1.571-2.326,10.065,10.065,0,0,0,.606-3.5v-.2a10.449,10.449,0,0,0-.279-2.479,8.366,8.366,0,0,0-.778-2.053A4.743,4.743,0,0,0,240,4.288l.248-.717a4.959,4.959,0,0,1,1.6,1.549,8.041,8.041,0,0,1,1.136,2.393A10.045,10.045,0,0,1,243.356,10.312Z" transform="translate(12 245)" fill="#12263f"/>
          <g id="Grupo_62168" data-name="Grupo 62168">
            <path id="Trazado_131052" data-name="Trazado 131052" d="M0,0H505V238.777H0Z" fill="none"/>
            <g id="Grupo_62166" data-name="Grupo 62166" transform="translate(23)">
              <text id="_60" data-name="60" transform="translate(0 25.094)" fill="#4e5ff9" font-size="14" font-family="Roboto-Regular, Roboto"><tspan x="0" y="0">60</tspan></text>
              <text id="_30" data-name="30" transform="translate(0 86.942)" fill="#4e5ff9" font-size="14" font-family="Roboto-Regular, Roboto"><tspan x="0" y="0">30</tspan></text>
              <text id="_0" data-name="0" transform="translate(7.122 151.007)" fill="#4e5ff9" font-size="14" font-family="Roboto-Regular, Roboto"><tspan x="0" y="0">0</tspan></text>
              <text id="_0-2" data-name="0" transform="translate(60.349 205.933)" fill="#4e5ff9" font-size="14" font-family="Roboto-Regular, Roboto"><tspan x="0" y="0">0</tspan></text>
              <text id="_40" data-name=" 40" transform="translate(137.94 205.933)" fill="#4e5ff9" font-size="14" font-family="Roboto-Regular, Roboto"><tspan x="0" y="0" xml:space="preserve"> 40</tspan></text>
              <text id="_70" data-name=" 70" transform="translate(204.286 208.805)" fill="#4e5ff9" font-size="14" font-family="Roboto-Regular, Roboto"><tspan x="0" y="0" xml:space="preserve"> 70</tspan></text>
              <text id="_100" data-name=" 100" transform="translate(269.132 208.805)" fill="#4e5ff9" font-size="14" font-family="Roboto-Regular, Roboto"><tspan x="0" y="0" xml:space="preserve"> 100</tspan></text>
              <text id="_130" data-name=" 130" transform="translate(330.546 210.304)" fill="#4e5ff9" font-size="14" font-family="Roboto-Regular, Roboto"><tspan x="0" y="0" xml:space="preserve"> 130</tspan></text>
              <text id="_170" data-name="170" transform="translate(414.884 210.305)" fill="#4e5ff9" font-size="14" font-family="Roboto-Regular, Roboto"><tspan x="0" y="0">170</tspan></text>
              <g id="Rectángulo_31265" data-name="Rectángulo 31265" transform="translate(48.354)" fill="#f2f2f3" stroke="#000" stroke-miterlimit="10" stroke-width="1">
                <rect width="401.824" height="162.778" stroke="none"/>
                <rect x="0.5" y="0.5" width="400.824" height="161.778" fill="none"/>
              </g>
              <g id="Grupo_62166-2" data-name="Grupo 62166" transform="translate(85.95 26.572)">
                <g id="Trazado_131050" data-name="Trazado 131050" transform="translate(-467.51 -326.628)" fill="#fff" stroke-miterlimit="10">
                  <path d="M 500.3331298828125 439.558349609375 C 490.7921142578125 434.1443481445312 482.7605285644531 426.2162475585938 477.0823974609375 416.6012573242188 C 474.169189453125 411.668212890625 471.9168701171875 406.3569946289062 470.3879699707031 400.815185546875 C 468.81005859375 395.0956726074219 468.0099792480469 389.1507263183594 468.0099792480469 383.1455078125 C 468.0099792480469 377.2433166503906 468.7834777832031 371.3968811035156 470.3089904785156 365.7685852050781 C 471.7873840332031 360.3140869140625 473.9673156738281 355.0765075683594 476.7882385253906 350.2013854980469 C 482.281982421875 340.7070922851562 490.08251953125 332.7985229492188 499.3681945800781 327.302978515625 L 512.3978271484375 347.7271728515625 C 499.5424194335938 354.6392822265625 491.5792541503906 368.1589050292969 491.5792541503906 383.1455078125 C 491.5792541503906 397.6341857910156 499.1577758789062 410.9482727050781 511.3907470703125 418.0133361816406 L 500.3331298828125 439.558349609375 Z" stroke="none"/>
                  <path d="M 499.207763671875 327.9811401367188 C 490.1782836914062 333.4218444824219 482.5898132324219 341.1734313964844 477.2210388183594 350.4517822265625 C 474.4218444824219 355.2893981933594 472.2586669921875 360.4867248535156 470.7915954589844 365.8993835449219 C 469.2776489257812 371.4850463867188 468.510009765625 377.2875061035156 468.510009765625 383.1455078125 C 468.510009765625 389.1058044433594 469.3040161132812 395.0060119628906 470.8699951171875 400.6821899414062 C 472.3871765136719 406.1815185546875 474.6221923828125 411.4519348144531 477.5129699707031 416.3469848632812 C 483.0565795898438 425.7342224121094 490.8609924316406 433.5007629394531 500.1274108886719 438.8641357421875 L 510.72998046875 418.2057495117188 C 498.5841369628906 410.9927062988281 491.0792541503906 397.6497802734375 491.0792541503906 383.1455078125 C 491.0792541503906 368.15771484375 498.9472351074219 354.6189270019531 511.6884765625 347.5449523925781 L 499.207763671875 327.9811401367188 M 499.5306701660156 326.6279907226562 L 513.111083984375 347.9155883789062 C 500.6406555175781 354.3985595703125 492.0792541503906 367.7344360351562 492.0792541503906 383.1455078125 C 492.0792541503906 398.1190795898438 500.1579895019531 411.1412963867188 512.05419921875 417.815673828125 L 500.5408630371094 440.2485961914062 C 480.8780822753906 429.3080444335938 467.510009765625 407.8419189453125 467.510009765625 383.1455078125 C 467.510009765625 358.87548828125 480.4244079589844 337.7359008789062 499.5306701660156 326.6279907226562 Z" stroke="none" fill="#000"/>
                </g>
              </g>
              <g id="Grupo_62167" data-name="Grupo 62167" transform="translate(367.606 26.572)">
                <g id="Trazado_131051" data-name="Trazado 131051" transform="translate(-642.596 -326.628)" fill="#fff" stroke-miterlimit="10">
                  <path d="M 655.372314453125 439.558349609375 L 644.314697265625 418.0133361816406 C 656.5477294921875 410.9482116699219 664.126220703125 397.6340942382812 664.126220703125 383.1455078125 C 664.126220703125 368.1592712402344 656.1636352539062 354.6396179199219 643.3092041015625 347.7271728515625 L 656.3372802734375 327.302978515625 C 665.6229248046875 332.7985229492188 673.4234619140625 340.7070922851562 678.9171752929688 350.2013854980469 C 681.7380981445312 355.0765075683594 683.9180297851562 360.3140869140625 685.3964233398438 365.7685852050781 C 686.9219360351562 371.3968811035156 687.6954345703125 377.2433166503906 687.6954345703125 383.1455078125 C 687.6954345703125 389.1508178710938 686.8954467773438 395.0957641601562 685.3176879882812 400.815185546875 C 683.7888793945312 406.3571166992188 681.5366821289062 411.6683044433594 678.6235961914062 416.6012573242188 C 672.9456176757812 426.2164306640625 664.9137573242188 434.14453125 655.372314453125 439.558349609375 Z" stroke="none"/>
                  <path d="M 656.4977416992188 327.9811706542969 L 644.0184326171875 347.5449829101562 C 656.7587890625 354.6192626953125 664.626220703125 368.1580810546875 664.626220703125 383.1455078125 C 664.626220703125 397.6497192382812 657.121337890625 410.9926452636719 644.9754638671875 418.2057495117188 L 655.5780639648438 438.8641662597656 C 664.8449096679688 433.5009765625 672.6495971679688 425.734375 678.193115234375 416.3470153808594 C 681.0836791992188 411.4520263671875 683.318603515625 406.181640625 684.835693359375 400.6822204589844 C 686.4014892578125 395.006103515625 687.1954345703125 389.1058959960938 687.1954345703125 383.1455078125 C 687.1954345703125 377.2875061035156 686.4277954101562 371.4850463867188 684.9138793945312 365.8993835449219 C 683.44677734375 360.4867248535156 681.2836303710938 355.2893981933594 678.4844360351562 350.4517822265625 C 673.1156616210938 341.1734313964844 665.5272216796875 333.421875 656.4977416992188 327.9811706542969 M 656.1748046875 326.6279907226562 C 675.281005859375 337.7359008789062 688.1954345703125 358.87548828125 688.1954345703125 383.1455078125 C 688.1954345703125 407.8419189453125 674.8289794921875 429.3080444335938 655.16455078125 440.2485961914062 L 643.6512451171875 417.815673828125 C 655.54736328125 411.1412963867188 663.626220703125 398.1190795898438 663.626220703125 383.1455078125 C 663.626220703125 367.7344360351562 655.0648193359375 354.3985595703125 642.595947265625 347.9155883789062 L 656.1748046875 326.6279907226562 Z" stroke="none" fill="#000"/>
                </g>
              </g>
              <g id="Elipse_4618" data-name="Elipse 4618" transform="translate(135.308 65.003)" fill="#fff" stroke="#000" stroke-miterlimit="10" stroke-width="1">
                <circle cx="16.488" cy="16.488" r="16.488" stroke="none"/>
                <circle cx="16.488" cy="16.488" r="15.988" fill="none"/>
              </g>
              <g id="Elipse_4619" data-name="Elipse 4619" transform="translate(200.654 65.003)" fill="#fff" stroke="#000" stroke-miterlimit="10" stroke-width="1">
                <circle cx="16.488" cy="16.488" r="16.488" stroke="none"/>
                <circle cx="16.488" cy="16.488" r="15.988" fill="none"/>
              </g>
              <g id="Elipse_4620" data-name="Elipse 4620" transform="translate(264.943 65.003)" fill="#fff" stroke="#000" stroke-miterlimit="10" stroke-width="1">
                <circle cx="16.488" cy="16.488" r="16.488" stroke="none"/>
                <circle cx="16.488" cy="16.488" r="15.988" fill="none"/>
              </g>
              <g id="Elipse_4621" data-name="Elipse 4621" transform="translate(330.546 65.003)" fill="#fff" stroke="#000" stroke-miterlimit="10" stroke-width="1">
                <circle cx="16.488" cy="16.488" r="16.488" stroke="none"/>
                <circle cx="16.488" cy="16.488" r="15.988" fill="none"/>
              </g>
              <g id="Elipse_4622" data-name="Elipse 4622" transform="translate(57.396 9.398)" fill="none" stroke="#000" stroke-miterlimit="10" stroke-width="1">
                <circle cx="8.587" cy="8.587" r="8.587" stroke="none"/>
                <circle cx="8.587" cy="8.587" r="8.087" fill="none"/>
              </g>
              <g id="Elipse_4623" data-name="Elipse 4623" transform="translate(57.396 136.81)" fill="none" stroke="#000" stroke-miterlimit="10" stroke-width="1">
                <circle cx="8.587" cy="8.587" r="8.587" stroke="none"/>
                <circle cx="8.587" cy="8.587" r="8.087" fill="none"/>
              </g>
              <g id="Elipse_4624" data-name="Elipse 4624" transform="translate(424.016 137.972)" fill="none" stroke="#000" stroke-miterlimit="10" stroke-width="1">
                <circle cx="8.587" cy="8.587" r="8.587" stroke="none"/>
                <circle cx="8.587" cy="8.587" r="8.087" fill="none"/>
              </g>
              <g id="Elipse_4625" data-name="Elipse 4625" transform="translate(424.016 9.398)" fill="none" stroke="#000" stroke-miterlimit="10" stroke-width="1">
                <circle cx="8.587" cy="8.587" r="8.587" stroke="none"/>
                <circle cx="8.587" cy="8.587" r="8.087" fill="none"/>
              </g>
              <line id="Línea_245" data-name="Línea 245" x2="50.955" transform="translate(23.615 18.273)" fill="none" stroke="#4e5ff9" stroke-miterlimit="10" stroke-width="1"/>
              <line id="Línea_246" data-name="Línea 246" y2="14.619" transform="translate(65.983 10.683)" fill="none" stroke="#4e5ff9" stroke-miterlimit="10" stroke-width="1"/>
              <line id="Línea_247" data-name="Línea 247" x2="49.197" transform="translate(23.615 147.31)" fill="none" stroke="#4e5ff9" stroke-miterlimit="10" stroke-width="1"/>
              <line id="Línea_248" data-name="Línea 248" y2="50.973" transform="translate(65.983 140.193)" fill="none" stroke="#4e5ff9" stroke-miterlimit="10" stroke-width="1"/>
              <line id="Línea_249" data-name="Línea 249" x2="136.065" transform="translate(22.491 83.383)" fill="none" stroke="#4e5ff9" stroke-miterlimit="10" stroke-width="1"/>
              <line id="Línea_250" data-name="Línea 250" y2="115.262" transform="translate(151.795 75.904)" fill="none" stroke="#4e5ff9" stroke-miterlimit="10" stroke-width="1"/>
              <line id="Línea_251" data-name="Línea 251" x2="12.088" transform="translate(163.898 83.383)" fill="none" stroke="#4e5ff9" stroke-miterlimit="10" stroke-width="1"/>
              <line id="Línea_252" data-name="Línea 252" y1="12.088" transform="translate(151.795 58.755)" fill="none" stroke="#4e5ff9" stroke-miterlimit="10" stroke-width="1"/>
              <line id="Línea_253" data-name="Línea 253" y2="13.494" transform="translate(217.515 58.755)" fill="none" stroke="#4e5ff9" stroke-miterlimit="10" stroke-width="1"/>
              <line id="Línea_254" data-name="Línea 254" y2="115.262" transform="translate(217.142 75.904)" fill="none" stroke="#4e5ff9" stroke-miterlimit="10" stroke-width="1"/>
              <line id="Línea_255" data-name="Línea 255" x2="11.807" transform="translate(194.54 83.383)" fill="none" stroke="#4e5ff9" stroke-miterlimit="10" stroke-width="1"/>
              <line id="Línea_256" data-name="Línea 256" x2="12.979" transform="translate(211.97 83.383)" fill="none" stroke="#4e5ff9" stroke-miterlimit="10" stroke-width="1"/>
              <line id="Línea_257" data-name="Línea 257" x2="10.402" transform="translate(229.962 83.383)" fill="none" stroke="#4e5ff9" stroke-miterlimit="10" stroke-width="1"/>
              <line id="Línea_258" data-name="Línea 258" y2="12.37" transform="translate(282.933 59.88)" fill="none" stroke="#4e5ff9" stroke-miterlimit="10" stroke-width="1"/>
              <line id="Línea_259" data-name="Línea 259" x2="12.088" transform="translate(259.481 83.383)" fill="none" stroke="#4e5ff9" stroke-miterlimit="10" stroke-width="1"/>
              <line id="Línea_260" data-name="Línea 260" x2="10.964" transform="translate(278.035 83.383)" fill="none" stroke="#4e5ff9" stroke-miterlimit="10" stroke-width="1"/>
              <line id="Línea_261" data-name="Línea 261" x2="9.558" transform="translate(294.34 83.383)" fill="none" stroke="#4e5ff9" stroke-miterlimit="10" stroke-width="1"/>
              <line id="Línea_262" data-name="Línea 262" y2="12.37" transform="translate(348.317 59.88)" fill="none" stroke="#4e5ff9" stroke-miterlimit="10" stroke-width="1"/>
              <line id="Línea_263" data-name="Línea 263" x2="13.213" transform="translate(323.296 83.383)" fill="none" stroke="#4e5ff9" stroke-miterlimit="10" stroke-width="1"/>
              <line id="Línea_264" data-name="Línea 264" x2="15.181" transform="translate(340.445 83.383)" fill="none" stroke="#4e5ff9" stroke-miterlimit="10" stroke-width="1"/>
              <line id="Línea_265" data-name="Línea 265" x1="10.964" transform="translate(359 83.099)" fill="none" stroke="#4e5ff9" stroke-miterlimit="10" stroke-width="1"/>
              <line id="Línea_266" data-name="Línea 266" y2="114.137" transform="translate(348.036 77.029)" fill="none" stroke="#4e5ff9" stroke-miterlimit="10" stroke-width="1"/>
              <line id="Línea_267" data-name="Línea 267" y2="114.137" transform="translate(282.933 77.029)" fill="none" stroke="#4e5ff9" stroke-miterlimit="10" stroke-width="1"/>
              <line id="Línea_268" data-name="Línea 268" x2="12.088" transform="translate(427.313 146.56)" fill="none" stroke="#4e5ff9" stroke-miterlimit="10" stroke-width="1"/>
              <line id="Línea_269" data-name="Línea 269" y2="48.916" transform="translate(432.603 142.25)" fill="none" stroke="#4e5ff9" stroke-miterlimit="10" stroke-width="1"/>
              <line id="Línea_270" data-name="Línea 270" x2="12.088" transform="translate(427.313 19.398)" fill="none" stroke="#4e5ff9" stroke-miterlimit="10" stroke-width="1"/>
              <line id="Línea_271" data-name="Línea 271" y2="12.932" transform="translate(432.603 12.37)" fill="none" stroke="#4e5ff9" stroke-miterlimit="10" stroke-width="1"/>
              <g id="Grupo_62889" data-name="Grupo 62889" transform="matrix(0.883, 0.469, -0.469, 0.883, 50.081, 153.985)">
                <path id="Trazado_131002" data-name="Trazado 131002" d="M60.179,554.941H44.748l6.471-14.756Z" transform="translate(-44.748 -540.186)" fill="#e36c08"/>
                <rect id="Rectángulo_31262" data-name="Rectángulo 31262" width="2.674" height="19.35" transform="translate(6.379 13.883)" fill="#e36c08"/>
              </g>
            </g>
          </g>
        </g>
      </g>
    </g>
  </g>
</svg>
