<svg xmlns="http://www.w3.org/2000/svg" width="361.567" height="278.718" viewBox="0 0 361.567 278.718">
  <g id="Grupo_62914" data-name="Grupo 62914" transform="translate(-882 -7815.858)">
    <g id="Grupo_62199" data-name="Grupo 62199" transform="translate(-49.687 7396.668)">
      <text id="_40" data-name=" 40" transform="translate(973.341 598.746)" fill="#4e5ff9" font-size="11" font-family="Roboto-Regular, Roboto"><tspan x="0" y="0" xml:space="preserve"> 40</tspan></text>
      <text id="_70" data-name=" 70" transform="translate(1003.696 623.085)" fill="#4e5ff9" font-size="11" font-family="Roboto-Regular, Roboto"><tspan x="0" y="0" xml:space="preserve"> 70</tspan></text>
      <text id="_100" data-name=" 100" transform="translate(1024.764 644.334)" fill="#4e5ff9" font-size="11" font-family="Roboto-Regular, Roboto"><tspan x="0" y="0" xml:space="preserve"> 100</tspan></text>
      <text id="_130" data-name=" 130" transform="translate(1057.607 666.437)" fill="#4e5ff9" font-size="11" font-family="Roboto-Regular, Roboto"><tspan x="0" y="0" xml:space="preserve"> 130</tspan></text>
      <text id="_170" data-name="170" transform="translate(1099.779 689.193)" fill="#4e5ff9" font-size="11" font-family="Roboto-Regular, Roboto"><tspan x="0" y="0">170</tspan></text>
      <g id="Rectángulo_31267" data-name="Rectángulo 31267" transform="translate(931.686 419.19)" fill="#f2f2f3" stroke="#000" stroke-miterlimit="10" stroke-width="1">
        <rect width="361.567" height="146.47" stroke="none"/>
        <rect x="0.5" y="0.5" width="360.567" height="145.47" fill="none"/>
      </g>
      <g id="Grupo_62187" data-name="Grupo 62187" transform="translate(965.516 443.1)">
        <g id="Trazado_131066" data-name="Trazado 131066" transform="translate(-955.057 -435.708)" fill="#fff" stroke-miterlimit="10">
          <path d="M 984.5711059570312 537.255126953125 C 976.0137939453125 532.388427734375 968.8092041015625 525.2704467773438 963.7135620117188 516.6417846679688 C 961.0944213867188 512.206787109375 959.0694580078125 507.4317626953125 957.6948852539062 502.4493713378906 C 956.2762451171875 497.3072204589844 955.5569458007812 491.9623718261719 955.5569458007812 486.5632934570312 C 955.5569458007812 481.2568359375 956.2523803710938 476.0005187988281 957.6239013671875 470.9403686523438 C 958.9530639648438 466.0364990234375 960.9129638671875 461.3276977539062 963.4490966796875 456.9447326660156 C 968.3798828125 448.4233703613281 975.3777465820312 441.32275390625 983.7073364257812 436.3831481933594 L 995.3765258789062 454.6748046875 C 983.8212890625 460.9103393554688 976.6661376953125 473.0774230957031 976.6661376953125 486.5632934570312 C 976.6661376953125 499.6027526855469 983.4771118164062 511.5857238769531 994.4752197265625 517.9573364257812 L 984.5711059570312 537.255126953125 Z" stroke="none"/>
          <path d="M 983.5472412109375 437.0618896484375 C 975.473876953125 441.9461669921875 968.6876220703125 448.8898315429688 963.8818969726562 457.1951293945312 C 961.367431640625 461.5405883789062 959.42431640625 466.2091369628906 958.1065063476562 471.0711364746094 C 956.7465209960938 476.0886840820312 956.0569458007812 481.3009948730469 956.0569458007812 486.5632934570312 C 956.0569458007812 491.9174499511719 956.7702026367188 497.2175598144531 958.1768798828125 502.31640625 C 959.5397338867188 507.2562866210938 961.54736328125 511.990478515625 964.14404296875 516.3875732421875 C 969.1053466796875 524.7886962890625 976.08251953125 531.7446899414062 984.36572265625 536.5602416992188 L 993.8148803710938 518.14892578125 C 982.9033813476562 511.6300659179688 976.1661376953125 499.6185302734375 976.1661376953125 486.5632934570312 C 976.1661376953125 473.0762634277344 983.2265014648438 460.89013671875 994.6678466796875 454.49365234375 L 983.5472412109375 437.0618896484375 M 983.8696899414062 435.7080078125 L 996.089599609375 454.8629150390625 C 984.8682861328125 460.6963500976562 977.1661376953125 472.6961059570312 977.1661376953125 486.5632934570312 C 977.1661376953125 500.0352172851562 984.4340209960938 511.7543334960938 995.1384887695312 517.760009765625 L 984.7787475585938 537.9456176757812 C 967.0858154296875 528.1010131835938 955.0569458007812 508.7854614257812 955.0569458007812 486.5632934570312 C 955.0569458007812 464.7247009277344 966.677734375 445.7030029296875 983.8696899414062 435.7080078125 Z" stroke="none" fill="#000"/>
        </g>
      </g>
      <g id="Grupo_62188" data-name="Grupo 62188" transform="translate(1218.954 443.1)">
        <g id="Trazado_131067" data-name="Trazado 131067" transform="translate(-1130.143 -435.708)" fill="#fff" stroke-miterlimit="10">
          <path d="M 1141.66015625 537.255126953125 L 1131.755859375 517.9573974609375 C 1142.754760742188 511.5860595703125 1149.566162109375 499.6030578613281 1149.566162109375 486.5632934570312 C 1149.566162109375 473.0781860351562 1142.4111328125 460.9111022949219 1130.85595703125 454.6748046875 L 1142.523803710938 436.3831481933594 C 1150.853637695312 441.3228454589844 1157.851684570312 448.4234619140625 1162.782836914062 456.9447326660156 C 1165.319213867188 461.3277587890625 1167.279174804688 466.0365600585938 1168.608520507812 470.9403686523438 C 1169.980224609375 476.0005798339844 1170.675659179688 481.2568664550781 1170.675659179688 486.5632934570312 C 1170.675659179688 491.96240234375 1169.956298828125 497.3072509765625 1168.537719726562 502.4493713378906 C 1167.1630859375 507.4317932128906 1165.138061523438 512.206787109375 1162.518920898438 516.6417846679688 C 1157.423095703125 525.2705078125 1150.218017578125 532.3884887695312 1141.66015625 537.255126953125 Z" stroke="none"/>
          <path d="M 1142.683959960938 437.0618896484375 L 1131.564575195312 454.49365234375 C 1143.005737304688 460.890869140625 1150.066162109375 473.0770263671875 1150.066162109375 486.5632934570312 C 1150.066162109375 499.6188659667969 1143.328491210938 511.6304321289062 1132.416137695312 518.1489868164062 L 1141.865478515625 536.560302734375 C 1150.149291992188 531.7447509765625 1157.126953125 524.7886962890625 1162.08837890625 516.3875122070312 C 1164.685180664062 511.9905090332031 1166.69287109375 507.2562866210938 1168.0556640625 502.31640625 C 1169.46240234375 497.2175903320312 1170.175659179688 491.91748046875 1170.175659179688 486.5632934570312 C 1170.175659179688 481.3010559082031 1169.485961914062 476.0887451171875 1168.125854492188 471.0711669921875 C 1166.807983398438 466.2091979980469 1164.864624023438 461.5406494140625 1162.35009765625 457.1951904296875 C 1157.5439453125 448.8899536132812 1150.757568359375 441.9462890625 1142.683959960938 437.0618896484375 M 1142.361450195312 435.7080078125 C 1159.553466796875 445.7030029296875 1171.175659179688 464.7247009277344 1171.175659179688 486.5632934570312 C 1171.175659179688 508.7854614257812 1159.146850585938 528.1010131835938 1141.452514648438 537.9456176757812 L 1131.092529296875 517.760009765625 C 1141.79833984375 511.7543334960938 1149.066162109375 500.0352172851562 1149.066162109375 486.5632934570312 C 1149.066162109375 472.6961059570312 1141.362670898438 460.6963500976562 1130.142944335938 454.8629150390625 L 1142.361450195312 435.7080078125 Z" stroke="none" fill="#000"/>
        </g>
      </g>
      <g id="Elipse_4634" data-name="Elipse 4634" transform="translate(1009.928 477.68)" fill="#fff" stroke="#000" stroke-miterlimit="10" stroke-width="1">
        <circle cx="14.836" cy="14.836" r="14.836" stroke="none"/>
        <circle cx="14.836" cy="14.836" r="14.336" fill="none"/>
      </g>
      <g id="Elipse_4635" data-name="Elipse 4635" transform="translate(1068.728 477.68)" fill="#fff" stroke="#000" stroke-miterlimit="10" stroke-width="1">
        <circle cx="14.836" cy="14.836" r="14.836" stroke="none"/>
        <circle cx="14.836" cy="14.836" r="14.336" fill="none"/>
      </g>
      <g id="Elipse_4636" data-name="Elipse 4636" transform="translate(1126.576 477.68)" fill="#fff" stroke="#000" stroke-miterlimit="10" stroke-width="1">
        <circle cx="14.836" cy="14.836" r="14.836" stroke="none"/>
        <circle cx="14.836" cy="14.836" r="14.336" fill="none"/>
      </g>
      <g id="Elipse_4637" data-name="Elipse 4637" transform="translate(1185.607 477.68)" fill="#fff" stroke="#000" stroke-miterlimit="10" stroke-width="1">
        <circle cx="14.836" cy="14.836" r="14.836" stroke="none"/>
        <circle cx="14.836" cy="14.836" r="14.336" fill="none"/>
      </g>
      <g id="Elipse_4638" data-name="Elipse 4638" transform="translate(939.822 427.646)" fill="none" stroke="#000" stroke-miterlimit="10" stroke-width="1">
        <circle cx="7.727" cy="7.727" r="7.727" stroke="none"/>
        <circle cx="7.727" cy="7.727" r="7.227" fill="none"/>
      </g>
      <g id="Elipse_4639" data-name="Elipse 4639" transform="translate(939.822 542.293)" fill="none" stroke="#000" stroke-miterlimit="10" stroke-width="1">
        <circle cx="7.727" cy="7.727" r="7.727" stroke="none"/>
        <circle cx="7.727" cy="7.727" r="7.227" fill="none"/>
      </g>
      <g id="Elipse_4640" data-name="Elipse 4640" transform="translate(1269.712 543.339)" fill="none" stroke="#000" stroke-miterlimit="10" stroke-width="1">
        <circle cx="7.727" cy="7.727" r="7.727" stroke="none"/>
        <circle cx="7.727" cy="7.727" r="7.227" fill="none"/>
      </g>
      <g id="Elipse_4641" data-name="Elipse 4641" transform="translate(1269.712 427.646)" fill="none" stroke="#000" stroke-miterlimit="10" stroke-width="1">
        <circle cx="7.727" cy="7.727" r="7.727" stroke="none"/>
        <circle cx="7.727" cy="7.727" r="7.227" fill="none"/>
      </g>
      <line id="Línea_310" data-name="Línea 310" x1="13.154" transform="translate(940.972 435.379)" fill="none" stroke="#4e5ff9" stroke-miterlimit="10" stroke-width="1"/>
      <line id="Línea_311" data-name="Línea 311" y2="13.154" transform="translate(947.549 428.802)" fill="none" stroke="#4e5ff9" stroke-miterlimit="10" stroke-width="1"/>
      <line id="Línea_312" data-name="Línea 312" y2="152.571" transform="translate(947.549 545.337)" fill="none" stroke="#4e5ff9" stroke-miterlimit="10" stroke-width="1"/>
      <line id="Línea_313" data-name="Línea 313" y2="122.388" transform="translate(1024.764 487.489)" fill="none" stroke="#4e5ff9" stroke-miterlimit="10" stroke-width="1"/>
      <line id="Línea_314" data-name="Línea 314" y1="10.877" transform="translate(1024.764 472.059)" fill="none" stroke="#4e5ff9" stroke-miterlimit="10" stroke-width="1"/>
      <line id="Línea_315" data-name="Línea 315" y2="12.142" transform="translate(1083.899 472.059)" fill="none" stroke="#4e5ff9" stroke-miterlimit="10" stroke-width="1"/>
      <line id="Línea_316" data-name="Línea 316" y2="144.426" transform="translate(1083.564 487.489)" fill="none" stroke="#4e5ff9" stroke-miterlimit="10" stroke-width="1"/>
      <line id="Línea_317" data-name="Línea 317" x2="10.624" transform="translate(1061.779 491.324)" fill="none" stroke="#4e5ff9" stroke-miterlimit="10" stroke-width="1"/>
      <line id="Línea_318" data-name="Línea 318" x2="11.679" transform="translate(1077.463 491.324)" fill="none" stroke="#4e5ff9" stroke-miterlimit="10" stroke-width="1"/>
      <line id="Línea_319" data-name="Línea 319" x2="9.36" transform="translate(1093.652 491.324)" fill="none" stroke="#4e5ff9" stroke-miterlimit="10" stroke-width="1"/>
      <line id="Línea_320" data-name="Línea 320" x2="10.624" transform="translate(1003.95 492.771)" fill="none" stroke="#4e5ff9" stroke-miterlimit="10" stroke-width="1"/>
      <line id="Línea_321" data-name="Línea 321" x2="11.679" transform="translate(1019.633 492.771)" fill="none" stroke="#4e5ff9" stroke-miterlimit="10" stroke-width="1"/>
      <line id="Línea_322" data-name="Línea 322" x2="9.36" transform="translate(1035.823 492.771)" fill="none" stroke="#4e5ff9" stroke-miterlimit="10" stroke-width="1"/>
      <line id="Línea_323" data-name="Línea 323" y2="11.13" transform="translate(1142.763 473.071)" fill="none" stroke="#4e5ff9" stroke-miterlimit="10" stroke-width="1"/>
      <line id="Línea_324" data-name="Línea 324" x2="10.877" transform="translate(1120.213 491.324)" fill="none" stroke="#4e5ff9" stroke-miterlimit="10" stroke-width="1"/>
      <line id="Línea_325" data-name="Línea 325" x2="9.866" transform="translate(1136.909 491.324)" fill="none" stroke="#4e5ff9" stroke-miterlimit="10" stroke-width="1"/>
      <line id="Línea_326" data-name="Línea 326" x2="8.601" transform="translate(1151.581 491.324)" fill="none" stroke="#4e5ff9" stroke-miterlimit="10" stroke-width="1"/>
      <line id="Línea_327" data-name="Línea 327" y2="11.13" transform="translate(1201.597 473.071)" fill="none" stroke="#4e5ff9" stroke-miterlimit="10" stroke-width="1"/>
      <line id="Línea_328" data-name="Línea 328" x2="11.889" transform="translate(1177.636 491.324)" fill="none" stroke="#4e5ff9" stroke-miterlimit="10" stroke-width="1"/>
      <line id="Línea_329" data-name="Línea 329" x2="13.66" transform="translate(1193.067 491.324)" fill="none" stroke="#4e5ff9" stroke-miterlimit="10" stroke-width="1"/>
      <line id="Línea_330" data-name="Línea 330" x1="9.866" transform="translate(1209.762 491.069)" fill="none" stroke="#4e5ff9" stroke-miterlimit="10" stroke-width="1"/>
      <line id="Línea_331" data-name="Línea 331" y2="188.158" transform="translate(1201.344 488.501)" fill="none" stroke="#4e5ff9" stroke-miterlimit="10" stroke-width="1"/>
      <line id="Línea_332" data-name="Línea 332" y2="165.898" transform="translate(1142.763 488.501)" fill="none" stroke="#4e5ff9" stroke-miterlimit="10" stroke-width="1"/>
      <line id="Línea_333" data-name="Línea 333" x2="10.877" transform="translate(1272.679 551.066)" fill="none" stroke="#4e5ff9" stroke-miterlimit="10" stroke-width="1"/>
      <line id="Línea_334" data-name="Línea 334" y2="150.72" transform="translate(1277.439 547.188)" fill="none" stroke="#4e5ff9" stroke-miterlimit="10" stroke-width="1"/>
      <line id="Línea_335" data-name="Línea 335" x2="10.877" transform="translate(1272 435.373)" fill="none" stroke="#4e5ff9" stroke-miterlimit="10" stroke-width="1"/>
      <line id="Línea_336" data-name="Línea 336" y2="11.636" transform="translate(1277.439 429.555)" fill="none" stroke="#4e5ff9" stroke-miterlimit="10" stroke-width="1"/>
      <g id="Grupo_62189" data-name="Grupo 62189" transform="translate(998.32 594.87)">
        <path id="Trazado_131068" data-name="Trazado 131068" d="M988.4,540.557l-.049,6.9,10.021-3.452Z" transform="translate(-972.962 -540.557)" fill="#4e5ff9"/>
        <line id="Línea_337" data-name="Línea 337" x2="15.411" transform="translate(0 3.452)" fill="none" stroke="#4e5ff9" stroke-miterlimit="10" stroke-width="1"/>
      </g>
      <g id="Grupo_62190" data-name="Grupo 62190" transform="translate(949.392 594.87)">
        <path id="Trazado_131069" data-name="Trazado 131069" d="M953.89,540.557l.05,6.9-10.021-3.452Z" transform="translate(-943.918 -540.557)" fill="#4e5ff9"/>
        <line id="Línea_338" data-name="Línea 338" x1="15.411" transform="translate(10 3.452)" fill="none" stroke="#4e5ff9" stroke-miterlimit="10" stroke-width="1"/>
      </g>
      <g id="Grupo_62191" data-name="Grupo 62191" transform="translate(949.392 617.636)">
        <path id="Trazado_131070" data-name="Trazado 131070" d="M953.89,556.285l.05,6.9-10.021-3.452Z" transform="translate(-943.918 -556.285)" fill="#4e5ff9"/>
        <line id="Línea_339" data-name="Línea 339" x1="43.413" transform="translate(10 3.452)" fill="none" stroke="#4e5ff9" stroke-miterlimit="10" stroke-width="1"/>
      </g>
      <g id="Grupo_62192" data-name="Grupo 62192" transform="translate(949.392 639.943)">
        <path id="Trazado_131071" data-name="Trazado 131071" d="M953.89,571.7l.05,6.9-10.021-3.452Z" transform="translate(-943.918 -571.695)" fill="#4e5ff9"/>
        <line id="Línea_340" data-name="Línea 340" x1="68.962" transform="translate(10 3.452)" fill="none" stroke="#4e5ff9" stroke-miterlimit="10" stroke-width="1"/>
      </g>
      <g id="Grupo_62193" data-name="Grupo 62193" transform="translate(949.392 662.56)">
        <path id="Trazado_131072" data-name="Trazado 131072" d="M953.89,587.32l.05,6.9-10.021-3.452Z" transform="translate(-943.918 -587.32)" fill="#4e5ff9"/>
        <line id="Línea_341" data-name="Línea 341" x1="98.216" transform="translate(10 3.452)" fill="none" stroke="#4e5ff9" stroke-miterlimit="10" stroke-width="1"/>
      </g>
      <g id="Grupo_62194" data-name="Grupo 62194" transform="translate(949.392 683.981)">
        <path id="Trazado_131073" data-name="Trazado 131073" d="M953.89,602.119l.05,6.9-10.021-3.452Z" transform="translate(-943.918 -602.119)" fill="#4e5ff9"/>
        <line id="Línea_342" data-name="Línea 342" x1="135.491" transform="translate(10 3.452)" fill="none" stroke="#4e5ff9" stroke-miterlimit="10" stroke-width="1"/>
      </g>
      <g id="Grupo_62195" data-name="Grupo 62195" transform="translate(1028.354 617.636)">
        <path id="Trazado_131074" data-name="Trazado 131074" d="M1028.913,556.285l-.05,6.9,10.021-3.452Z" transform="translate(-984.866 -556.285)" fill="#4e5ff9"/>
        <line id="Línea_343" data-name="Línea 343" x2="44.019" transform="translate(0 3.452)" fill="none" stroke="#4e5ff9" stroke-miterlimit="10" stroke-width="1"/>
      </g>
      <g id="Grupo_62196" data-name="Grupo 62196" transform="translate(1060.733 639.943)">
        <path id="Trazado_131075" data-name="Trazado 131075" d="M1069.5,571.7l-.049,6.9,10.021-3.452Z" transform="translate(-999.08 -571.695)" fill="#4e5ff9"/>
        <line id="Línea_344" data-name="Línea 344" x2="70.396" transform="translate(0 3.452)" fill="none" stroke="#4e5ff9" stroke-miterlimit="10" stroke-width="1"/>
      </g>
      <g id="Grupo_62197" data-name="Grupo 62197" transform="translate(1091.341 662.56)">
        <path id="Trazado_131076" data-name="Trazado 131076" d="M1109.873,587.32l-.049,6.9,10.021-3.452Z" transform="translate(-1011.623 -587.32)" fill="#4e5ff9"/>
        <line id="Línea_345" data-name="Línea 345" x2="98.222" transform="translate(0 3.452)" fill="none" stroke="#4e5ff9" stroke-miterlimit="10" stroke-width="1"/>
      </g>
      <g id="Grupo_62198" data-name="Grupo 62198" transform="translate(1129.033 683.981)">
        <path id="Trazado_131077" data-name="Trazado 131077" d="M1163.674,602.119l-.05,6.9,10.021-3.452Z" transform="translate(-1025.238 -602.119)" fill="#4e5ff9"/>
        <line id="Línea_346" data-name="Línea 346" x2="138.407" transform="translate(0 3.452)" fill="none" stroke="#4e5ff9" stroke-miterlimit="10" stroke-width="1"/>
      </g>
      <line id="Línea_347" data-name="Línea 347" x2="14.58" transform="translate(939.822 550.02)" fill="none" stroke="#4e5ff9" stroke-miterlimit="10" stroke-width="1"/>
    </g>
  </g>
</svg>
