<svg xmlns="http://www.w3.org/2000/svg" width="413.82" height="215.823" viewBox="0 0 413.82 215.823">
  <g id="Grupo_62913" data-name="Grupo 62913" transform="translate(-846.59 -7521.177)">
    <g id="Grupo_62185" data-name="Grupo 62185" transform="translate(846.59 7521.177)">
      <text id="_30" data-name="30" transform="translate(130.908 211.823)" fill="#4e5ff9" font-size="15" font-family="Roboto-Regular, Roboto"><tspan x="0" y="0">30</tspan></text>
      <text id="_30-2" data-name="30" transform="translate(194.989 211.823)" fill="#4e5ff9" font-size="15" font-family="Roboto-Regular, Roboto"><tspan x="0" y="0">30</tspan></text>
      <text id="_30-3" data-name="30" transform="translate(264.474 211.823)" fill="#4e5ff9" font-size="15" font-family="Roboto-Regular, Roboto"><tspan x="0" y="0">30</tspan></text>
      <text id="_40" data-name=" 40" transform="translate(45.211 211.822)" fill="#4e5ff9" font-size="15" font-family="Roboto-Regular, Roboto"><tspan x="0" y="0" xml:space="preserve"> 40</tspan></text>
      <text id="_40-2" data-name=" 40" transform="translate(333.959 211.822)" fill="#4e5ff9" font-size="15" font-family="Roboto-Regular, Roboto"><tspan x="0" y="0" xml:space="preserve"> 40</tspan></text>
      <g id="Rectángulo_31266" data-name="Rectángulo 31266" fill="#f2f2f3" stroke="#000" stroke-miterlimit="10" stroke-width="1">
        <rect width="413.82" height="167.638" stroke="none"/>
        <rect x="0.5" y="0.5" width="412.82" height="166.638" fill="none"/>
      </g>
      <g id="Grupo_62172" data-name="Grupo 62172" transform="translate(38.717 27.366)">
        <g id="Trazado_131053" data-name="Trazado 131053" transform="translate(-1287.3 -249.497)" fill="#fff" stroke-miterlimit="10">
          <path d="M 1321.109375 365.8195190429688 C 1311.275512695312 360.2423706054688 1302.996826171875 352.072509765625 1297.145385742188 342.1639099121094 C 1294.14453125 337.0824584960938 1291.824462890625 331.6114807128906 1290.24951171875 325.9029541015625 C 1288.624145507812 320.0114135742188 1287.800048828125 313.8876647949219 1287.800048828125 307.7018127441406 C 1287.800048828125 301.6221008300781 1288.596801757812 295.5997924804688 1290.168212890625 289.8021850585938 C 1291.691040039062 284.18359375 1293.936645507812 278.7884521484375 1296.842407226562 273.7666625976562 C 1302.50390625 263.9824829101562 1310.543579101562 255.8331451416016 1320.114135742188 250.1719207763672 L 1333.549072265625 271.2315673828125 C 1320.307250976562 278.3444519042969 1312.1044921875 292.2669982910156 1312.1044921875 307.7018127441406 C 1312.1044921875 322.6232299804688 1319.911743164062 336.3340759277344 1332.511962890625 343.6047668457031 L 1321.109375 365.8195190429688 Z" stroke="none"/>
          <path d="M 1319.95361328125 250.8499450683594 C 1310.639404296875 256.4564208984375 1302.811645507812 264.448974609375 1297.275146484375 274.0170593261719 C 1294.39111328125 279.0013427734375 1292.162353515625 284.3562316894531 1290.650756835938 289.9329833984375 C 1289.090942382812 295.68798828125 1288.300048828125 301.666259765625 1288.300048828125 307.7018127441406 C 1288.300048828125 313.8427429199219 1289.1181640625 319.9217529296875 1290.731567382812 325.7699584960938 C 1292.294677734375 331.4360046386719 1294.597534179688 336.8661804199219 1297.575927734375 341.90966796875 C 1303.29296875 351.5906677246094 1311.344116210938 359.598876953125 1320.903564453125 365.12548828125 L 1331.85107421875 343.7973937988281 C 1319.338012695312 336.3785095214844 1311.6044921875 322.6388244628906 1311.6044921875 307.7018127441406 C 1311.6044921875 292.2662658691406 1319.712646484375 278.3242797851562 1332.839599609375 271.0491027832031 L 1319.95361328125 250.8499450683594 M 1320.276611328125 249.4969787597656 L 1334.262451171875 271.4201049804688 C 1321.419677734375 278.0966186523438 1312.6044921875 291.8305969238281 1312.6044921875 307.7018127441406 C 1312.6044921875 323.1207275390625 1320.922607421875 336.5333251953125 1333.175537109375 343.4070129394531 L 1321.317138671875 366.5097045898438 C 1301.067138671875 355.242431640625 1287.300048828125 333.1354675292969 1287.300048828125 307.7018127441406 C 1287.300048828125 282.7071838378906 1300.60009765625 260.9365234375 1320.276611328125 249.4969787597656 Z" stroke="none" fill="#000"/>
        </g>
      </g>
      <g id="Grupo_62173" data-name="Grupo 62173" transform="translate(328.782 27.366)">
        <g id="Trazado_131054" data-name="Trazado 131054" transform="translate(-1462.386 -249.497)" fill="#fff" stroke-miterlimit="10">
          <path d="M 1475.5390625 365.8195190429688 L 1464.13623046875 343.6047668457031 C 1476.736694335938 336.333984375 1484.5439453125 322.6231384277344 1484.5439453125 307.7018127441406 C 1484.5439453125 292.2671203613281 1476.341186523438 278.3445739746094 1463.099365234375 271.2315979003906 L 1476.534301757812 250.1719207763672 C 1486.104858398438 255.8331451416016 1494.14453125 263.9824829101562 1499.806030273438 273.7666625976562 C 1502.711791992188 278.7884521484375 1504.957397460938 284.18359375 1506.480224609375 289.8021850585938 C 1508.051635742188 295.5997924804688 1508.848388671875 301.6221008300781 1508.848388671875 307.7018127441406 C 1508.848388671875 313.8876342773438 1508.024291992188 320.0113830566406 1506.398803710938 325.9029541015625 C 1504.823974609375 331.6114807128906 1502.503784179688 337.0824584960938 1499.5029296875 342.1639099121094 C 1493.651489257812 352.0724792480469 1485.372802734375 360.2423706054688 1475.5390625 365.8195190429688 Z" stroke="none"/>
          <path d="M 1476.69482421875 250.8499450683594 L 1463.808837890625 271.0491333007812 C 1476.935791015625 278.3244323730469 1485.0439453125 292.2664184570312 1485.0439453125 307.7018127441406 C 1485.0439453125 322.6387329101562 1477.310302734375 336.37841796875 1464.797119140625 343.7973937988281 L 1475.744873046875 365.12548828125 C 1485.30419921875 359.5988464355469 1493.355346679688 351.5906372070312 1499.072387695312 341.90966796875 C 1502.050903320312 336.8661804199219 1504.353637695312 331.4360046386719 1505.916870117188 325.7699584960938 C 1507.5302734375 319.9217224121094 1508.348388671875 313.8427124023438 1508.348388671875 307.7018127441406 C 1508.348388671875 301.666259765625 1507.557495117188 295.68798828125 1505.997680664062 289.9329833984375 C 1504.486083984375 284.3562316894531 1502.25732421875 279.0013427734375 1499.373291015625 274.0170593261719 C 1493.836791992188 264.448974609375 1486.009033203125 256.4564208984375 1476.69482421875 250.8499450683594 M 1476.371826171875 249.4969787597656 C 1496.04833984375 260.9365234375 1509.348388671875 282.7071838378906 1509.348388671875 307.7018127441406 C 1509.348388671875 333.1354675292969 1495.5810546875 355.242431640625 1475.331298828125 366.5097045898438 L 1463.47265625 343.4070129394531 C 1475.7255859375 336.5333251953125 1484.0439453125 323.1207275390625 1484.0439453125 307.7018127441406 C 1484.0439453125 291.8305969238281 1475.228515625 278.0966186523438 1462.385986328125 271.4201049804688 L 1476.371826171875 249.4969787597656 Z" stroke="none" fill="#000"/>
        </g>
      </g>
      <g id="Elipse_4626" data-name="Elipse 4626" transform="translate(89.549 66.944)" fill="#fff" stroke="#000" stroke-miterlimit="10" stroke-width="1">
        <circle cx="16.98" cy="16.98" r="16.98" stroke="none"/>
        <circle cx="16.98" cy="16.98" r="16.48" fill="none"/>
      </g>
      <g id="Elipse_4627" data-name="Elipse 4627" transform="translate(156.846 66.944)" fill="#fff" stroke="#000" stroke-miterlimit="10" stroke-width="1">
        <circle cx="16.98" cy="16.98" r="16.98" stroke="none"/>
        <circle cx="16.98" cy="16.98" r="16.48" fill="none"/>
      </g>
      <g id="Elipse_4628" data-name="Elipse 4628" transform="translate(223.055 66.944)" fill="#fff" stroke="#000" stroke-miterlimit="10" stroke-width="1">
        <circle cx="16.98" cy="16.98" r="16.98" stroke="none"/>
        <circle cx="16.98" cy="16.98" r="16.48" fill="none"/>
      </g>
      <g id="Elipse_4629" data-name="Elipse 4629" transform="translate(290.616 66.944)" fill="#fff" stroke="#000" stroke-miterlimit="10" stroke-width="1">
        <circle cx="16.98" cy="16.98" r="16.98" stroke="none"/>
        <circle cx="16.98" cy="16.98" r="16.48" fill="none"/>
      </g>
      <g id="Elipse_4630" data-name="Elipse 4630" transform="translate(9.311 9.679)" fill="none" stroke="#000" stroke-miterlimit="10" stroke-width="1">
        <circle cx="8.844" cy="8.844" r="8.844" stroke="none"/>
        <circle cx="8.844" cy="8.844" r="8.344" fill="none"/>
      </g>
      <g id="Elipse_4631" data-name="Elipse 4631" transform="translate(9.311 140.894)" fill="none" stroke="#000" stroke-miterlimit="10" stroke-width="1">
        <circle cx="8.844" cy="8.844" r="8.844" stroke="none"/>
        <circle cx="8.844" cy="8.844" r="8.344" fill="none"/>
      </g>
      <g id="Elipse_4632" data-name="Elipse 4632" transform="translate(386.877 142.091)" fill="none" stroke="#000" stroke-miterlimit="10" stroke-width="1">
        <circle cx="8.844" cy="8.844" r="8.844" stroke="none"/>
        <circle cx="8.844" cy="8.844" r="8.344" fill="none"/>
      </g>
      <g id="Elipse_4633" data-name="Elipse 4633" transform="translate(386.877 9.679)" fill="none" stroke="#000" stroke-miterlimit="10" stroke-width="1">
        <circle cx="8.844" cy="8.844" r="8.844" stroke="none"/>
        <circle cx="8.844" cy="8.844" r="8.344" fill="none"/>
      </g>
      <line id="Línea_272" data-name="Línea 272" x1="15.055" transform="translate(10.628 18.529)" fill="none" stroke="#4e5ff9" stroke-miterlimit="10" stroke-width="1"/>
      <line id="Línea_273" data-name="Línea 273" y2="15.055" transform="translate(18.155 11.002)" fill="none" stroke="#4e5ff9" stroke-miterlimit="10" stroke-width="1"/>
      <line id="Línea_274" data-name="Línea 274" y2="70.642" transform="translate(18.155 142.091)" fill="none" stroke="#4e5ff9" stroke-miterlimit="10" stroke-width="1"/>
      <line id="Línea_275" data-name="Línea 275" y2="134.563" transform="translate(106.529 78.171)" fill="none" stroke="#4e5ff9" stroke-miterlimit="10" stroke-width="1"/>
      <line id="Línea_276" data-name="Línea 276" y1="12.449" transform="translate(106.529 60.51)" fill="none" stroke="#4e5ff9" stroke-miterlimit="10" stroke-width="1"/>
      <line id="Línea_277" data-name="Línea 277" y2="13.897" transform="translate(174.21 60.51)" fill="none" stroke="#4e5ff9" stroke-miterlimit="10" stroke-width="1"/>
      <line id="Línea_278" data-name="Línea 278" y2="134.563" transform="translate(173.826 78.171)" fill="none" stroke="#4e5ff9" stroke-miterlimit="10" stroke-width="1"/>
      <line id="Línea_279" data-name="Línea 279" x2="12.16" transform="translate(148.893 82.559)" fill="none" stroke="#4e5ff9" stroke-miterlimit="10" stroke-width="1"/>
      <line id="Línea_280" data-name="Línea 280" x2="13.366" transform="translate(166.844 82.559)" fill="none" stroke="#4e5ff9" stroke-miterlimit="10" stroke-width="1"/>
      <line id="Línea_281" data-name="Línea 281" x2="10.712" transform="translate(185.373 82.559)" fill="none" stroke="#4e5ff9" stroke-miterlimit="10" stroke-width="1"/>
      <line id="Línea_282" data-name="Línea 282" x2="12.16" transform="translate(82.707 84.215)" fill="none" stroke="#4e5ff9" stroke-miterlimit="10" stroke-width="1"/>
      <line id="Línea_283" data-name="Línea 283" x2="13.366" transform="translate(100.657 84.215)" fill="none" stroke="#4e5ff9" stroke-miterlimit="10" stroke-width="1"/>
      <line id="Línea_284" data-name="Línea 284" x2="10.712" transform="translate(119.186 84.215)" fill="none" stroke="#4e5ff9" stroke-miterlimit="10" stroke-width="1"/>
      <line id="Línea_285" data-name="Línea 285" y2="12.739" transform="translate(241.581 61.668)" fill="none" stroke="#4e5ff9" stroke-miterlimit="10" stroke-width="1"/>
      <line id="Línea_286" data-name="Línea 286" x2="12.449" transform="translate(215.773 82.559)" fill="none" stroke="#4e5ff9" stroke-miterlimit="10" stroke-width="1"/>
      <line id="Línea_287" data-name="Línea 287" x2="11.291" transform="translate(234.881 82.559)" fill="none" stroke="#4e5ff9" stroke-miterlimit="10" stroke-width="1"/>
      <line id="Línea_288" data-name="Línea 288" x2="9.844" transform="translate(251.673 82.559)" fill="none" stroke="#4e5ff9" stroke-miterlimit="10" stroke-width="1"/>
      <line id="Línea_289" data-name="Línea 289" y2="12.739" transform="translate(308.917 61.668)" fill="none" stroke="#4e5ff9" stroke-miterlimit="10" stroke-width="1"/>
      <line id="Línea_290" data-name="Línea 290" x2="13.607" transform="translate(281.494 82.559)" fill="none" stroke="#4e5ff9" stroke-miterlimit="10" stroke-width="1"/>
      <line id="Línea_291" data-name="Línea 291" x2="15.634" transform="translate(299.154 82.559)" fill="none" stroke="#4e5ff9" stroke-miterlimit="10" stroke-width="1"/>
      <line id="Línea_292" data-name="Línea 292" x1="11.291" transform="translate(318.263 82.267)" fill="none" stroke="#4e5ff9" stroke-miterlimit="10" stroke-width="1"/>
      <line id="Línea_293" data-name="Línea 293" y2="133.916" transform="translate(308.628 78.818)" fill="none" stroke="#4e5ff9" stroke-miterlimit="10" stroke-width="1"/>
      <line id="Línea_294" data-name="Línea 294" y2="133.916" transform="translate(241.581 78.818)" fill="none" stroke="#4e5ff9" stroke-miterlimit="10" stroke-width="1"/>
      <line id="Línea_295" data-name="Línea 295" x2="12.449" transform="translate(390.272 150.935)" fill="none" stroke="#4e5ff9" stroke-miterlimit="10" stroke-width="1"/>
      <line id="Línea_296" data-name="Línea 296" y2="66.132" transform="translate(395.72 146.602)" fill="none" stroke="#4e5ff9" stroke-miterlimit="10" stroke-width="1"/>
      <line id="Línea_297" data-name="Línea 297" x2="12.449" transform="translate(389.496 18.522)" fill="none" stroke="#4e5ff9" stroke-miterlimit="10" stroke-width="1"/>
      <line id="Línea_298" data-name="Línea 298" y2="13.318" transform="translate(395.72 11.863)" fill="none" stroke="#4e5ff9" stroke-miterlimit="10" stroke-width="1"/>
      <line id="Línea_299" data-name="Línea 299" x2="16.687" transform="translate(9.311 149.738)" fill="none" stroke="#4e5ff9" stroke-miterlimit="10" stroke-width="1"/>
      <g id="Grupo_62174" data-name="Grupo 62174" transform="translate(75.656 201.348)">
        <path id="Trazado_131055" data-name="Trazado 131055" d="M1320.286,354.514l-.057,7.9,11.469-3.951Z" transform="translate(-1302.615 -354.514)" fill="#4e5ff9"/>
        <line id="Línea_300" data-name="Línea 300" x2="17.639" transform="translate(0 3.951)" fill="none" stroke="#4e5ff9" stroke-miterlimit="10" stroke-width="1"/>
      </g>
      <g id="Grupo_62175" data-name="Grupo 62175" transform="translate(19.657 201.348)">
        <path id="Trazado_131056" data-name="Trazado 131056" d="M1287.208,354.514l.057,7.9-11.469-3.951Z" transform="translate(-1275.795 -354.514)" fill="#4e5ff9"/>
        <line id="Línea_301" data-name="Línea 301" x1="17.639" transform="translate(11.445 3.951)" fill="none" stroke="#4e5ff9" stroke-miterlimit="10" stroke-width="1"/>
      </g>
      <g id="Grupo_62176" data-name="Grupo 62176" transform="translate(151.023 201.348)">
        <path id="Trazado_131057" data-name="Trazado 131057" d="M1363.444,354.514l-.057,7.9,11.469-3.951Z" transform="translate(-1349.64 -354.514)" fill="#4e5ff9"/>
        <line id="Línea_302" data-name="Línea 302" x2="13.772" transform="translate(0 3.951)" fill="none" stroke="#4e5ff9" stroke-miterlimit="10" stroke-width="1"/>
      </g>
      <g id="Grupo_62177" data-name="Grupo 62177" transform="translate(108.169 201.348)">
        <path id="Trazado_131058" data-name="Trazado 131058" d="M1340.634,354.514l.056,7.9-11.469-3.951Z" transform="translate(-1329.222 -354.514)" fill="#4e5ff9"/>
        <line id="Línea_303" data-name="Línea 303" x1="10.285" transform="translate(11.445 3.951)" fill="none" stroke="#4e5ff9" stroke-miterlimit="10" stroke-width="1"/>
      </g>
      <g id="Grupo_62178" data-name="Grupo 62178" transform="translate(217.065 201.348)">
        <path id="Trazado_131059" data-name="Trazado 131059" d="M1403.307,354.514l-.057,7.9,11.469-3.951Z" transform="translate(-1389.503 -354.514)" fill="#4e5ff9"/>
        <line id="Línea_304" data-name="Línea 304" x2="13.772" transform="translate(0 3.951)" fill="none" stroke="#4e5ff9" stroke-miterlimit="10" stroke-width="1"/>
      </g>
      <g id="Grupo_62179" data-name="Grupo 62179" transform="translate(174.21 201.348)">
        <path id="Trazado_131060" data-name="Trazado 131060" d="M1380.5,354.514l.056,7.9-11.469-3.951Z" transform="translate(-1369.085 -354.514)" fill="#4e5ff9"/>
        <line id="Línea_305" data-name="Línea 305" x1="10.285" transform="translate(11.445 3.951)" fill="none" stroke="#4e5ff9" stroke-miterlimit="10" stroke-width="1"/>
      </g>
      <g id="Grupo_62180" data-name="Grupo 62180" transform="translate(285.137 201.348)">
        <path id="Trazado_131061" data-name="Trazado 131061" d="M1444.4,354.514l-.057,7.9,11.469-3.951Z" transform="translate(-1430.591 -354.514)" fill="#4e5ff9"/>
        <line id="Línea_306" data-name="Línea 306" x2="13.772" transform="translate(0 3.951)" fill="none" stroke="#4e5ff9" stroke-miterlimit="10" stroke-width="1"/>
      </g>
      <g id="Grupo_62181" data-name="Grupo 62181" transform="translate(242.282 201.348)">
        <path id="Trazado_131062" data-name="Trazado 131062" d="M1421.586,354.514l.056,7.9-11.469-3.951Z" transform="translate(-1410.173 -354.514)" fill="#4e5ff9"/>
        <line id="Línea_307" data-name="Línea 307" x1="10.285" transform="translate(11.445 3.951)" fill="none" stroke="#4e5ff9" stroke-miterlimit="10" stroke-width="1"/>
      </g>
      <g id="Grupo_62182" data-name="Grupo 62182" transform="translate(362.423 201.348)">
        <path id="Trazado_131063" data-name="Trazado 131063" d="M1492.843,354.514l-.069,7.9,13.935-3.951Z" transform="translate(-1476.07 -354.514)" fill="#4e5ff9"/>
        <line id="Línea_308" data-name="Línea 308" x2="16.733" transform="translate(0 3.951)" fill="none" stroke="#4e5ff9" stroke-miterlimit="10" stroke-width="1"/>
      </g>
      <g id="Grupo_62183" data-name="Grupo 62183" transform="translate(310.354 201.348)">
        <path id="Trazado_131064" data-name="Trazado 131064" d="M1465.129,354.514l.069,7.9-13.935-3.951Z" transform="translate(-1451.262 -354.514)" fill="#4e5ff9"/>
        <line id="Línea_309" data-name="Línea 309" x1="12.496" transform="translate(13.906 3.951)" fill="none" stroke="#4e5ff9" stroke-miterlimit="10" stroke-width="1"/>
      </g>
    </g>
  </g>
</svg>
