<svg xmlns="http://www.w3.org/2000/svg" width="821" height="298" viewBox="0 0 821 298">
  <g id="Grupo_62898" data-name="Grupo 62898" transform="translate(-389.5 -11897)">
    <g id="Grupo_62096" data-name="Grupo 62096" transform="translate(390 11896.774)">
      <g id="Grupo_60039" data-name="Grupo 60039" transform="translate(0 1.226)">
        <g id="Grupo_59588" data-name="Grupo 59588" transform="translate(0 52)">
          <rect id="Rectángulo_29951" data-name="Rectángulo 29951" width="820" height="40.878" transform="translate(0 201.341)" fill="#e8e8e8"/>
          <path id="Trazado_134014" data-name="Trazado 134014" d="M8.176,14H6.951L2.3,6.878V14H1.073V4.758H2.3l4.666,7.154V4.758H8.176Zm1.669-3.5a4.057,4.057,0,0,1,.4-1.815,2.96,2.96,0,0,1,1.1-1.244A3.007,3.007,0,0,1,12.962,7a2.9,2.9,0,0,1,2.269.971A3.736,3.736,0,0,1,16.1,10.56v.083a4.092,4.092,0,0,1-.384,1.8,2.916,2.916,0,0,1-1.1,1.241,3.041,3.041,0,0,1-1.641.444,2.889,2.889,0,0,1-2.263-.971,3.718,3.718,0,0,1-.866-2.571Zm1.181.14a2.938,2.938,0,0,0,.53,1.834,1.8,1.8,0,0,0,2.841-.01,3.213,3.213,0,0,0,.527-1.965,2.933,2.933,0,0,0-.536-1.831,1.705,1.705,0,0,0-1.425-.7,1.686,1.686,0,0,0-1.4.692A3.189,3.189,0,0,0,11.026,10.642Zm8.138-5.173V7.132h1.282V8.04H19.164V12.3a.953.953,0,0,0,.171.62.721.721,0,0,0,.584.207,2.843,2.843,0,0,0,.559-.076V14a3.424,3.424,0,0,1-.9.126,1.462,1.462,0,0,1-1.187-.476,2.045,2.045,0,0,1-.4-1.352V8.04h-1.25V7.132h1.25V5.469ZM26.057,14a2.467,2.467,0,0,1-.165-.724,2.62,2.62,0,0,1-1.955.851,2.424,2.424,0,0,1-1.666-.574A1.859,1.859,0,0,1,21.62,12.1a1.942,1.942,0,0,1,.816-1.666,3.846,3.846,0,0,1,2.295-.594h1.143V9.3a1.319,1.319,0,0,0-.368-.981,1.48,1.48,0,0,0-1.085-.365,1.712,1.712,0,0,0-1.054.317.935.935,0,0,0-.425.768H21.76a1.621,1.621,0,0,1,.365-.993,2.491,2.491,0,0,1,.99-.759A3.331,3.331,0,0,1,24.489,7a2.715,2.715,0,0,1,1.86.594,2.141,2.141,0,0,1,.7,1.635v3.161a3.865,3.865,0,0,0,.241,1.5V14Zm-1.949-.9a2.064,2.064,0,0,0,1.047-.286,1.728,1.728,0,0,0,.717-.743V10.667h-.92q-2.158,0-2.158,1.263a1.069,1.069,0,0,0,.368.863A1.415,1.415,0,0,0,24.108,13.1Zm4.805.279a.735.735,0,0,1,.181-.508.689.689,0,0,1,.543-.2.71.71,0,0,1,.549.2.721.721,0,0,1,.187.508.681.681,0,0,1-.187.489.723.723,0,0,1-.549.2.653.653,0,0,1-.724-.686ZM37.02,14H35.8V4.758H37.02Zm3.148-6.868.032.762A2.536,2.536,0,0,1,42.237,7a1.964,1.964,0,0,1,1.961,1.1,2.6,2.6,0,0,1,.892-.8,2.634,2.634,0,0,1,1.3-.3q2.26,0,2.3,2.393V14H47.512V9.468a1.577,1.577,0,0,0-.336-1.1A1.482,1.482,0,0,0,46.046,8a1.557,1.557,0,0,0-1.085.39,1.584,1.584,0,0,0-.5,1.051V14H43.278V9.5A1.31,1.31,0,0,0,41.812,8a1.571,1.571,0,0,0-1.581.984V14H39.057V7.132ZM54.7,14a2.467,2.467,0,0,1-.165-.724,2.62,2.62,0,0,1-1.955.851,2.424,2.424,0,0,1-1.666-.574,1.859,1.859,0,0,1-.651-1.457,1.942,1.942,0,0,1,.816-1.666,3.846,3.846,0,0,1,2.295-.594h1.143V9.3a1.319,1.319,0,0,0-.368-.981,1.48,1.48,0,0,0-1.085-.365,1.712,1.712,0,0,0-1.054.317.935.935,0,0,0-.425.768H50.4a1.621,1.621,0,0,1,.365-.993,2.491,2.491,0,0,1,.99-.759A3.331,3.331,0,0,1,53.13,7a2.715,2.715,0,0,1,1.86.594,2.141,2.141,0,0,1,.7,1.635v3.161a3.865,3.865,0,0,0,.241,1.5V14Zm-1.949-.9a2.064,2.064,0,0,0,1.047-.286,1.728,1.728,0,0,0,.717-.743V10.667h-.92q-2.158,0-2.158,1.263a1.069,1.069,0,0,0,.368.863A1.415,1.415,0,0,0,52.749,13.1Zm4.5-2.6a4.037,4.037,0,0,1,.743-2.555,2.56,2.56,0,0,1,3.929-.06l.057-.762h1.073v6.7a2.794,2.794,0,0,1-.79,2.1,2.916,2.916,0,0,1-2.123.768,3.532,3.532,0,0,1-1.454-.317,2.5,2.5,0,0,1-1.085-.87l.609-.7a2.3,2.3,0,0,0,1.847.933,1.8,1.8,0,0,0,1.336-.482,1.844,1.844,0,0,0,.479-1.358v-.59a2.414,2.414,0,0,1-1.923.813A2.346,2.346,0,0,1,58,13.156,4.244,4.244,0,0,1,57.25,10.509Zm1.181.133a3.08,3.08,0,0,0,.476,1.825,1.547,1.547,0,0,0,1.333.663,1.72,1.72,0,0,0,1.631-1.009V8.985A1.74,1.74,0,0,0,60.252,8a1.561,1.561,0,0,0-1.339.667A3.354,3.354,0,0,0,58.43,10.642Zm9.242,3.485A3,3,0,0,1,65.4,13.21a3.4,3.4,0,0,1-.876-2.453v-.216a4.121,4.121,0,0,1,.39-1.825,3.045,3.045,0,0,1,1.092-1.257A2.745,2.745,0,0,1,67.526,7a2.572,2.572,0,0,1,2.082.882,3.82,3.82,0,0,1,.743,2.526V10.9H65.7a2.441,2.441,0,0,0,.594,1.641,1.866,1.866,0,0,0,1.444.625,2.045,2.045,0,0,0,1.054-.254,2.648,2.648,0,0,0,.755-.673l.717.559A2.884,2.884,0,0,1,67.672,14.127ZM67.526,7.97a1.566,1.566,0,0,0-1.193.517,2.515,2.515,0,0,0-.6,1.45h3.44V9.849a2.237,2.237,0,0,0-.482-1.387A1.475,1.475,0,0,0,67.526,7.97Zm5.294-.838L72.858,8A2.5,2.5,0,0,1,74.915,7q2.177,0,2.2,2.457V14H75.937V9.455a1.581,1.581,0,0,0-.34-1.1A1.361,1.361,0,0,0,74.56,8a1.7,1.7,0,0,0-1,.3,2.069,2.069,0,0,0-.673.8V14H71.709V7.132Zm12.13,7a3,3,0,0,1-2.272-.917,3.4,3.4,0,0,1-.876-2.453v-.216a4.121,4.121,0,0,1,.39-1.825,3.045,3.045,0,0,1,1.092-1.257A2.745,2.745,0,0,1,84.8,7a2.572,2.572,0,0,1,2.082.882,3.82,3.82,0,0,1,.743,2.526V10.9H82.977a2.441,2.441,0,0,0,.594,1.641,1.866,1.866,0,0,0,1.444.625,2.045,2.045,0,0,0,1.054-.254,2.648,2.648,0,0,0,.755-.673l.717.559A2.884,2.884,0,0,1,84.951,14.127ZM84.8,7.97a1.566,1.566,0,0,0-1.193.517,2.515,2.515,0,0,0-.6,1.45h3.44V9.849a2.237,2.237,0,0,0-.482-1.387A1.475,1.475,0,0,0,84.8,7.97Zm6.487,1.669,1.523-2.507h1.371l-2.247,3.4L94.256,14H92.9l-1.587-2.571L89.724,14H88.359l2.317-3.472-2.247-3.4h1.358Zm5.732-4.17V7.132h1.282V8.04H97.024V12.3a.953.953,0,0,0,.171.62.721.721,0,0,0,.584.207,2.843,2.843,0,0,0,.559-.076V14a3.424,3.424,0,0,1-.9.126,1.462,1.462,0,0,1-1.187-.476,2.045,2.045,0,0,1-.4-1.352V8.04H94.6V7.132h1.25V5.469ZM103,8.186a3.519,3.519,0,0,0-.578-.044,1.547,1.547,0,0,0-1.568.984V14H99.677V7.132h1.143l.019.793A1.829,1.829,0,0,1,102.477,7a1.2,1.2,0,0,1,.521.089ZM108.063,14a2.467,2.467,0,0,1-.165-.724,2.62,2.62,0,0,1-1.955.851,2.424,2.424,0,0,1-1.666-.574,1.859,1.859,0,0,1-.651-1.457,1.942,1.942,0,0,1,.816-1.666,3.846,3.846,0,0,1,2.295-.594h1.143V9.3a1.319,1.319,0,0,0-.368-.981,1.48,1.48,0,0,0-1.085-.365,1.712,1.712,0,0,0-1.054.317.935.935,0,0,0-.425.768h-1.181a1.621,1.621,0,0,1,.365-.993,2.491,2.491,0,0,1,.99-.759A3.331,3.331,0,0,1,106.495,7a2.715,2.715,0,0,1,1.86.594,2.141,2.141,0,0,1,.7,1.635v3.161a3.865,3.865,0,0,0,.241,1.5V14Zm-1.949-.9a2.064,2.064,0,0,0,1.047-.286,1.728,1.728,0,0,0,.717-.743V10.667h-.92q-2.158,0-2.158,1.263a1.069,1.069,0,0,0,.368.863A1.415,1.415,0,0,0,106.114,13.1Zm6.056.9h-1.181V7.132h1.181Zm.013-9.744H113.6l-1.7,1.866-.946,0Zm1.638,6.252a4.023,4.023,0,0,1,.749-2.542,2.548,2.548,0,0,1,3.872-.136V4.25h1.174V14h-1.079l-.057-.736a2.391,2.391,0,0,1-1.961.863,2.346,2.346,0,0,1-1.946-.978,4.069,4.069,0,0,1-.752-2.552Zm1.174.133a3.046,3.046,0,0,0,.482,1.828,1.56,1.56,0,0,0,1.333.66,1.713,1.713,0,0,0,1.631-1V8.973A1.726,1.726,0,0,0,116.822,8a1.567,1.567,0,0,0-1.346.667A3.354,3.354,0,0,0,114.994,10.642ZM125.677,14a2.467,2.467,0,0,1-.165-.724,2.62,2.62,0,0,1-1.955.851,2.424,2.424,0,0,1-1.666-.574,1.859,1.859,0,0,1-.651-1.457,1.942,1.942,0,0,1,.816-1.666,3.846,3.846,0,0,1,2.295-.594h1.143V9.3a1.319,1.319,0,0,0-.368-.981,1.48,1.48,0,0,0-1.085-.365,1.712,1.712,0,0,0-1.054.317.935.935,0,0,0-.425.768H121.38a1.621,1.621,0,0,1,.365-.993,2.491,2.491,0,0,1,.99-.759A3.331,3.331,0,0,1,124.109,7a2.715,2.715,0,0,1,1.86.594,2.141,2.141,0,0,1,.7,1.635v3.161a3.865,3.865,0,0,0,.241,1.5V14Zm-1.949-.9a2.064,2.064,0,0,0,1.047-.286,1.728,1.728,0,0,0,.717-.743V10.667h-.92q-2.158,0-2.158,1.263a1.069,1.069,0,0,0,.368.863A1.415,1.415,0,0,0,123.729,13.1Zm7.712-2.6a4.023,4.023,0,0,1,.749-2.542,2.548,2.548,0,0,1,3.872-.136V4.25h1.174V14h-1.079l-.057-.736a2.391,2.391,0,0,1-1.961.863,2.346,2.346,0,0,1-1.946-.978,4.069,4.069,0,0,1-.752-2.552Zm1.174.133a3.046,3.046,0,0,0,.482,1.828,1.56,1.56,0,0,0,1.333.66,1.713,1.713,0,0,0,1.631-1V8.973A1.726,1.726,0,0,0,134.443,8a1.567,1.567,0,0,0-1.346.667A3.354,3.354,0,0,0,132.615,10.642Zm9.293,3.485a3,3,0,0,1-2.272-.917,3.4,3.4,0,0,1-.876-2.453v-.216a4.121,4.121,0,0,1,.39-1.825,3.045,3.045,0,0,1,1.092-1.257A2.745,2.745,0,0,1,141.762,7a2.572,2.572,0,0,1,2.082.882,3.82,3.82,0,0,1,.743,2.526V10.9h-4.653a2.441,2.441,0,0,0,.594,1.641,1.866,1.866,0,0,0,1.444.625,2.045,2.045,0,0,0,1.054-.254,2.647,2.647,0,0,0,.755-.673l.717.559A2.884,2.884,0,0,1,141.908,14.127Zm-.146-6.157a1.566,1.566,0,0,0-1.193.517,2.515,2.515,0,0,0-.6,1.45h3.44V9.849a2.237,2.237,0,0,0-.482-1.387A1.475,1.475,0,0,0,141.762,7.97Zm12.689,3.612h-3.872L149.709,14h-1.257l3.529-9.242h1.066L156.584,14h-1.25Zm-3.5-1h3.142l-1.574-4.323Zm10.867,2.736a2.494,2.494,0,0,1-2.012.806,2.135,2.135,0,0,1-1.673-.638,2.761,2.761,0,0,1-.581-1.888V7.132h1.174v4.437q0,1.562,1.27,1.562a1.758,1.758,0,0,0,1.79-1v-5h1.174V14H161.84Zm4.52-7.852V7.132h1.282V8.04h-1.282V12.3a.953.953,0,0,0,.171.62.721.721,0,0,0,.584.207,2.843,2.843,0,0,0,.559-.076V14a3.424,3.424,0,0,1-.9.126,1.462,1.462,0,0,1-1.187-.476,2.045,2.045,0,0,1-.4-1.352V8.04h-1.25V7.132h1.25V5.469Zm2.215,5.034a4.057,4.057,0,0,1,.4-1.815,2.959,2.959,0,0,1,1.1-1.244A3.007,3.007,0,0,1,171.666,7a2.9,2.9,0,0,1,2.269.971,3.736,3.736,0,0,1,.866,2.583v.083a4.092,4.092,0,0,1-.384,1.8,2.916,2.916,0,0,1-1.1,1.241,3.041,3.041,0,0,1-1.641.444,2.889,2.889,0,0,1-2.263-.971,3.718,3.718,0,0,1-.866-2.571Zm1.181.14a2.938,2.938,0,0,0,.53,1.834,1.8,1.8,0,0,0,2.841-.01,3.213,3.213,0,0,0,.527-1.965,2.933,2.933,0,0,0-.536-1.831,1.705,1.705,0,0,0-1.425-.7,1.686,1.686,0,0,0-1.4.692A3.189,3.189,0,0,0,169.73,10.642Zm6.259-.133a4.023,4.023,0,0,1,.749-2.542,2.548,2.548,0,0,1,3.872-.136V4.25h1.174V14h-1.079l-.057-.736a2.391,2.391,0,0,1-1.961.863,2.346,2.346,0,0,1-1.946-.978,4.069,4.069,0,0,1-.752-2.552Zm1.174.133a3.046,3.046,0,0,0,.482,1.828,1.56,1.56,0,0,0,1.333.66,1.713,1.713,0,0,0,1.631-1V8.973A1.726,1.726,0,0,0,178.991,8a1.567,1.567,0,0,0-1.346.667A3.354,3.354,0,0,0,177.163,10.642Zm9.293,3.485a3,3,0,0,1-2.272-.917,3.4,3.4,0,0,1-.876-2.453v-.216a4.121,4.121,0,0,1,.39-1.825,3.045,3.045,0,0,1,1.092-1.257A2.745,2.745,0,0,1,186.31,7a2.572,2.572,0,0,1,2.082.882,3.82,3.82,0,0,1,.743,2.526V10.9h-4.653a2.441,2.441,0,0,0,.594,1.641,1.866,1.866,0,0,0,1.444.625,2.045,2.045,0,0,0,1.054-.254,2.647,2.647,0,0,0,.755-.673l.717.559A2.884,2.884,0,0,1,186.456,14.127ZM186.31,7.97a1.566,1.566,0,0,0-1.193.517,2.515,2.515,0,0,0-.6,1.45h3.44V9.849a2.237,2.237,0,0,0-.482-1.387A1.475,1.475,0,0,0,186.31,7.97Zm8.182,4.208a.865.865,0,0,0-.359-.74,3.452,3.452,0,0,0-1.25-.454,5.912,5.912,0,0,1-1.416-.457,2.014,2.014,0,0,1-.774-.635,1.518,1.518,0,0,1-.251-.876,1.782,1.782,0,0,1,.714-1.428A2.789,2.789,0,0,1,192.981,7a2.87,2.87,0,0,1,1.895.6A1.915,1.915,0,0,1,195.6,9.15h-1.181a1.06,1.06,0,0,0-.409-.832,1.534,1.534,0,0,0-1.031-.349,1.605,1.605,0,0,0-1,.279.879.879,0,0,0-.362.73.712.712,0,0,0,.336.641,4.139,4.139,0,0,0,1.216.413,6.334,6.334,0,0,1,1.425.47,2.079,2.079,0,0,1,.809.657,1.615,1.615,0,0,1,.263.936,1.758,1.758,0,0,1-.736,1.476,3.089,3.089,0,0,1-1.911.555,3.459,3.459,0,0,1-1.46-.292,2.375,2.375,0,0,1-.993-.816,1.966,1.966,0,0,1-.359-1.133h1.174a1.216,1.216,0,0,0,.473.936,1.835,1.835,0,0,0,1.165.346,1.894,1.894,0,0,0,1.07-.27A.829.829,0,0,0,194.492,12.178Zm4.621-1.358-.736.768V14H197.2V4.25h1.174v5.9l.628-.755,2.139-2.26h1.428L199.9,10l2.983,4h-1.377Zm7.846-.571a9.814,9.814,0,0,1,.384-2.755,8,8,0,0,1,1.146-2.4,4.874,4.874,0,0,1,1.581-1.523l.241.774a5.056,5.056,0,0,0-1.52,2.171,9.411,9.411,0,0,0-.651,3.269l-.006.54a9.46,9.46,0,0,0,.9,4.253,5.079,5.079,0,0,0,1.282,1.688l-.241.717a5.031,5.031,0,0,1-1.612-1.574A8.823,8.823,0,0,1,206.959,10.249ZM217.382,14h-6.056v-.844l3.2-3.555a7.6,7.6,0,0,0,.981-1.311,2.188,2.188,0,0,0,.27-1.044,1.658,1.658,0,0,0-.438-1.187A1.531,1.531,0,0,0,214.17,5.6a1.814,1.814,0,0,0-1.362.5,1.9,1.9,0,0,0-.486,1.387h-1.174a2.726,2.726,0,0,1,.822-2.063,3.047,3.047,0,0,1,2.2-.787,2.928,2.928,0,0,1,2.038.676,2.306,2.306,0,0,1,.749,1.8,5.287,5.287,0,0,1-1.739,3.25l-2.476,2.685h4.64Zm7.04-3.942a5.371,5.371,0,0,1-.7,3.066,2.928,2.928,0,0,1-4.393.022,5.1,5.1,0,0,1-.736-2.929V8.649a5.251,5.251,0,0,1,.7-3.028,2.98,2.98,0,0,1,4.405-.035,5.068,5.068,0,0,1,.724,2.948Zm-1.174-1.606a4.3,4.3,0,0,0-.419-2.174A1.442,1.442,0,0,0,221.5,5.6a1.423,1.423,0,0,0-1.314.679,4.2,4.2,0,0,0-.425,2.088v1.879a4.372,4.372,0,0,0,.435,2.212,1.439,1.439,0,0,0,1.317.714,1.42,1.42,0,0,0,1.292-.673,4.214,4.214,0,0,0,.441-2.12ZM231.981,14h-6.056v-.844l3.2-3.555a7.6,7.6,0,0,0,.981-1.311,2.188,2.188,0,0,0,.27-1.044,1.658,1.658,0,0,0-.438-1.187A1.531,1.531,0,0,0,228.77,5.6a1.814,1.814,0,0,0-1.362.5,1.9,1.9,0,0,0-.486,1.387h-1.174a2.726,2.726,0,0,1,.822-2.063,3.047,3.047,0,0,1,2.2-.787,2.928,2.928,0,0,1,2.038.676,2.306,2.306,0,0,1,.749,1.8,5.287,5.287,0,0,1-1.739,3.25l-2.476,2.685h4.64Zm7.04-3.942a5.371,5.371,0,0,1-.7,3.066,2.928,2.928,0,0,1-4.393.022,5.1,5.1,0,0,1-.736-2.929V8.649a5.251,5.251,0,0,1,.7-3.028,2.98,2.98,0,0,1,4.405-.035,5.068,5.068,0,0,1,.724,2.948Zm-1.174-1.606a4.3,4.3,0,0,0-.419-2.174A1.442,1.442,0,0,0,236.1,5.6a1.423,1.423,0,0,0-1.314.679,4.2,4.2,0,0,0-.425,2.088v1.879a4.372,4.372,0,0,0,.435,2.212,1.439,1.439,0,0,0,1.317.714,1.42,1.42,0,0,0,1.292-.673,4.214,4.214,0,0,0,.441-2.12Zm5.51,1.86a9.819,9.819,0,0,1-.371,2.714,8.024,8.024,0,0,1-1.136,2.4,4.978,4.978,0,0,1-1.6,1.562L240,16.266a5.1,5.1,0,0,0,1.571-2.326,10.065,10.065,0,0,0,.606-3.5v-.2a10.449,10.449,0,0,0-.279-2.479,8.366,8.366,0,0,0-.778-2.053A4.743,4.743,0,0,0,240,4.288l.248-.717a4.959,4.959,0,0,1,1.6,1.549,8.041,8.041,0,0,1,1.136,2.393A10.045,10.045,0,0,1,243.356,10.312Z" transform="translate(23 214)" fill="#12263f"/>
          <rect id="Rectángulo_31214" data-name="Rectángulo 31214" width="820" height="201" fill="none"/>
        </g>
        <g id="Grupo_60036" data-name="Grupo 60036" transform="translate(0 0)">
          <rect id="Rectángulo_30672" data-name="Rectángulo 30672" width="5" height="27" transform="translate(0)" fill="#fba321"/>
          <path id="Trazado_134013" data-name="Trazado 134013" d="M7.458-8.246H4.488V0H3.275V-8.246H.311v-1H7.458ZM12.168,0A2.467,2.467,0,0,1,12-.724a2.62,2.62,0,0,1-1.955.851A2.424,2.424,0,0,1,8.382-.448,1.859,1.859,0,0,1,7.731-1.9a1.942,1.942,0,0,1,.816-1.666,3.846,3.846,0,0,1,2.295-.594h1.143V-4.7a1.319,1.319,0,0,0-.368-.981,1.48,1.48,0,0,0-1.085-.365,1.712,1.712,0,0,0-1.054.317.935.935,0,0,0-.425.768H7.871a1.621,1.621,0,0,1,.365-.993,2.491,2.491,0,0,1,.99-.759A3.331,3.331,0,0,1,10.6-7a2.715,2.715,0,0,1,1.86.594,2.141,2.141,0,0,1,.7,1.635v3.161A3.865,3.865,0,0,0,13.4-.1V0ZM10.22-.9a2.064,2.064,0,0,0,1.047-.286,1.728,1.728,0,0,0,.717-.743V-3.333h-.92q-2.158,0-2.158,1.263a1.069,1.069,0,0,0,.368.863A1.415,1.415,0,0,0,10.22-.9ZM20.814-3.358a4.084,4.084,0,0,1-.724,2.53,2.312,2.312,0,0,1-1.942.955,2.394,2.394,0,0,1-2.012-.92L16.079,0H15V-9.75h1.174v3.637A2.381,2.381,0,0,1,18.135-7a2.326,2.326,0,0,1,1.965.946,4.206,4.206,0,0,1,.714,2.59ZM19.64-3.491a3.173,3.173,0,0,0-.463-1.854A1.534,1.534,0,0,0,17.843-6a1.724,1.724,0,0,0-1.669,1.079v2.971A1.772,1.772,0,0,0,17.856-.87a1.526,1.526,0,0,0,1.314-.654A3.375,3.375,0,0,0,19.64-3.491ZM23.569,0H22.395V-9.75h1.174Zm6.119,0a2.467,2.467,0,0,1-.165-.724,2.62,2.62,0,0,1-1.955.851A2.424,2.424,0,0,1,25.9-.448,1.859,1.859,0,0,1,25.251-1.9a1.942,1.942,0,0,1,.816-1.666,3.846,3.846,0,0,1,2.295-.594H29.5V-4.7a1.319,1.319,0,0,0-.368-.981,1.48,1.48,0,0,0-1.085-.365A1.712,1.712,0,0,0,27-5.732a.935.935,0,0,0-.425.768H25.391a1.621,1.621,0,0,1,.365-.993,2.491,2.491,0,0,1,.99-.759A3.331,3.331,0,0,1,28.12-7a2.715,2.715,0,0,1,1.86.594,2.141,2.141,0,0,1,.7,1.635v3.161a3.865,3.865,0,0,0,.241,1.5V0ZM27.739-.9a2.064,2.064,0,0,0,1.047-.286,1.728,1.728,0,0,0,.717-.743V-3.333h-.92q-2.158,0-2.158,1.263a1.069,1.069,0,0,0,.368.863A1.415,1.415,0,0,0,27.739-.9Zm8.779-.927a.865.865,0,0,0-.359-.74,3.452,3.452,0,0,0-1.25-.454,5.912,5.912,0,0,1-1.416-.457,2.014,2.014,0,0,1-.774-.635,1.518,1.518,0,0,1-.251-.876,1.782,1.782,0,0,1,.714-1.428A2.789,2.789,0,0,1,35.007-7a2.87,2.87,0,0,1,1.895.6,1.915,1.915,0,0,1,.727,1.542H36.448a1.06,1.06,0,0,0-.409-.832,1.534,1.534,0,0,0-1.031-.349,1.605,1.605,0,0,0-1,.279.879.879,0,0,0-.362.73.712.712,0,0,0,.336.641,4.139,4.139,0,0,0,1.216.413,6.334,6.334,0,0,1,1.425.47,2.079,2.079,0,0,1,.809.657,1.615,1.615,0,0,1,.263.936,1.758,1.758,0,0,1-.736,1.476,3.089,3.089,0,0,1-1.911.555,3.459,3.459,0,0,1-1.46-.292,2.375,2.375,0,0,1-.993-.816,1.966,1.966,0,0,1-.359-1.133h1.174a1.216,1.216,0,0,0,.473.936,1.835,1.835,0,0,0,1.165.346,1.894,1.894,0,0,0,1.07-.27A.829.829,0,0,0,36.518-1.822Zm5.637-1.669A4.023,4.023,0,0,1,42.9-6.033,2.369,2.369,0,0,1,44.865-7a2.382,2.382,0,0,1,1.911.825V-9.75H47.95V0H46.871l-.057-.736a2.391,2.391,0,0,1-1.961.863,2.346,2.346,0,0,1-1.946-.978A4.069,4.069,0,0,1,42.155-3.4Zm1.174.133a3.046,3.046,0,0,0,.482,1.828,1.56,1.56,0,0,0,1.333.66,1.713,1.713,0,0,0,1.631-1V-5.027A1.726,1.726,0,0,0,45.157-6a1.567,1.567,0,0,0-1.346.667A3.354,3.354,0,0,0,43.329-3.358ZM52.622.127A3,3,0,0,1,50.35-.79a3.4,3.4,0,0,1-.876-2.453v-.216a4.121,4.121,0,0,1,.39-1.825,3.045,3.045,0,0,1,1.092-1.257A2.745,2.745,0,0,1,52.476-7a2.572,2.572,0,0,1,2.082.882A3.82,3.82,0,0,1,55.3-3.586V-3.1H50.648a2.441,2.441,0,0,0,.594,1.641,1.866,1.866,0,0,0,1.444.625,2.045,2.045,0,0,0,1.054-.254,2.648,2.648,0,0,0,.755-.673l.717.559A2.884,2.884,0,0,1,52.622.127ZM52.476-6.03a1.566,1.566,0,0,0-1.193.517,2.515,2.515,0,0,0-.6,1.45h3.44v-.089a2.237,2.237,0,0,0-.482-1.387A1.475,1.475,0,0,0,52.476-6.03ZM64.118,0a2.467,2.467,0,0,1-.165-.724A2.62,2.62,0,0,1,62,.127a2.424,2.424,0,0,1-1.666-.574A1.859,1.859,0,0,1,59.681-1.9,1.942,1.942,0,0,1,60.5-3.571a3.846,3.846,0,0,1,2.295-.594h1.143V-4.7a1.319,1.319,0,0,0-.368-.981,1.48,1.48,0,0,0-1.085-.365,1.712,1.712,0,0,0-1.054.317A.935.935,0,0,0,61-4.964H59.82a1.621,1.621,0,0,1,.365-.993,2.491,2.491,0,0,1,.99-.759A3.331,3.331,0,0,1,62.55-7a2.715,2.715,0,0,1,1.86.594,2.141,2.141,0,0,1,.7,1.635v3.161a3.865,3.865,0,0,0,.241,1.5V0ZM62.169-.9a2.064,2.064,0,0,0,1.047-.286,1.728,1.728,0,0,0,.717-.743V-3.333h-.92q-2.158,0-2.158,1.263a1.069,1.069,0,0,0,.368.863A1.415,1.415,0,0,0,62.169-.9ZM68.06-6.868,68.1-6A2.5,2.5,0,0,1,70.154-7q2.177,0,2.2,2.457V0H71.176V-4.545a1.581,1.581,0,0,0-.34-1.1A1.361,1.361,0,0,0,69.8-6a1.7,1.7,0,0,0-1,.3,2.069,2.069,0,0,0-.673.8V0H66.949V-6.868ZM73.811-3.5a4.057,4.057,0,0,1,.4-1.815,2.96,2.96,0,0,1,1.1-1.244A3.007,3.007,0,0,1,76.927-7a2.9,2.9,0,0,1,2.269.971,3.736,3.736,0,0,1,.866,2.583v.083a4.092,4.092,0,0,1-.384,1.8,2.916,2.916,0,0,1-1.1,1.241A3.041,3.041,0,0,1,76.94.127a2.889,2.889,0,0,1-2.263-.971,3.718,3.718,0,0,1-.866-2.571Zm1.181.14a2.938,2.938,0,0,0,.53,1.834,1.7,1.7,0,0,0,1.419.692,1.686,1.686,0,0,0,1.422-.7A3.213,3.213,0,0,0,78.889-3.5a2.933,2.933,0,0,0-.536-1.831,1.705,1.705,0,0,0-1.425-.7,1.686,1.686,0,0,0-1.4.692A3.189,3.189,0,0,0,74.991-3.358Zm8.138-5.173v1.663h1.282v.908H83.129V-1.7a.953.953,0,0,0,.171.62.721.721,0,0,0,.584.207,2.843,2.843,0,0,0,.559-.076V0a3.424,3.424,0,0,1-.9.126,1.462,1.462,0,0,1-1.187-.476,2.045,2.045,0,0,1-.4-1.352V-5.96H80.7v-.908h1.25V-8.531ZM90.022,0a2.467,2.467,0,0,1-.165-.724A2.62,2.62,0,0,1,87.9.127a2.424,2.424,0,0,1-1.666-.574A1.859,1.859,0,0,1,85.585-1.9,1.942,1.942,0,0,1,86.4-3.571,3.846,3.846,0,0,1,88.7-4.164h1.143V-4.7a1.319,1.319,0,0,0-.368-.981,1.48,1.48,0,0,0-1.085-.365,1.712,1.712,0,0,0-1.054.317.935.935,0,0,0-.425.768H85.725a1.621,1.621,0,0,1,.365-.993,2.491,2.491,0,0,1,.99-.759A3.331,3.331,0,0,1,88.455-7a2.715,2.715,0,0,1,1.86.594,2.141,2.141,0,0,1,.7,1.635v3.161a3.865,3.865,0,0,0,.241,1.5V0ZM88.074-.9a2.064,2.064,0,0,0,1.047-.286,1.728,1.728,0,0,0,.717-.743V-3.333h-.92q-2.158,0-2.158,1.263a1.069,1.069,0,0,0,.368.863A1.415,1.415,0,0,0,88.074-.9Zm7.535.063a1.691,1.691,0,0,0,1.1-.381,1.34,1.34,0,0,0,.521-.952h1.111a2.13,2.13,0,0,1-.406,1.124,2.676,2.676,0,0,1-1,.851,2.885,2.885,0,0,1-1.323.317,2.829,2.829,0,0,1-2.231-.936,3.729,3.729,0,0,1-.828-2.561v-.2a4.135,4.135,0,0,1,.368-1.784,2.8,2.8,0,0,1,1.057-1.212A3,3,0,0,1,95.6-7a2.755,2.755,0,0,1,1.92.692,2.473,2.473,0,0,1,.816,1.8H97.227a1.618,1.618,0,0,0-.5-1.095A1.57,1.57,0,0,0,95.6-6.03a1.644,1.644,0,0,0-1.387.644,3.026,3.026,0,0,0-.492,1.863V-3.3a2.966,2.966,0,0,0,.489,1.828A1.651,1.651,0,0,0,95.608-.832ZM100.934,0H99.76V-6.868h1.174Zm-1.27-8.69a.7.7,0,0,1,.175-.482.655.655,0,0,1,.517-.2.666.666,0,0,1,.521.2.694.694,0,0,1,.178.482.671.671,0,0,1-.178.476.678.678,0,0,1-.521.19.667.667,0,0,1-.517-.19A.678.678,0,0,1,99.665-8.69ZM102.5-3.5a4.057,4.057,0,0,1,.4-1.815A2.96,2.96,0,0,1,104-6.557,3.007,3.007,0,0,1,105.619-7a2.9,2.9,0,0,1,2.269.971,3.736,3.736,0,0,1,.866,2.583v.083a4.092,4.092,0,0,1-.384,1.8,2.916,2.916,0,0,1-1.1,1.241,3.041,3.041,0,0,1-1.641.444,2.889,2.889,0,0,1-2.263-.971,3.718,3.718,0,0,1-.866-2.571Zm1.181.14a2.938,2.938,0,0,0,.53,1.834,1.7,1.7,0,0,0,1.419.692,1.686,1.686,0,0,0,1.422-.7A3.213,3.213,0,0,0,107.58-3.5a2.933,2.933,0,0,0-.536-1.831,1.705,1.705,0,0,0-1.425-.7,1.686,1.686,0,0,0-1.4.692A3.189,3.189,0,0,0,103.683-3.358Zm2.469-6.392h1.422l-1.7,1.866-.946,0Zm5.186,2.882.038.863A2.5,2.5,0,0,1,113.433-7q2.177,0,2.2,2.457V0h-1.174V-4.545a1.581,1.581,0,0,0-.34-1.1A1.361,1.361,0,0,0,113.077-6a1.7,1.7,0,0,0-1,.3,2.069,2.069,0,0,0-.673.8V0h-1.174V-6.868Z" transform="translate(20 19)" fill="#12263f"/>
        </g>
      </g>
      <path id="Trazado_131097" data-name="Trazado 131097" d="M0,0H820V298H0Z" transform="translate(0 0.226)" fill="none"/>
    </g>
    <g id="Grupo_62205" data-name="Grupo 62205" transform="translate(-1241.379 11873.786)">
      <rect id="Rectángulo_31268" data-name="Rectángulo 31268" width="391.109" height="25.201" transform="translate(2059.164 76.214)" fill="#d6d6d6"/>
      <rect id="Rectángulo_31269" data-name="Rectángulo 31269" width="86.326" height="25.763" transform="translate(2186.875 76.214)" fill="#ffdc9e"/>
      <rect id="Rectángulo_31270" data-name="Rectángulo 31270" width="41.794" height="172.901" transform="translate(2058.057 76.214)" fill="#d6d6d6"/>
      <rect id="Rectángulo_31271" data-name="Rectángulo 31271" width="41.42" height="28.897" transform="translate(2058.431 164.382)" fill="#ffdc9e"/>
      <rect id="Rectángulo_31272" data-name="Rectángulo 31272" width="41.794" height="172.901" transform="translate(1631.379 76.214)" fill="#91a2c5"/>
      <rect id="Rectángulo_31273" data-name="Rectángulo 31273" width="392.329" height="25.201" transform="translate(1631.379 76.214)" fill="#91a2c5"/>
      <rect id="Rectángulo_31274" data-name="Rectángulo 31274" width="393.322" height="172.901" transform="translate(1631.379 76.214)" fill="none" stroke="#000" stroke-miterlimit="10" stroke-width="1"/>
      <line id="Línea_356" data-name="Línea 356" x2="393.322" transform="translate(1631.379 221.635)" fill="none" stroke="#000" stroke-miterlimit="10" stroke-width="1"/>
      <line id="Línea_357" data-name="Línea 357" x2="393.322" transform="translate(1631.379 193.009)" fill="none" stroke="#000" stroke-miterlimit="10" stroke-width="1"/>
      <line id="Línea_358" data-name="Línea 358" x2="393.322" transform="translate(1631.379 164.382)" fill="none" stroke="#000" stroke-miterlimit="10" stroke-width="1"/>
      <line id="Línea_359" data-name="Línea 359" x2="393.322" transform="translate(1631.379 135.756)" fill="none" stroke="#000" stroke-miterlimit="10" stroke-width="1"/>
      <line id="Línea_360" data-name="Línea 360" x2="393.322" transform="translate(1631.379 101.978)" fill="none" stroke="#000" stroke-miterlimit="10" stroke-width="1"/>
      <line id="Línea_361" data-name="Línea 361" y2="172.901" transform="translate(1673.173 76.214)" fill="none" stroke="#000" stroke-miterlimit="10" stroke-width="1"/>
      <line id="Línea_362" data-name="Línea 362" y2="113.359" transform="translate(1760.197 135.756)" fill="none" stroke="#000" stroke-miterlimit="10" stroke-width="1"/>
      <line id="Línea_363" data-name="Línea 363" y2="113.359" transform="translate(1846.523 135.756)" fill="none" stroke="#000" stroke-miterlimit="10" stroke-width="1"/>
      <line id="Línea_364" data-name="Línea 364" y2="113.359" transform="translate(1934.816 135.756)" fill="none" stroke="#000" stroke-miterlimit="10" stroke-width="1"/>
      <line id="Línea_365" data-name="Línea 365" y2="25.763" transform="translate(1760.197 76.214)" fill="none" stroke="#000" stroke-miterlimit="10" stroke-width="1"/>
      <line id="Línea_366" data-name="Línea 366" y2="25.763" transform="translate(1846.523 76.214)" fill="none" stroke="#000" stroke-miterlimit="10" stroke-width="1"/>
      <line id="Línea_367" data-name="Línea 367" y2="25.763" transform="translate(1934.816 76.214)" fill="none" stroke="#000" stroke-miterlimit="10" stroke-width="1"/>
      <path id="Trazado_131092" data-name="Trazado 131092" d="M1880.827,86.033v20.335L1905.966,96.2Z" transform="translate(132.474 5.215)" fill="#0080ff"/>
      <path id="Trazado_131093" data-name="Trazado 131093" d="M1890.564,179.629l-11.579,16.716,26.455,5.957Z" transform="translate(131.496 54.921)" fill="#0080ff"/>
      <path id="Trazado_131094" data-name="Trazado 131094" d="M1672.958,182.855l-20.281-1.476,8.316,25.81Z" transform="translate(11.31 55.85)" fill="#0080ff"/>
      <rect id="Rectángulo_31275" data-name="Rectángulo 31275" width="18.373" height="18.373" transform="translate(2013.302 126.567)" fill="#0080ff" stroke="#000" stroke-miterlimit="10" stroke-width="1"/>
      <rect id="Rectángulo_31276" data-name="Rectángulo 31276" width="18.373" height="18.373" transform="translate(1925.629 126.567)" fill="#0080ff" stroke="#000" stroke-miterlimit="10" stroke-width="1"/>
      <rect id="Rectángulo_31277" data-name="Rectángulo 31277" width="18.373" height="18.373" transform="translate(1840.393 126.567)" fill="#0080ff" stroke="#000" stroke-miterlimit="10" stroke-width="1"/>
      <rect id="Rectángulo_31278" data-name="Rectángulo 31278" width="18.373" height="18.373" transform="translate(1754.415 126.567)" fill="#0080ff" stroke="#000" stroke-miterlimit="10" stroke-width="1"/>
      <rect id="Rectángulo_31279" data-name="Rectángulo 31279" width="18.373" height="18.373" transform="translate(1663.987 126.567)" fill="#0080ff" stroke="#000" stroke-miterlimit="10" stroke-width="1"/>
      <rect id="Rectángulo_31280" data-name="Rectángulo 31280" width="18.373" height="18.373" transform="translate(1663.987 92.791)" fill="#0080ff" stroke="#000" stroke-miterlimit="10" stroke-width="1"/>
      <path id="Trazado_131095" data-name="Trazado 131095" d="M1764.555,187.033l27.47,1.62L1778.29,207.78Z" transform="translate(70.726 58.853)" fill="#8ddfff"/>
      <text id="_1" data-name="1" transform="translate(1647.986 126.734)" font-size="18" font-family="Roboto-Regular, Roboto"><tspan x="0" y="0">1</tspan></text>
      <text id="A" transform="translate(1711.132 93.555)" font-size="18" font-family="Roboto-Regular, Roboto"><tspan x="0" y="0">A</tspan></text>
      <text id="B" transform="translate(1794.969 93.555)" font-size="18" font-family="Roboto-Regular, Roboto"><tspan x="0" y="0">B</tspan></text>
      <text id="D" transform="translate(1971.205 93.555)" font-size="18" font-family="Roboto-Regular, Roboto"><tspan x="0" y="0">D</tspan></text>
      <text id="C" transform="translate(1884.514 93.555)" font-size="18" font-family="Roboto-Regular, Roboto"><tspan x="0" y="0">C</tspan></text>
      <text id="_2" data-name="2" transform="translate(1647.986 157.318)" font-size="18" font-family="Roboto-Regular, Roboto"><tspan x="0" y="0">2</tspan></text>
      <text id="_3" data-name="3" transform="translate(1647.986 184.431)" font-size="18" font-family="Roboto-Regular, Roboto"><tspan x="0" y="0">3</tspan></text>
      <text id="_4" data-name="4" transform="translate(1647.986 212.154)" font-size="18" font-family="Roboto-Regular, Roboto"><tspan x="0" y="0">4</tspan></text>
      <text id="_5" data-name="5" transform="translate(1647.986 239.52)" font-size="18" font-family="Roboto-Regular, Roboto"><tspan x="0" y="0">5</tspan></text>
      <rect id="Rectángulo_31281" data-name="Rectángulo 31281" width="393.322" height="172.901" transform="translate(2058.057 76.214)" fill="none" stroke="#000" stroke-miterlimit="10" stroke-width="1"/>
      <line id="Línea_368" data-name="Línea 368" x2="393.322" transform="translate(2058.057 221.635)" fill="none" stroke="#000" stroke-miterlimit="10" stroke-width="1"/>
      <line id="Línea_369" data-name="Línea 369" x2="393.322" transform="translate(2058.057 193.009)" fill="none" stroke="#000" stroke-miterlimit="10" stroke-width="1"/>
      <line id="Línea_370" data-name="Línea 370" x2="393.322" transform="translate(2058.057 164.382)" fill="none" stroke="#000" stroke-miterlimit="10" stroke-width="1"/>
      <line id="Línea_371" data-name="Línea 371" x2="393.322" transform="translate(2058.057 135.756)" fill="none" stroke="#000" stroke-miterlimit="10" stroke-width="1"/>
      <line id="Línea_372" data-name="Línea 372" x2="393.322" transform="translate(2058.057 101.978)" fill="none" stroke="#000" stroke-miterlimit="10" stroke-width="1"/>
      <line id="Línea_373" data-name="Línea 373" y2="172.901" transform="translate(2099.851 76.214)" fill="none" stroke="#000" stroke-miterlimit="10" stroke-width="1"/>
      <line id="Línea_374" data-name="Línea 374" y2="113.359" transform="translate(2186.875 135.756)" fill="none" stroke="#000" stroke-miterlimit="10" stroke-width="1"/>
      <line id="Línea_375" data-name="Línea 375" y2="113.359" transform="translate(2273.201 135.756)" fill="none" stroke="#000" stroke-miterlimit="10" stroke-width="1"/>
      <line id="Línea_376" data-name="Línea 376" y2="113.359" transform="translate(2361.494 135.756)" fill="none" stroke="#000" stroke-miterlimit="10" stroke-width="1"/>
      <line id="Línea_377" data-name="Línea 377" y2="25.763" transform="translate(2186.875 76.214)" fill="none" stroke="#000" stroke-miterlimit="10" stroke-width="1"/>
      <line id="Línea_378" data-name="Línea 378" y2="25.763" transform="translate(2273.201 76.214)" fill="none" stroke="#000" stroke-miterlimit="10" stroke-width="1"/>
      <line id="Línea_379" data-name="Línea 379" y2="25.763" transform="translate(2361.494 76.214)" fill="none" stroke="#000" stroke-miterlimit="10" stroke-width="1"/>
      <rect id="Rectángulo_31282" data-name="Rectángulo 31282" width="86.326" height="28.897" transform="translate(2186.875 164.382)" fill="none" stroke="#ffdc9e" stroke-miterlimit="10" stroke-width="3"/>
      <rect id="Rectángulo_31283" data-name="Rectángulo 31283" width="18.373" height="18.373" transform="translate(2220.851 183.25)" fill="#0080ff" stroke="#000" stroke-miterlimit="10" stroke-width="1"/>
      <rect id="Rectángulo_31284" data-name="Rectángulo 31284" width="18.373" height="18.373" transform="translate(2264.998 168.629)" fill="#0080ff" stroke="#000" stroke-miterlimit="10" stroke-width="1"/>
      <rect id="Rectángulo_31285" data-name="Rectángulo 31285" width="18.373" height="18.373" transform="translate(2220.851 153.479)" fill="#0080ff" stroke="#000" stroke-miterlimit="10" stroke-width="1"/>
      <rect id="Rectángulo_31286" data-name="Rectángulo 31286" width="18.373" height="18.373" transform="translate(2177.688 169.509)" fill="#0080ff" stroke="#000" stroke-miterlimit="10" stroke-width="1"/>
      <path id="Trazado_131096" data-name="Trazado 131096" d="M2042.248,149.148l27.47,1.62L2055.983,169.9Z" transform="translate(218.201 38.733)" fill="#8ddfff"/>
      <text id="_1-2" data-name="1" transform="translate(2074.664 126.734)" font-size="18" font-family="Roboto-Regular, Roboto"><tspan x="0" y="0">1</tspan></text>
      <text id="A-2" data-name="A" transform="translate(2137.81 93.555)" font-size="18" font-family="Roboto-Regular, Roboto"><tspan x="0" y="0">A</tspan></text>
      <text id="B-2" data-name="B" transform="translate(2221.647 93.555)" font-size="18" font-family="Roboto-Regular, Roboto"><tspan x="0" y="0">B</tspan></text>
      <text id="D-2" data-name="D" transform="translate(2397.883 93.555)" font-size="18" font-family="Roboto-Regular, Roboto"><tspan x="0" y="0">D</tspan></text>
      <text id="C-2" data-name="C" transform="translate(2311.192 93.555)" font-size="18" font-family="Roboto-Regular, Roboto"><tspan x="0" y="0">C</tspan></text>
      <text id="_2-2" data-name="2" transform="translate(2074.664 157.318)" font-size="18" font-family="Roboto-Regular, Roboto"><tspan x="0" y="0">2</tspan></text>
      <text id="_3-2" data-name="3" transform="translate(2074.664 184.431)" font-size="18" font-family="Roboto-Regular, Roboto"><tspan x="0" y="0">3</tspan></text>
      <text id="_4-2" data-name="4" transform="translate(2074.664 212.154)" font-size="18" font-family="Roboto-Regular, Roboto"><tspan x="0" y="0">4</tspan></text>
      <text id="_5-2" data-name="5" transform="translate(2074.664 239.52)" font-size="18" font-family="Roboto-Regular, Roboto"><tspan x="0" y="0">5</tspan></text>
    </g>
  </g>
</svg>
