<svg xmlns="http://www.w3.org/2000/svg" width="553.104" height="226.138" viewBox="0 0 553.104 226.138">
  <g id="Grupo_62907" data-name="Grupo 62907" transform="translate(-810 -4966)">
    <g id="Grupo_60043" data-name="Grupo 60043" transform="translate(210 3866)">
      <g id="Grupo_60039" data-name="Grupo 60039" transform="translate(600 1099)">
        <g id="Grupo_59588" data-name="Grupo 59588" transform="translate(0 28)">
          <rect id="Rectángulo_29951" data-name="Rectángulo 29951" width="553.104" height="28.137" transform="translate(0 171)" fill="#e8e8e8"/>
          <path id="Trazado_133997" data-name="Trazado 133997" d="M8.176,14H6.951L2.3,6.878V14H1.073V4.758H2.3l4.666,7.154V4.758H8.176Zm1.669-3.5a4.057,4.057,0,0,1,.4-1.815,2.96,2.96,0,0,1,1.1-1.244A3.007,3.007,0,0,1,12.962,7a2.9,2.9,0,0,1,2.269.971A3.736,3.736,0,0,1,16.1,10.56v.083a4.092,4.092,0,0,1-.384,1.8,2.916,2.916,0,0,1-1.1,1.241,3.041,3.041,0,0,1-1.641.444,2.889,2.889,0,0,1-2.263-.971,3.718,3.718,0,0,1-.866-2.571Zm1.181.14a2.938,2.938,0,0,0,.53,1.834,1.8,1.8,0,0,0,2.841-.01,3.213,3.213,0,0,0,.527-1.965,2.933,2.933,0,0,0-.536-1.831,1.705,1.705,0,0,0-1.425-.7,1.686,1.686,0,0,0-1.4.692A3.189,3.189,0,0,0,11.026,10.642Zm8.138-5.173V7.132h1.282V8.04H19.164V12.3a.953.953,0,0,0,.171.62.721.721,0,0,0,.584.207,2.843,2.843,0,0,0,.559-.076V14a3.424,3.424,0,0,1-.9.126,1.462,1.462,0,0,1-1.187-.476,2.045,2.045,0,0,1-.4-1.352V8.04h-1.25V7.132h1.25V5.469ZM26.057,14a2.467,2.467,0,0,1-.165-.724,2.62,2.62,0,0,1-1.955.851,2.424,2.424,0,0,1-1.666-.574A1.859,1.859,0,0,1,21.62,12.1a1.942,1.942,0,0,1,.816-1.666,3.846,3.846,0,0,1,2.295-.594h1.143V9.3a1.319,1.319,0,0,0-.368-.981,1.48,1.48,0,0,0-1.085-.365,1.712,1.712,0,0,0-1.054.317.935.935,0,0,0-.425.768H21.76a1.621,1.621,0,0,1,.365-.993,2.491,2.491,0,0,1,.99-.759A3.331,3.331,0,0,1,24.489,7a2.715,2.715,0,0,1,1.86.594,2.141,2.141,0,0,1,.7,1.635v3.161a3.865,3.865,0,0,0,.241,1.5V14Zm-1.949-.9a2.064,2.064,0,0,0,1.047-.286,1.728,1.728,0,0,0,.717-.743V10.667h-.92q-2.158,0-2.158,1.263a1.069,1.069,0,0,0,.368.863A1.415,1.415,0,0,0,24.108,13.1Zm4.805.279a.735.735,0,0,1,.181-.508.689.689,0,0,1,.543-.2.71.71,0,0,1,.549.2.721.721,0,0,1,.187.508.681.681,0,0,1-.187.489.723.723,0,0,1-.549.2.653.653,0,0,1-.724-.686ZM37.02,14H35.8V4.758H37.02Zm3.148-6.868.032.762A2.536,2.536,0,0,1,42.237,7a1.964,1.964,0,0,1,1.961,1.1,2.6,2.6,0,0,1,.892-.8,2.634,2.634,0,0,1,1.3-.3q2.26,0,2.3,2.393V14H47.512V9.468a1.577,1.577,0,0,0-.336-1.1A1.482,1.482,0,0,0,46.046,8a1.557,1.557,0,0,0-1.085.39,1.584,1.584,0,0,0-.5,1.051V14H43.278V9.5A1.31,1.31,0,0,0,41.812,8a1.571,1.571,0,0,0-1.581.984V14H39.057V7.132ZM54.7,14a2.467,2.467,0,0,1-.165-.724,2.62,2.62,0,0,1-1.955.851,2.424,2.424,0,0,1-1.666-.574,1.859,1.859,0,0,1-.651-1.457,1.942,1.942,0,0,1,.816-1.666,3.846,3.846,0,0,1,2.295-.594h1.143V9.3a1.319,1.319,0,0,0-.368-.981,1.48,1.48,0,0,0-1.085-.365,1.712,1.712,0,0,0-1.054.317.935.935,0,0,0-.425.768H50.4a1.621,1.621,0,0,1,.365-.993,2.491,2.491,0,0,1,.99-.759A3.331,3.331,0,0,1,53.13,7a2.715,2.715,0,0,1,1.86.594,2.141,2.141,0,0,1,.7,1.635v3.161a3.865,3.865,0,0,0,.241,1.5V14Zm-1.949-.9a2.064,2.064,0,0,0,1.047-.286,1.728,1.728,0,0,0,.717-.743V10.667h-.92q-2.158,0-2.158,1.263a1.069,1.069,0,0,0,.368.863A1.415,1.415,0,0,0,52.749,13.1Zm4.5-2.6a4.037,4.037,0,0,1,.743-2.555,2.56,2.56,0,0,1,3.929-.06l.057-.762h1.073v6.7a2.794,2.794,0,0,1-.79,2.1,2.916,2.916,0,0,1-2.123.768,3.532,3.532,0,0,1-1.454-.317,2.5,2.5,0,0,1-1.085-.87l.609-.7a2.3,2.3,0,0,0,1.847.933,1.8,1.8,0,0,0,1.336-.482,1.844,1.844,0,0,0,.479-1.358v-.59a2.414,2.414,0,0,1-1.923.813A2.346,2.346,0,0,1,58,13.156,4.244,4.244,0,0,1,57.25,10.509Zm1.181.133a3.08,3.08,0,0,0,.476,1.825,1.547,1.547,0,0,0,1.333.663,1.72,1.72,0,0,0,1.631-1.009V8.985A1.74,1.74,0,0,0,60.252,8a1.561,1.561,0,0,0-1.339.667A3.354,3.354,0,0,0,58.43,10.642Zm9.242,3.485A3,3,0,0,1,65.4,13.21a3.4,3.4,0,0,1-.876-2.453v-.216a4.121,4.121,0,0,1,.39-1.825,3.045,3.045,0,0,1,1.092-1.257A2.745,2.745,0,0,1,67.526,7a2.572,2.572,0,0,1,2.082.882,3.82,3.82,0,0,1,.743,2.526V10.9H65.7a2.441,2.441,0,0,0,.594,1.641,1.866,1.866,0,0,0,1.444.625,2.045,2.045,0,0,0,1.054-.254,2.648,2.648,0,0,0,.755-.673l.717.559A2.884,2.884,0,0,1,67.672,14.127ZM67.526,7.97a1.566,1.566,0,0,0-1.193.517,2.515,2.515,0,0,0-.6,1.45h3.44V9.849a2.237,2.237,0,0,0-.482-1.387A1.475,1.475,0,0,0,67.526,7.97Zm5.294-.838L72.858,8A2.5,2.5,0,0,1,74.915,7q2.177,0,2.2,2.457V14H75.937V9.455a1.581,1.581,0,0,0-.34-1.1A1.361,1.361,0,0,0,74.56,8a1.7,1.7,0,0,0-1,.3,2.069,2.069,0,0,0-.673.8V14H71.709V7.132Zm12.13,7a3,3,0,0,1-2.272-.917,3.4,3.4,0,0,1-.876-2.453v-.216a4.121,4.121,0,0,1,.39-1.825,3.045,3.045,0,0,1,1.092-1.257A2.745,2.745,0,0,1,84.8,7a2.572,2.572,0,0,1,2.082.882,3.82,3.82,0,0,1,.743,2.526V10.9H82.977a2.441,2.441,0,0,0,.594,1.641,1.866,1.866,0,0,0,1.444.625,2.045,2.045,0,0,0,1.054-.254,2.648,2.648,0,0,0,.755-.673l.717.559A2.884,2.884,0,0,1,84.951,14.127ZM84.8,7.97a1.566,1.566,0,0,0-1.193.517,2.515,2.515,0,0,0-.6,1.45h3.44V9.849a2.237,2.237,0,0,0-.482-1.387A1.475,1.475,0,0,0,84.8,7.97Zm6.487,1.669,1.523-2.507h1.371l-2.247,3.4L94.256,14H92.9l-1.587-2.571L89.724,14H88.359l2.317-3.472-2.247-3.4h1.358Zm5.732-4.17V7.132h1.282V8.04H97.024V12.3a.953.953,0,0,0,.171.62.721.721,0,0,0,.584.207,2.843,2.843,0,0,0,.559-.076V14a3.424,3.424,0,0,1-.9.126,1.462,1.462,0,0,1-1.187-.476,2.045,2.045,0,0,1-.4-1.352V8.04H94.6V7.132h1.25V5.469ZM103,8.186a3.519,3.519,0,0,0-.578-.044,1.547,1.547,0,0,0-1.568.984V14H99.677V7.132h1.143l.019.793A1.829,1.829,0,0,1,102.477,7a1.2,1.2,0,0,1,.521.089ZM108.063,14a2.467,2.467,0,0,1-.165-.724,2.62,2.62,0,0,1-1.955.851,2.424,2.424,0,0,1-1.666-.574,1.859,1.859,0,0,1-.651-1.457,1.942,1.942,0,0,1,.816-1.666,3.846,3.846,0,0,1,2.295-.594h1.143V9.3a1.319,1.319,0,0,0-.368-.981,1.48,1.48,0,0,0-1.085-.365,1.712,1.712,0,0,0-1.054.317.935.935,0,0,0-.425.768h-1.181a1.621,1.621,0,0,1,.365-.993,2.491,2.491,0,0,1,.99-.759A3.331,3.331,0,0,1,106.495,7a2.715,2.715,0,0,1,1.86.594,2.141,2.141,0,0,1,.7,1.635v3.161a3.865,3.865,0,0,0,.241,1.5V14Zm-1.949-.9a2.064,2.064,0,0,0,1.047-.286,1.728,1.728,0,0,0,.717-.743V10.667h-.92q-2.158,0-2.158,1.263a1.069,1.069,0,0,0,.368.863A1.415,1.415,0,0,0,106.114,13.1Zm6.056.9h-1.181V7.132h1.181Zm.013-9.744H113.6l-1.7,1.866-.946,0Zm1.638,6.252a4.023,4.023,0,0,1,.749-2.542,2.548,2.548,0,0,1,3.872-.136V4.25h1.174V14h-1.079l-.057-.736a2.391,2.391,0,0,1-1.961.863,2.346,2.346,0,0,1-1.946-.978,4.069,4.069,0,0,1-.752-2.552Zm1.174.133a3.046,3.046,0,0,0,.482,1.828,1.56,1.56,0,0,0,1.333.66,1.713,1.713,0,0,0,1.631-1V8.973A1.726,1.726,0,0,0,116.822,8a1.567,1.567,0,0,0-1.346.667A3.354,3.354,0,0,0,114.994,10.642ZM125.677,14a2.467,2.467,0,0,1-.165-.724,2.62,2.62,0,0,1-1.955.851,2.424,2.424,0,0,1-1.666-.574,1.859,1.859,0,0,1-.651-1.457,1.942,1.942,0,0,1,.816-1.666,3.846,3.846,0,0,1,2.295-.594h1.143V9.3a1.319,1.319,0,0,0-.368-.981,1.48,1.48,0,0,0-1.085-.365,1.712,1.712,0,0,0-1.054.317.935.935,0,0,0-.425.768H121.38a1.621,1.621,0,0,1,.365-.993,2.491,2.491,0,0,1,.99-.759A3.331,3.331,0,0,1,124.109,7a2.715,2.715,0,0,1,1.86.594,2.141,2.141,0,0,1,.7,1.635v3.161a3.865,3.865,0,0,0,.241,1.5V14Zm-1.949-.9a2.064,2.064,0,0,0,1.047-.286,1.728,1.728,0,0,0,.717-.743V10.667h-.92q-2.158,0-2.158,1.263a1.069,1.069,0,0,0,.368.863A1.415,1.415,0,0,0,123.729,13.1Zm7.712-2.6a4.023,4.023,0,0,1,.749-2.542,2.548,2.548,0,0,1,3.872-.136V4.25h1.174V14h-1.079l-.057-.736a2.391,2.391,0,0,1-1.961.863,2.346,2.346,0,0,1-1.946-.978,4.069,4.069,0,0,1-.752-2.552Zm1.174.133a3.046,3.046,0,0,0,.482,1.828,1.56,1.56,0,0,0,1.333.66,1.713,1.713,0,0,0,1.631-1V8.973A1.726,1.726,0,0,0,134.443,8a1.567,1.567,0,0,0-1.346.667A3.354,3.354,0,0,0,132.615,10.642Zm9.293,3.485a3,3,0,0,1-2.272-.917,3.4,3.4,0,0,1-.876-2.453v-.216a4.121,4.121,0,0,1,.39-1.825,3.045,3.045,0,0,1,1.092-1.257A2.745,2.745,0,0,1,141.762,7a2.572,2.572,0,0,1,2.082.882,3.82,3.82,0,0,1,.743,2.526V10.9h-4.653a2.441,2.441,0,0,0,.594,1.641,1.866,1.866,0,0,0,1.444.625,2.045,2.045,0,0,0,1.054-.254,2.647,2.647,0,0,0,.755-.673l.717.559A2.884,2.884,0,0,1,141.908,14.127Zm-.146-6.157a1.566,1.566,0,0,0-1.193.517,2.515,2.515,0,0,0-.6,1.45h3.44V9.849a2.237,2.237,0,0,0-.482-1.387A1.475,1.475,0,0,0,141.762,7.97Zm12.689,3.612h-3.872L149.709,14h-1.257l3.529-9.242h1.066L156.584,14h-1.25Zm-3.5-1h3.142l-1.574-4.323Zm10.867,2.736a2.494,2.494,0,0,1-2.012.806,2.135,2.135,0,0,1-1.673-.638,2.761,2.761,0,0,1-.581-1.888V7.132h1.174v4.437q0,1.562,1.27,1.562a1.758,1.758,0,0,0,1.79-1v-5h1.174V14H161.84Zm4.52-7.852V7.132h1.282V8.04h-1.282V12.3a.953.953,0,0,0,.171.62.721.721,0,0,0,.584.207,2.843,2.843,0,0,0,.559-.076V14a3.424,3.424,0,0,1-.9.126,1.462,1.462,0,0,1-1.187-.476,2.045,2.045,0,0,1-.4-1.352V8.04h-1.25V7.132h1.25V5.469Zm2.215,5.034a4.057,4.057,0,0,1,.4-1.815,2.959,2.959,0,0,1,1.1-1.244A3.007,3.007,0,0,1,171.666,7a2.9,2.9,0,0,1,2.269.971,3.736,3.736,0,0,1,.866,2.583v.083a4.092,4.092,0,0,1-.384,1.8,2.916,2.916,0,0,1-1.1,1.241,3.041,3.041,0,0,1-1.641.444,2.889,2.889,0,0,1-2.263-.971,3.718,3.718,0,0,1-.866-2.571Zm1.181.14a2.938,2.938,0,0,0,.53,1.834,1.8,1.8,0,0,0,2.841-.01,3.213,3.213,0,0,0,.527-1.965,2.933,2.933,0,0,0-.536-1.831,1.705,1.705,0,0,0-1.425-.7,1.686,1.686,0,0,0-1.4.692A3.189,3.189,0,0,0,169.73,10.642Zm6.259-.133a4.023,4.023,0,0,1,.749-2.542,2.548,2.548,0,0,1,3.872-.136V4.25h1.174V14h-1.079l-.057-.736a2.391,2.391,0,0,1-1.961.863,2.346,2.346,0,0,1-1.946-.978,4.069,4.069,0,0,1-.752-2.552Zm1.174.133a3.046,3.046,0,0,0,.482,1.828,1.56,1.56,0,0,0,1.333.66,1.713,1.713,0,0,0,1.631-1V8.973A1.726,1.726,0,0,0,178.991,8a1.567,1.567,0,0,0-1.346.667A3.354,3.354,0,0,0,177.163,10.642Zm9.293,3.485a3,3,0,0,1-2.272-.917,3.4,3.4,0,0,1-.876-2.453v-.216a4.121,4.121,0,0,1,.39-1.825,3.045,3.045,0,0,1,1.092-1.257A2.745,2.745,0,0,1,186.31,7a2.572,2.572,0,0,1,2.082.882,3.82,3.82,0,0,1,.743,2.526V10.9h-4.653a2.441,2.441,0,0,0,.594,1.641,1.866,1.866,0,0,0,1.444.625,2.045,2.045,0,0,0,1.054-.254,2.647,2.647,0,0,0,.755-.673l.717.559A2.884,2.884,0,0,1,186.456,14.127ZM186.31,7.97a1.566,1.566,0,0,0-1.193.517,2.515,2.515,0,0,0-.6,1.45h3.44V9.849a2.237,2.237,0,0,0-.482-1.387A1.475,1.475,0,0,0,186.31,7.97Zm8.182,4.208a.865.865,0,0,0-.359-.74,3.452,3.452,0,0,0-1.25-.454,5.912,5.912,0,0,1-1.416-.457,2.014,2.014,0,0,1-.774-.635,1.518,1.518,0,0,1-.251-.876,1.782,1.782,0,0,1,.714-1.428A2.789,2.789,0,0,1,192.981,7a2.87,2.87,0,0,1,1.895.6A1.915,1.915,0,0,1,195.6,9.15h-1.181a1.06,1.06,0,0,0-.409-.832,1.534,1.534,0,0,0-1.031-.349,1.605,1.605,0,0,0-1,.279.879.879,0,0,0-.362.73.712.712,0,0,0,.336.641,4.139,4.139,0,0,0,1.216.413,6.334,6.334,0,0,1,1.425.47,2.079,2.079,0,0,1,.809.657,1.615,1.615,0,0,1,.263.936,1.758,1.758,0,0,1-.736,1.476,3.089,3.089,0,0,1-1.911.555,3.459,3.459,0,0,1-1.46-.292,2.375,2.375,0,0,1-.993-.816,1.966,1.966,0,0,1-.359-1.133h1.174a1.216,1.216,0,0,0,.473.936,1.835,1.835,0,0,0,1.165.346,1.894,1.894,0,0,0,1.07-.27A.829.829,0,0,0,194.492,12.178Zm4.621-1.358-.736.768V14H197.2V4.25h1.174v5.9l.628-.755,2.139-2.26h1.428L199.9,10l2.983,4h-1.377Zm7.846-.571a9.814,9.814,0,0,1,.384-2.755,8,8,0,0,1,1.146-2.4,4.874,4.874,0,0,1,1.581-1.523l.241.774a5.056,5.056,0,0,0-1.52,2.171,9.411,9.411,0,0,0-.651,3.269l-.006.54a9.46,9.46,0,0,0,.9,4.253,5.079,5.079,0,0,0,1.282,1.688l-.241.717a5.031,5.031,0,0,1-1.612-1.574A8.823,8.823,0,0,1,206.959,10.249ZM217.382,14h-6.056v-.844l3.2-3.555a7.6,7.6,0,0,0,.981-1.311,2.188,2.188,0,0,0,.27-1.044,1.658,1.658,0,0,0-.438-1.187A1.531,1.531,0,0,0,214.17,5.6a1.814,1.814,0,0,0-1.362.5,1.9,1.9,0,0,0-.486,1.387h-1.174a2.726,2.726,0,0,1,.822-2.063,3.047,3.047,0,0,1,2.2-.787,2.928,2.928,0,0,1,2.038.676,2.306,2.306,0,0,1,.749,1.8,5.287,5.287,0,0,1-1.739,3.25l-2.476,2.685h4.64Zm7.04-3.942a5.371,5.371,0,0,1-.7,3.066,2.928,2.928,0,0,1-4.393.022,5.1,5.1,0,0,1-.736-2.929V8.649a5.251,5.251,0,0,1,.7-3.028,2.98,2.98,0,0,1,4.405-.035,5.068,5.068,0,0,1,.724,2.948Zm-1.174-1.606a4.3,4.3,0,0,0-.419-2.174A1.442,1.442,0,0,0,221.5,5.6a1.423,1.423,0,0,0-1.314.679,4.2,4.2,0,0,0-.425,2.088v1.879a4.372,4.372,0,0,0,.435,2.212,1.439,1.439,0,0,0,1.317.714,1.42,1.42,0,0,0,1.292-.673,4.214,4.214,0,0,0,.441-2.12ZM231.981,14h-6.056v-.844l3.2-3.555a7.6,7.6,0,0,0,.981-1.311,2.188,2.188,0,0,0,.27-1.044,1.658,1.658,0,0,0-.438-1.187A1.531,1.531,0,0,0,228.77,5.6a1.814,1.814,0,0,0-1.362.5,1.9,1.9,0,0,0-.486,1.387h-1.174a2.726,2.726,0,0,1,.822-2.063,3.047,3.047,0,0,1,2.2-.787,2.928,2.928,0,0,1,2.038.676,2.306,2.306,0,0,1,.749,1.8,5.287,5.287,0,0,1-1.739,3.25l-2.476,2.685h4.64Zm7.04-3.942a5.371,5.371,0,0,1-.7,3.066,2.928,2.928,0,0,1-4.393.022,5.1,5.1,0,0,1-.736-2.929V8.649a5.251,5.251,0,0,1,.7-3.028,2.98,2.98,0,0,1,4.405-.035,5.068,5.068,0,0,1,.724,2.948Zm-1.174-1.606a4.3,4.3,0,0,0-.419-2.174A1.442,1.442,0,0,0,236.1,5.6a1.423,1.423,0,0,0-1.314.679,4.2,4.2,0,0,0-.425,2.088v1.879a4.372,4.372,0,0,0,.435,2.212,1.439,1.439,0,0,0,1.317.714,1.42,1.42,0,0,0,1.292-.673,4.214,4.214,0,0,0,.441-2.12Zm5.51,1.86a9.819,9.819,0,0,1-.371,2.714,8.024,8.024,0,0,1-1.136,2.4,4.978,4.978,0,0,1-1.6,1.562L240,16.266a5.1,5.1,0,0,0,1.571-2.326,10.065,10.065,0,0,0,.606-3.5v-.2a10.449,10.449,0,0,0-.279-2.479,8.366,8.366,0,0,0-.778-2.053A4.743,4.743,0,0,0,240,4.288l.248-.717a4.959,4.959,0,0,1,1.6,1.549,8.041,8.041,0,0,1,1.136,2.393A10.045,10.045,0,0,1,243.356,10.312Z" transform="translate(12 177.415)" fill="#12263f"/>
          <g id="Grupo_62154" data-name="Grupo 62154">
            <rect id="Rectángulo_31214" data-name="Rectángulo 31214" width="553" height="171" fill="none"/>
            <g id="Grupo_62153" data-name="Grupo 62153" transform="translate(24 0)">
              <path id="Trazado_130997" data-name="Trazado 130997" d="M73.028,568.476H33.24L32.182,570.7a12.23,12.23,0,0,0,.325,11.153l1.107,2.014H63.27l76.2,58.934,10.511,28.153.792.172a11.623,11.623,0,0,0,12.214-5.024l.507-.78-12.012-36.786Z" transform="translate(-30.993 -515.549)" fill="#adddf7" stroke="#000" stroke-miterlimit="10" stroke-width="1"/>
              <path id="Trazado_130998" data-name="Trazado 130998" d="M190.877,568.476h-39.79l-1.058,2.223a12.23,12.23,0,0,0,.325,11.153l1.109,2.014h29.654l76.2,58.934,10.511,28.153.792.172a11.626,11.626,0,0,0,12.215-5.024l.505-.78-12.012-36.786Z" transform="translate(26.31 -515.549)" fill="#adddf7" stroke="#000" stroke-miterlimit="10" stroke-width="1"/>
              <path id="Trazado_130999" data-name="Trazado 130999" d="M306.842,568.476h-39.79l-1.058,2.223a12.229,12.229,0,0,0,.325,11.153l1.109,2.014h29.654l76.2,58.934,10.511,28.153.792.172A11.622,11.622,0,0,0,396.8,666.1l.507-.78-12.012-36.786Z" transform="translate(82.697 -515.549)" fill="#adddf7" stroke="#000" stroke-miterlimit="10" stroke-width="1"/>
              <line id="Línea_222" data-name="Línea 222" y2="107.356" transform="translate(121.239)" fill="none" stroke="#4e5ff9" stroke-miterlimit="10" stroke-width="1"/>
              <line id="Línea_223" data-name="Línea 223" y2="48.423" transform="translate(41.66)" fill="none" stroke="#4e5ff9" stroke-miterlimit="10" stroke-width="1"/>
              <text id="_4" data-name="4" transform="translate(75.954 14.588)" fill="#4e5ff9" font-size="13" font-family="Roboto-Regular, Roboto"><tspan x="0" y="0">4</tspan></text>
              <g id="Grupo_62144" data-name="Grupo 62144" transform="translate(88.802 8.018)">
                <line id="Línea_224" data-name="Línea 224" x2="21.632" y2="0.52" transform="translate(0 2.342)" fill="none" stroke="#4e5ff9" stroke-miterlimit="10" stroke-width="1"/>
                <path id="Trazado_131000" data-name="Trazado 131000" d="M104.686,543.984V538.26l10.236,3.213Z" transform="translate(-83.963 -538.26)" fill="#4e5ff9"/>
              </g>
              <g id="Grupo_62145" data-name="Grupo 62145" transform="translate(42.996 7.758)">
                <line id="Línea_225" data-name="Línea 225" x1="21.632" y2="0.52" transform="translate(9.328 2.342)" fill="none" stroke="#4e5ff9" stroke-miterlimit="10" stroke-width="1"/>
                <path id="Trazado_131001" data-name="Trazado 131001" d="M70.158,543.809v-5.724L59.922,541.3Z" transform="translate(-59.922 -538.085)" fill="#4e5ff9"/>
              </g>
              <g id="Grupo_62146" data-name="Grupo 62146" transform="translate(20.442 10.88)">
                <path id="Trazado_131002" data-name="Trazado 131002" d="M60.179,554.941H44.748l6.471-14.756Z" transform="translate(-44.748 -540.186)" fill="#e36c08"/>
                <rect id="Rectángulo_31262" data-name="Rectángulo 31262" width="2.674" height="19.35" transform="translate(6.379 13.883)" fill="#e36c08"/>
              </g>
              <g id="Grupo_62147" data-name="Grupo 62147" transform="translate(211.404 10.458)">
                <path id="Trazado_131003" data-name="Trazado 131003" d="M189.508,557.123l-12.6-8.914,13.805-8.307Z" transform="translate(-171.445 -539.902)" fill="#e36c08"/>
                <rect id="Rectángulo_31263" data-name="Rectángulo 31263" width="2.674" height="19.35" transform="matrix(0.816, 0.578, -0.578, 0.816, 11.177, 11.28)" fill="#e36c08"/>
              </g>
              <g id="Grupo_62148" data-name="Grupo 62148" transform="translate(444.146 32.477)">
                <path id="Trazado_131004" data-name="Trazado 131004" d="M342.435,570.146l-.24-15.429,14.855,6.24Z" transform="translate(-323.818 -554.717)" fill="#e36c08"/>
                <rect id="Rectángulo_31264" data-name="Rectángulo 31264" width="2.674" height="19.35" transform="translate(19.348 6.365) rotate(89.108)" fill="#e36c08"/>
              </g>
              <line id="Línea_226" data-name="Línea 226" x1="32.484" y2="44.501" transform="translate(219.245 5.717)" fill="none" stroke="#4e5ff9" stroke-miterlimit="10" stroke-width="1"/>
              <line id="Línea_227" data-name="Línea 227" x1="32.38" y2="43.462" transform="translate(298.723 65.801)" fill="none" stroke="#4e5ff9" stroke-miterlimit="10" stroke-width="1"/>
              <line id="Línea_228" data-name="Línea 228" x2="110.473" transform="translate(394.477 52.927)" fill="none" stroke="#4e5ff9" stroke-miterlimit="10" stroke-width="1"/>
              <line id="Línea_229" data-name="Línea 229" x2="30.995" transform="translate(473.955 113.246)" fill="none" stroke="#4e5ff9" stroke-miterlimit="10" stroke-width="1"/>
              <text id="_5" data-name="5" transform="translate(278.458 48.093)" fill="#4e5ff9" font-size="13" font-family="Roboto-Regular, Roboto"><tspan x="0" y="0">5</tspan></text>
              <g id="Grupo_62149" data-name="Grupo 62149" transform="translate(289.994 48.488)">
                <line id="Línea_230" data-name="Línea 230" x2="16.794" y2="13.645" fill="none" stroke="#4e5ff9" stroke-miterlimit="10" stroke-width="1"/>
                <path id="Trazado_131005" data-name="Trazado 131005" d="M235.749,577.3l3.5-4.528,6.132,8.8Z" transform="translate(-221.425 -561.948)" fill="#4e5ff9"/>
              </g>
              <g id="Grupo_62150" data-name="Grupo 62150" transform="translate(253.385 20.949)">
                <line id="Línea_231" data-name="Línea 231" x1="17.43" y1="12.823" transform="translate(7.593 5.429)" fill="none" stroke="#4e5ff9" stroke-miterlimit="10" stroke-width="1"/>
                <path id="Trazado_131006" data-name="Trazado 131006" d="M208.041,555.208l3.5-4.528-10.063-3.72Z" transform="translate(-201.48 -546.96)" fill="#4e5ff9"/>
              </g>
              <text id="_3" data-name="3" transform="translate(487.186 86.647)" fill="#4e5ff9" font-size="13" font-family="Roboto-Regular, Roboto"><tspan x="0" y="0">3</tspan></text>
              <g id="Grupo_62151" data-name="Grupo 62151" transform="translate(489.656 91.601)">
                <line id="Línea_232" data-name="Línea 232" y2="14.687" transform="translate(2.859)" fill="none" stroke="#4e5ff9" stroke-miterlimit="10" stroke-width="1"/>
                <path id="Trazado_131007" data-name="Trazado 131007" d="M360.451,603.909l5.724.015-3.249,7.783Z" transform="translate(-360.451 -589.921)" fill="#4e5ff9"/>
              </g>
              <g id="Grupo_62152" data-name="Grupo 62152" transform="translate(490.115 54.951)">
                <line id="Línea_233" data-name="Línea 233" y1="12.753" x2="0.465" transform="translate(2.4 7.101)" fill="none" stroke="#4e5ff9" stroke-miterlimit="10" stroke-width="1"/>
                <path id="Trazado_131008" data-name="Trazado 131008" d="M360.76,577.624l5.724.015-3.177-7.8Z" transform="translate(-360.76 -569.838)" fill="#4e5ff9"/>
              </g>
            </g>
          </g>
        </g>
        <g id="Grupo_60036" data-name="Grupo 60036" transform="translate(0)">
          <rect id="Rectángulo_30672" data-name="Rectángulo 30672" width="3" height="14" transform="translate(0 1)" fill="#fba321"/>
          <path id="Trazado_133998" data-name="Trazado 133998" d="M7.871-2.933A3.4,3.4,0,0,1,6.789-.67a3.547,3.547,0,0,1-2.422.8A3.257,3.257,0,0,1,1.742-1.047,4.724,4.724,0,0,1,.755-4.189v-.889a5.266,5.266,0,0,1,.46-2.266,3.438,3.438,0,0,1,1.3-1.5,3.632,3.632,0,0,1,1.955-.524,3.34,3.34,0,0,1,2.361.822A3.441,3.441,0,0,1,7.871-6.271H6.646a2.655,2.655,0,0,0-.689-1.6,2.084,2.084,0,0,0-1.482-.5,2.181,2.181,0,0,0-1.831.864A3.966,3.966,0,0,0,1.98-5.05v.9a4.077,4.077,0,0,0,.628,2.4A2.031,2.031,0,0,0,4.367-.87a2.345,2.345,0,0,0,1.558-.46,2.554,2.554,0,0,0,.72-1.6ZM9.039-3.5a4.057,4.057,0,0,1,.4-1.815,2.96,2.96,0,0,1,1.1-1.244A3.007,3.007,0,0,1,12.156-7a2.9,2.9,0,0,1,2.269.971,3.736,3.736,0,0,1,.866,2.583v.083a4.092,4.092,0,0,1-.384,1.8,2.916,2.916,0,0,1-1.1,1.241,3.041,3.041,0,0,1-1.641.444A2.889,2.889,0,0,1,9.906-.844a3.718,3.718,0,0,1-.866-2.571Zm1.181.14a2.938,2.938,0,0,0,.53,1.834,1.7,1.7,0,0,0,1.419.692,1.686,1.686,0,0,0,1.422-.7A3.213,3.213,0,0,0,14.117-3.5a2.933,2.933,0,0,0-.536-1.831,1.705,1.705,0,0,0-1.425-.7,1.686,1.686,0,0,0-1.4.692A3.189,3.189,0,0,0,10.22-3.358Zm8.138-5.173v1.663H19.64v.908H18.357V-1.7a.953.953,0,0,0,.171.62.721.721,0,0,0,.584.207,2.843,2.843,0,0,0,.559-.076V0a3.424,3.424,0,0,1-.9.126,1.462,1.462,0,0,1-1.187-.476,2.045,2.045,0,0,1-.4-1.352V-5.96h-1.25v-.908h1.25V-8.531ZM25.251,0a2.467,2.467,0,0,1-.165-.724,2.62,2.62,0,0,1-1.955.851,2.424,2.424,0,0,1-1.666-.574A1.859,1.859,0,0,1,20.814-1.9a1.942,1.942,0,0,1,.816-1.666,3.846,3.846,0,0,1,2.295-.594h1.143V-4.7a1.319,1.319,0,0,0-.368-.981,1.48,1.48,0,0,0-1.085-.365,1.712,1.712,0,0,0-1.054.317.935.935,0,0,0-.425.768H20.954a1.621,1.621,0,0,1,.365-.993,2.491,2.491,0,0,1,.99-.759A3.331,3.331,0,0,1,23.683-7a2.715,2.715,0,0,1,1.86.594,2.141,2.141,0,0,1,.7,1.635v3.161a3.865,3.865,0,0,0,.241,1.5V0ZM23.3-.9a2.064,2.064,0,0,0,1.047-.286,1.728,1.728,0,0,0,.717-.743V-3.333h-.92q-2.158,0-2.158,1.263a1.069,1.069,0,0,0,.368.863A1.415,1.415,0,0,0,23.3-.9Zm9.274.9H31.4V-9.75h1.174Zm3.155,0H34.557V-6.868h1.174Zm-1.27-8.69a.7.7,0,0,1,.175-.482.655.655,0,0,1,.517-.2.666.666,0,0,1,.521.2.694.694,0,0,1,.178.482.671.671,0,0,1-.178.476.678.678,0,0,1-.521.19.667.667,0,0,1-.517-.19A.678.678,0,0,1,34.461-8.69Zm4.259,1.822L38.759-6A2.5,2.5,0,0,1,40.815-7q2.177,0,2.2,2.457V0H41.837V-4.545a1.581,1.581,0,0,0-.34-1.1A1.361,1.361,0,0,0,40.46-6a1.7,1.7,0,0,0-1,.3,2.069,2.069,0,0,0-.673.8V0H37.61V-6.868Zm8.912,7A3,3,0,0,1,45.36-.79a3.4,3.4,0,0,1-.876-2.453v-.216a4.121,4.121,0,0,1,.39-1.825,3.045,3.045,0,0,1,1.092-1.257A2.745,2.745,0,0,1,47.487-7a2.572,2.572,0,0,1,2.082.882,3.82,3.82,0,0,1,.743,2.526V-3.1H45.659a2.441,2.441,0,0,0,.594,1.641A1.866,1.866,0,0,0,47.7-.832a2.045,2.045,0,0,0,1.054-.254,2.648,2.648,0,0,0,.755-.673l.717.559A2.884,2.884,0,0,1,47.633.127ZM47.487-6.03a1.566,1.566,0,0,0-1.193.517,2.515,2.515,0,0,0-.6,1.45h3.44v-.089a2.237,2.237,0,0,0-.482-1.387A1.475,1.475,0,0,0,47.487-6.03ZM55.91,0a2.467,2.467,0,0,1-.165-.724A2.62,2.62,0,0,1,53.79.127a2.424,2.424,0,0,1-1.666-.574A1.859,1.859,0,0,1,51.473-1.9a1.942,1.942,0,0,1,.816-1.666,3.846,3.846,0,0,1,2.295-.594h1.143V-4.7a1.319,1.319,0,0,0-.368-.981,1.48,1.48,0,0,0-1.085-.365,1.712,1.712,0,0,0-1.054.317.935.935,0,0,0-.425.768H51.613a1.621,1.621,0,0,1,.365-.993,2.491,2.491,0,0,1,.99-.759A3.331,3.331,0,0,1,54.342-7,2.715,2.715,0,0,1,56.2-6.4a2.141,2.141,0,0,1,.7,1.635v3.161a3.865,3.865,0,0,0,.241,1.5V0ZM53.961-.9a2.064,2.064,0,0,0,1.047-.286,1.728,1.728,0,0,0,.717-.743V-3.333h-.92q-2.158,0-2.158,1.263a1.069,1.069,0,0,0,.368.863A1.415,1.415,0,0,0,53.961-.9Zm6.056.9H58.843V-9.75h1.174Z" transform="translate(10 12)" fill="#12263f"/>
        </g>
      </g>
      <rect id="Rectángulo_30773" data-name="Rectángulo 30773" width="553" height="226" transform="translate(600 1100)" fill="none"/>
    </g>
  </g>
</svg>
