<svg xmlns="http://www.w3.org/2000/svg" width="505" height="258.858" viewBox="0 0 505 258.858">
  <g id="Grupo_62901" data-name="Grupo 62901" transform="translate(-810 -7515)">
    <g id="Grupo_62186" data-name="Grupo 62186" transform="translate(810 7515)">
      <g id="Grupo_59588" data-name="Grupo 59588" transform="translate(0)">
        <g id="Grupo_62184" data-name="Grupo 62184">
          <rect id="Rectángulo_29951" data-name="Rectángulo 29951" width="505" height="28.137" transform="translate(0 230.72)" fill="#e8e8e8"/>
          <path id="Trazado_134005" data-name="Trazado 134005" d="M8.176,14H6.951L2.3,6.878V14H1.073V4.758H2.3l4.666,7.154V4.758H8.176Zm1.669-3.5a4.057,4.057,0,0,1,.4-1.815,2.96,2.96,0,0,1,1.1-1.244A3.007,3.007,0,0,1,12.962,7a2.9,2.9,0,0,1,2.269.971A3.736,3.736,0,0,1,16.1,10.56v.083a4.092,4.092,0,0,1-.384,1.8,2.916,2.916,0,0,1-1.1,1.241,3.041,3.041,0,0,1-1.641.444,2.889,2.889,0,0,1-2.263-.971,3.718,3.718,0,0,1-.866-2.571Zm1.181.14a2.938,2.938,0,0,0,.53,1.834,1.8,1.8,0,0,0,2.841-.01,3.213,3.213,0,0,0,.527-1.965,2.933,2.933,0,0,0-.536-1.831,1.705,1.705,0,0,0-1.425-.7,1.686,1.686,0,0,0-1.4.692A3.189,3.189,0,0,0,11.026,10.642Zm8.138-5.173V7.132h1.282V8.04H19.164V12.3a.953.953,0,0,0,.171.62.721.721,0,0,0,.584.207,2.843,2.843,0,0,0,.559-.076V14a3.424,3.424,0,0,1-.9.126,1.462,1.462,0,0,1-1.187-.476,2.045,2.045,0,0,1-.4-1.352V8.04h-1.25V7.132h1.25V5.469ZM26.057,14a2.467,2.467,0,0,1-.165-.724,2.62,2.62,0,0,1-1.955.851,2.424,2.424,0,0,1-1.666-.574A1.859,1.859,0,0,1,21.62,12.1a1.942,1.942,0,0,1,.816-1.666,3.846,3.846,0,0,1,2.295-.594h1.143V9.3a1.319,1.319,0,0,0-.368-.981,1.48,1.48,0,0,0-1.085-.365,1.712,1.712,0,0,0-1.054.317.935.935,0,0,0-.425.768H21.76a1.621,1.621,0,0,1,.365-.993,2.491,2.491,0,0,1,.99-.759A3.331,3.331,0,0,1,24.489,7a2.715,2.715,0,0,1,1.86.594,2.141,2.141,0,0,1,.7,1.635v3.161a3.865,3.865,0,0,0,.241,1.5V14Zm-1.949-.9a2.064,2.064,0,0,0,1.047-.286,1.728,1.728,0,0,0,.717-.743V10.667h-.92q-2.158,0-2.158,1.263a1.069,1.069,0,0,0,.368.863A1.415,1.415,0,0,0,24.108,13.1Zm4.805.279a.735.735,0,0,1,.181-.508.689.689,0,0,1,.543-.2.71.71,0,0,1,.549.2.721.721,0,0,1,.187.508.681.681,0,0,1-.187.489.723.723,0,0,1-.549.2.653.653,0,0,1-.724-.686ZM37.02,14H35.8V4.758H37.02Zm3.148-6.868.032.762A2.536,2.536,0,0,1,42.237,7a1.964,1.964,0,0,1,1.961,1.1,2.6,2.6,0,0,1,.892-.8,2.634,2.634,0,0,1,1.3-.3q2.26,0,2.3,2.393V14H47.512V9.468a1.577,1.577,0,0,0-.336-1.1A1.482,1.482,0,0,0,46.046,8a1.557,1.557,0,0,0-1.085.39,1.584,1.584,0,0,0-.5,1.051V14H43.278V9.5A1.31,1.31,0,0,0,41.812,8a1.571,1.571,0,0,0-1.581.984V14H39.057V7.132ZM54.7,14a2.467,2.467,0,0,1-.165-.724,2.62,2.62,0,0,1-1.955.851,2.424,2.424,0,0,1-1.666-.574,1.859,1.859,0,0,1-.651-1.457,1.942,1.942,0,0,1,.816-1.666,3.846,3.846,0,0,1,2.295-.594h1.143V9.3a1.319,1.319,0,0,0-.368-.981,1.48,1.48,0,0,0-1.085-.365,1.712,1.712,0,0,0-1.054.317.935.935,0,0,0-.425.768H50.4a1.621,1.621,0,0,1,.365-.993,2.491,2.491,0,0,1,.99-.759A3.331,3.331,0,0,1,53.13,7a2.715,2.715,0,0,1,1.86.594,2.141,2.141,0,0,1,.7,1.635v3.161a3.865,3.865,0,0,0,.241,1.5V14Zm-1.949-.9a2.064,2.064,0,0,0,1.047-.286,1.728,1.728,0,0,0,.717-.743V10.667h-.92q-2.158,0-2.158,1.263a1.069,1.069,0,0,0,.368.863A1.415,1.415,0,0,0,52.749,13.1Zm4.5-2.6a4.037,4.037,0,0,1,.743-2.555,2.56,2.56,0,0,1,3.929-.06l.057-.762h1.073v6.7a2.794,2.794,0,0,1-.79,2.1,2.916,2.916,0,0,1-2.123.768,3.532,3.532,0,0,1-1.454-.317,2.5,2.5,0,0,1-1.085-.87l.609-.7a2.3,2.3,0,0,0,1.847.933,1.8,1.8,0,0,0,1.336-.482,1.844,1.844,0,0,0,.479-1.358v-.59a2.414,2.414,0,0,1-1.923.813A2.346,2.346,0,0,1,58,13.156,4.244,4.244,0,0,1,57.25,10.509Zm1.181.133a3.08,3.08,0,0,0,.476,1.825,1.547,1.547,0,0,0,1.333.663,1.72,1.72,0,0,0,1.631-1.009V8.985A1.74,1.74,0,0,0,60.252,8a1.561,1.561,0,0,0-1.339.667A3.354,3.354,0,0,0,58.43,10.642Zm9.242,3.485A3,3,0,0,1,65.4,13.21a3.4,3.4,0,0,1-.876-2.453v-.216a4.121,4.121,0,0,1,.39-1.825,3.045,3.045,0,0,1,1.092-1.257A2.745,2.745,0,0,1,67.526,7a2.572,2.572,0,0,1,2.082.882,3.82,3.82,0,0,1,.743,2.526V10.9H65.7a2.441,2.441,0,0,0,.594,1.641,1.866,1.866,0,0,0,1.444.625,2.045,2.045,0,0,0,1.054-.254,2.648,2.648,0,0,0,.755-.673l.717.559A2.884,2.884,0,0,1,67.672,14.127ZM67.526,7.97a1.566,1.566,0,0,0-1.193.517,2.515,2.515,0,0,0-.6,1.45h3.44V9.849a2.237,2.237,0,0,0-.482-1.387A1.475,1.475,0,0,0,67.526,7.97Zm5.294-.838L72.858,8A2.5,2.5,0,0,1,74.915,7q2.177,0,2.2,2.457V14H75.937V9.455a1.581,1.581,0,0,0-.34-1.1A1.361,1.361,0,0,0,74.56,8a1.7,1.7,0,0,0-1,.3,2.069,2.069,0,0,0-.673.8V14H71.709V7.132Zm12.13,7a3,3,0,0,1-2.272-.917,3.4,3.4,0,0,1-.876-2.453v-.216a4.121,4.121,0,0,1,.39-1.825,3.045,3.045,0,0,1,1.092-1.257A2.745,2.745,0,0,1,84.8,7a2.572,2.572,0,0,1,2.082.882,3.82,3.82,0,0,1,.743,2.526V10.9H82.977a2.441,2.441,0,0,0,.594,1.641,1.866,1.866,0,0,0,1.444.625,2.045,2.045,0,0,0,1.054-.254,2.648,2.648,0,0,0,.755-.673l.717.559A2.884,2.884,0,0,1,84.951,14.127ZM84.8,7.97a1.566,1.566,0,0,0-1.193.517,2.515,2.515,0,0,0-.6,1.45h3.44V9.849a2.237,2.237,0,0,0-.482-1.387A1.475,1.475,0,0,0,84.8,7.97Zm6.487,1.669,1.523-2.507h1.371l-2.247,3.4L94.256,14H92.9l-1.587-2.571L89.724,14H88.359l2.317-3.472-2.247-3.4h1.358Zm5.732-4.17V7.132h1.282V8.04H97.024V12.3a.953.953,0,0,0,.171.62.721.721,0,0,0,.584.207,2.843,2.843,0,0,0,.559-.076V14a3.424,3.424,0,0,1-.9.126,1.462,1.462,0,0,1-1.187-.476,2.045,2.045,0,0,1-.4-1.352V8.04H94.6V7.132h1.25V5.469ZM103,8.186a3.519,3.519,0,0,0-.578-.044,1.547,1.547,0,0,0-1.568.984V14H99.677V7.132h1.143l.019.793A1.829,1.829,0,0,1,102.477,7a1.2,1.2,0,0,1,.521.089ZM108.063,14a2.467,2.467,0,0,1-.165-.724,2.62,2.62,0,0,1-1.955.851,2.424,2.424,0,0,1-1.666-.574,1.859,1.859,0,0,1-.651-1.457,1.942,1.942,0,0,1,.816-1.666,3.846,3.846,0,0,1,2.295-.594h1.143V9.3a1.319,1.319,0,0,0-.368-.981,1.48,1.48,0,0,0-1.085-.365,1.712,1.712,0,0,0-1.054.317.935.935,0,0,0-.425.768h-1.181a1.621,1.621,0,0,1,.365-.993,2.491,2.491,0,0,1,.99-.759A3.331,3.331,0,0,1,106.495,7a2.715,2.715,0,0,1,1.86.594,2.141,2.141,0,0,1,.7,1.635v3.161a3.865,3.865,0,0,0,.241,1.5V14Zm-1.949-.9a2.064,2.064,0,0,0,1.047-.286,1.728,1.728,0,0,0,.717-.743V10.667h-.92q-2.158,0-2.158,1.263a1.069,1.069,0,0,0,.368.863A1.415,1.415,0,0,0,106.114,13.1Zm6.056.9h-1.181V7.132h1.181Zm.013-9.744H113.6l-1.7,1.866-.946,0Zm1.638,6.252a4.023,4.023,0,0,1,.749-2.542,2.548,2.548,0,0,1,3.872-.136V4.25h1.174V14h-1.079l-.057-.736a2.391,2.391,0,0,1-1.961.863,2.346,2.346,0,0,1-1.946-.978,4.069,4.069,0,0,1-.752-2.552Zm1.174.133a3.046,3.046,0,0,0,.482,1.828,1.56,1.56,0,0,0,1.333.66,1.713,1.713,0,0,0,1.631-1V8.973A1.726,1.726,0,0,0,116.822,8a1.567,1.567,0,0,0-1.346.667A3.354,3.354,0,0,0,114.994,10.642ZM125.677,14a2.467,2.467,0,0,1-.165-.724,2.62,2.62,0,0,1-1.955.851,2.424,2.424,0,0,1-1.666-.574,1.859,1.859,0,0,1-.651-1.457,1.942,1.942,0,0,1,.816-1.666,3.846,3.846,0,0,1,2.295-.594h1.143V9.3a1.319,1.319,0,0,0-.368-.981,1.48,1.48,0,0,0-1.085-.365,1.712,1.712,0,0,0-1.054.317.935.935,0,0,0-.425.768H121.38a1.621,1.621,0,0,1,.365-.993,2.491,2.491,0,0,1,.99-.759A3.331,3.331,0,0,1,124.109,7a2.715,2.715,0,0,1,1.86.594,2.141,2.141,0,0,1,.7,1.635v3.161a3.865,3.865,0,0,0,.241,1.5V14Zm-1.949-.9a2.064,2.064,0,0,0,1.047-.286,1.728,1.728,0,0,0,.717-.743V10.667h-.92q-2.158,0-2.158,1.263a1.069,1.069,0,0,0,.368.863A1.415,1.415,0,0,0,123.729,13.1Zm7.712-2.6a4.023,4.023,0,0,1,.749-2.542,2.548,2.548,0,0,1,3.872-.136V4.25h1.174V14h-1.079l-.057-.736a2.391,2.391,0,0,1-1.961.863,2.346,2.346,0,0,1-1.946-.978,4.069,4.069,0,0,1-.752-2.552Zm1.174.133a3.046,3.046,0,0,0,.482,1.828,1.56,1.56,0,0,0,1.333.66,1.713,1.713,0,0,0,1.631-1V8.973A1.726,1.726,0,0,0,134.443,8a1.567,1.567,0,0,0-1.346.667A3.354,3.354,0,0,0,132.615,10.642Zm9.293,3.485a3,3,0,0,1-2.272-.917,3.4,3.4,0,0,1-.876-2.453v-.216a4.121,4.121,0,0,1,.39-1.825,3.045,3.045,0,0,1,1.092-1.257A2.745,2.745,0,0,1,141.762,7a2.572,2.572,0,0,1,2.082.882,3.82,3.82,0,0,1,.743,2.526V10.9h-4.653a2.441,2.441,0,0,0,.594,1.641,1.866,1.866,0,0,0,1.444.625,2.045,2.045,0,0,0,1.054-.254,2.647,2.647,0,0,0,.755-.673l.717.559A2.884,2.884,0,0,1,141.908,14.127Zm-.146-6.157a1.566,1.566,0,0,0-1.193.517,2.515,2.515,0,0,0-.6,1.45h3.44V9.849a2.237,2.237,0,0,0-.482-1.387A1.475,1.475,0,0,0,141.762,7.97Zm12.689,3.612h-3.872L149.709,14h-1.257l3.529-9.242h1.066L156.584,14h-1.25Zm-3.5-1h3.142l-1.574-4.323Zm10.867,2.736a2.494,2.494,0,0,1-2.012.806,2.135,2.135,0,0,1-1.673-.638,2.761,2.761,0,0,1-.581-1.888V7.132h1.174v4.437q0,1.562,1.27,1.562a1.758,1.758,0,0,0,1.79-1v-5h1.174V14H161.84Zm4.52-7.852V7.132h1.282V8.04h-1.282V12.3a.953.953,0,0,0,.171.62.721.721,0,0,0,.584.207,2.843,2.843,0,0,0,.559-.076V14a3.424,3.424,0,0,1-.9.126,1.462,1.462,0,0,1-1.187-.476,2.045,2.045,0,0,1-.4-1.352V8.04h-1.25V7.132h1.25V5.469Zm2.215,5.034a4.057,4.057,0,0,1,.4-1.815,2.959,2.959,0,0,1,1.1-1.244A3.007,3.007,0,0,1,171.666,7a2.9,2.9,0,0,1,2.269.971,3.736,3.736,0,0,1,.866,2.583v.083a4.092,4.092,0,0,1-.384,1.8,2.916,2.916,0,0,1-1.1,1.241,3.041,3.041,0,0,1-1.641.444,2.889,2.889,0,0,1-2.263-.971,3.718,3.718,0,0,1-.866-2.571Zm1.181.14a2.938,2.938,0,0,0,.53,1.834,1.8,1.8,0,0,0,2.841-.01,3.213,3.213,0,0,0,.527-1.965,2.933,2.933,0,0,0-.536-1.831,1.705,1.705,0,0,0-1.425-.7,1.686,1.686,0,0,0-1.4.692A3.189,3.189,0,0,0,169.73,10.642Zm6.259-.133a4.023,4.023,0,0,1,.749-2.542,2.548,2.548,0,0,1,3.872-.136V4.25h1.174V14h-1.079l-.057-.736a2.391,2.391,0,0,1-1.961.863,2.346,2.346,0,0,1-1.946-.978,4.069,4.069,0,0,1-.752-2.552Zm1.174.133a3.046,3.046,0,0,0,.482,1.828,1.56,1.56,0,0,0,1.333.66,1.713,1.713,0,0,0,1.631-1V8.973A1.726,1.726,0,0,0,178.991,8a1.567,1.567,0,0,0-1.346.667A3.354,3.354,0,0,0,177.163,10.642Zm9.293,3.485a3,3,0,0,1-2.272-.917,3.4,3.4,0,0,1-.876-2.453v-.216a4.121,4.121,0,0,1,.39-1.825,3.045,3.045,0,0,1,1.092-1.257A2.745,2.745,0,0,1,186.31,7a2.572,2.572,0,0,1,2.082.882,3.82,3.82,0,0,1,.743,2.526V10.9h-4.653a2.441,2.441,0,0,0,.594,1.641,1.866,1.866,0,0,0,1.444.625,2.045,2.045,0,0,0,1.054-.254,2.647,2.647,0,0,0,.755-.673l.717.559A2.884,2.884,0,0,1,186.456,14.127ZM186.31,7.97a1.566,1.566,0,0,0-1.193.517,2.515,2.515,0,0,0-.6,1.45h3.44V9.849a2.237,2.237,0,0,0-.482-1.387A1.475,1.475,0,0,0,186.31,7.97Zm8.182,4.208a.865.865,0,0,0-.359-.74,3.452,3.452,0,0,0-1.25-.454,5.912,5.912,0,0,1-1.416-.457,2.014,2.014,0,0,1-.774-.635,1.518,1.518,0,0,1-.251-.876,1.782,1.782,0,0,1,.714-1.428A2.789,2.789,0,0,1,192.981,7a2.87,2.87,0,0,1,1.895.6A1.915,1.915,0,0,1,195.6,9.15h-1.181a1.06,1.06,0,0,0-.409-.832,1.534,1.534,0,0,0-1.031-.349,1.605,1.605,0,0,0-1,.279.879.879,0,0,0-.362.73.712.712,0,0,0,.336.641,4.139,4.139,0,0,0,1.216.413,6.334,6.334,0,0,1,1.425.47,2.079,2.079,0,0,1,.809.657,1.615,1.615,0,0,1,.263.936,1.758,1.758,0,0,1-.736,1.476,3.089,3.089,0,0,1-1.911.555,3.459,3.459,0,0,1-1.46-.292,2.375,2.375,0,0,1-.993-.816,1.966,1.966,0,0,1-.359-1.133h1.174a1.216,1.216,0,0,0,.473.936,1.835,1.835,0,0,0,1.165.346,1.894,1.894,0,0,0,1.07-.27A.829.829,0,0,0,194.492,12.178Zm4.621-1.358-.736.768V14H197.2V4.25h1.174v5.9l.628-.755,2.139-2.26h1.428L199.9,10l2.983,4h-1.377Zm7.846-.571a9.814,9.814,0,0,1,.384-2.755,8,8,0,0,1,1.146-2.4,4.874,4.874,0,0,1,1.581-1.523l.241.774a5.056,5.056,0,0,0-1.52,2.171,9.411,9.411,0,0,0-.651,3.269l-.006.54a9.46,9.46,0,0,0,.9,4.253,5.079,5.079,0,0,0,1.282,1.688l-.241.717a5.031,5.031,0,0,1-1.612-1.574A8.823,8.823,0,0,1,206.959,10.249ZM217.382,14h-6.056v-.844l3.2-3.555a7.6,7.6,0,0,0,.981-1.311,2.188,2.188,0,0,0,.27-1.044,1.658,1.658,0,0,0-.438-1.187A1.531,1.531,0,0,0,214.17,5.6a1.814,1.814,0,0,0-1.362.5,1.9,1.9,0,0,0-.486,1.387h-1.174a2.726,2.726,0,0,1,.822-2.063,3.047,3.047,0,0,1,2.2-.787,2.928,2.928,0,0,1,2.038.676,2.306,2.306,0,0,1,.749,1.8,5.287,5.287,0,0,1-1.739,3.25l-2.476,2.685h4.64Zm7.04-3.942a5.371,5.371,0,0,1-.7,3.066,2.928,2.928,0,0,1-4.393.022,5.1,5.1,0,0,1-.736-2.929V8.649a5.251,5.251,0,0,1,.7-3.028,2.98,2.98,0,0,1,4.405-.035,5.068,5.068,0,0,1,.724,2.948Zm-1.174-1.606a4.3,4.3,0,0,0-.419-2.174A1.442,1.442,0,0,0,221.5,5.6a1.423,1.423,0,0,0-1.314.679,4.2,4.2,0,0,0-.425,2.088v1.879a4.372,4.372,0,0,0,.435,2.212,1.439,1.439,0,0,0,1.317.714,1.42,1.42,0,0,0,1.292-.673,4.214,4.214,0,0,0,.441-2.12ZM231.981,14h-6.056v-.844l3.2-3.555a7.6,7.6,0,0,0,.981-1.311,2.188,2.188,0,0,0,.27-1.044,1.658,1.658,0,0,0-.438-1.187A1.531,1.531,0,0,0,228.77,5.6a1.814,1.814,0,0,0-1.362.5,1.9,1.9,0,0,0-.486,1.387h-1.174a2.726,2.726,0,0,1,.822-2.063,3.047,3.047,0,0,1,2.2-.787,2.928,2.928,0,0,1,2.038.676,2.306,2.306,0,0,1,.749,1.8,5.287,5.287,0,0,1-1.739,3.25l-2.476,2.685h4.64Zm7.04-3.942a5.371,5.371,0,0,1-.7,3.066,2.928,2.928,0,0,1-4.393.022,5.1,5.1,0,0,1-.736-2.929V8.649a5.251,5.251,0,0,1,.7-3.028,2.98,2.98,0,0,1,4.405-.035,5.068,5.068,0,0,1,.724,2.948Zm-1.174-1.606a4.3,4.3,0,0,0-.419-2.174A1.442,1.442,0,0,0,236.1,5.6a1.423,1.423,0,0,0-1.314.679,4.2,4.2,0,0,0-.425,2.088v1.879a4.372,4.372,0,0,0,.435,2.212,1.439,1.439,0,0,0,1.317.714,1.42,1.42,0,0,0,1.292-.673,4.214,4.214,0,0,0,.441-2.12Zm5.51,1.86a9.819,9.819,0,0,1-.371,2.714,8.024,8.024,0,0,1-1.136,2.4,4.978,4.978,0,0,1-1.6,1.562L240,16.266a5.1,5.1,0,0,0,1.571-2.326,10.065,10.065,0,0,0,.606-3.5v-.2a10.449,10.449,0,0,0-.279-2.479,8.366,8.366,0,0,0-.778-2.053A4.743,4.743,0,0,0,240,4.288l.248-.717a4.959,4.959,0,0,1,1.6,1.549,8.041,8.041,0,0,1,1.136,2.393A10.045,10.045,0,0,1,243.356,10.312Z" transform="translate(12 237)" fill="#12263f"/>
          <path id="Trazado_131065" data-name="Trazado 131065" d="M0,0H505V231.135H0Z" fill="none"/>
          <g id="Grupo_62185" data-name="Grupo 62185" transform="translate(36.59 6.177)">
            <text id="_30" data-name="30" transform="translate(130.908 211.823)" fill="#4e5ff9" font-size="15" font-family="Roboto-Regular, Roboto"><tspan x="0" y="0">30</tspan></text>
            <text id="_30-2" data-name="30" transform="translate(194.989 211.823)" fill="#4e5ff9" font-size="15" font-family="Roboto-Regular, Roboto"><tspan x="0" y="0">30</tspan></text>
            <text id="_30-3" data-name="30" transform="translate(264.474 211.823)" fill="#4e5ff9" font-size="15" font-family="Roboto-Regular, Roboto"><tspan x="0" y="0">30</tspan></text>
            <text id="_40" data-name=" 40" transform="translate(45.211 211.822)" fill="#4e5ff9" font-size="15" font-family="Roboto-Regular, Roboto"><tspan x="0" y="0" xml:space="preserve"> 40</tspan></text>
            <text id="_40-2" data-name=" 40" transform="translate(333.959 211.822)" fill="#4e5ff9" font-size="15" font-family="Roboto-Regular, Roboto"><tspan x="0" y="0" xml:space="preserve"> 40</tspan></text>
            <g id="Rectángulo_31266" data-name="Rectángulo 31266" fill="#f2f2f3" stroke="#000" stroke-miterlimit="10" stroke-width="1">
              <rect width="413.82" height="167.638" stroke="none"/>
              <rect x="0.5" y="0.5" width="412.82" height="166.638" fill="none"/>
            </g>
            <g id="Grupo_62172" data-name="Grupo 62172" transform="translate(38.717 27.366)">
              <g id="Trazado_131053" data-name="Trazado 131053" transform="translate(-1287.3 -249.497)" fill="#fff" stroke-miterlimit="10">
                <path d="M 1321.109375 365.8195190429688 C 1311.275512695312 360.2423706054688 1302.996826171875 352.072509765625 1297.145385742188 342.1639099121094 C 1294.14453125 337.0824584960938 1291.824462890625 331.6114807128906 1290.24951171875 325.9029541015625 C 1288.624145507812 320.0114135742188 1287.800048828125 313.8876647949219 1287.800048828125 307.7018127441406 C 1287.800048828125 301.6221008300781 1288.596801757812 295.5997924804688 1290.168212890625 289.8021850585938 C 1291.691040039062 284.18359375 1293.936645507812 278.7884521484375 1296.842407226562 273.7666625976562 C 1302.50390625 263.9824829101562 1310.543579101562 255.8331451416016 1320.114135742188 250.1719207763672 L 1333.549072265625 271.2315673828125 C 1320.307250976562 278.3444519042969 1312.1044921875 292.2669982910156 1312.1044921875 307.7018127441406 C 1312.1044921875 322.6232299804688 1319.911743164062 336.3340759277344 1332.511962890625 343.6047668457031 L 1321.109375 365.8195190429688 Z" stroke="none"/>
                <path d="M 1319.95361328125 250.8499450683594 C 1310.639404296875 256.4564208984375 1302.811645507812 264.448974609375 1297.275146484375 274.0170593261719 C 1294.39111328125 279.0013427734375 1292.162353515625 284.3562316894531 1290.650756835938 289.9329833984375 C 1289.090942382812 295.68798828125 1288.300048828125 301.666259765625 1288.300048828125 307.7018127441406 C 1288.300048828125 313.8427429199219 1289.1181640625 319.9217529296875 1290.731567382812 325.7699584960938 C 1292.294677734375 331.4360046386719 1294.597534179688 336.8661804199219 1297.575927734375 341.90966796875 C 1303.29296875 351.5906677246094 1311.344116210938 359.598876953125 1320.903564453125 365.12548828125 L 1331.85107421875 343.7973937988281 C 1319.338012695312 336.3785095214844 1311.6044921875 322.6388244628906 1311.6044921875 307.7018127441406 C 1311.6044921875 292.2662658691406 1319.712646484375 278.3242797851562 1332.839599609375 271.0491027832031 L 1319.95361328125 250.8499450683594 M 1320.276611328125 249.4969787597656 L 1334.262451171875 271.4201049804688 C 1321.419677734375 278.0966186523438 1312.6044921875 291.8305969238281 1312.6044921875 307.7018127441406 C 1312.6044921875 323.1207275390625 1320.922607421875 336.5333251953125 1333.175537109375 343.4070129394531 L 1321.317138671875 366.5097045898438 C 1301.067138671875 355.242431640625 1287.300048828125 333.1354675292969 1287.300048828125 307.7018127441406 C 1287.300048828125 282.7071838378906 1300.60009765625 260.9365234375 1320.276611328125 249.4969787597656 Z" stroke="none" fill="#000"/>
              </g>
            </g>
            <g id="Grupo_62173" data-name="Grupo 62173" transform="translate(328.782 27.366)">
              <g id="Trazado_131054" data-name="Trazado 131054" transform="translate(-1462.386 -249.497)" fill="#fff" stroke-miterlimit="10">
                <path d="M 1475.5390625 365.8195190429688 L 1464.13623046875 343.6047668457031 C 1476.736694335938 336.333984375 1484.5439453125 322.6231384277344 1484.5439453125 307.7018127441406 C 1484.5439453125 292.2671203613281 1476.341186523438 278.3445739746094 1463.099365234375 271.2315979003906 L 1476.534301757812 250.1719207763672 C 1486.104858398438 255.8331451416016 1494.14453125 263.9824829101562 1499.806030273438 273.7666625976562 C 1502.711791992188 278.7884521484375 1504.957397460938 284.18359375 1506.480224609375 289.8021850585938 C 1508.051635742188 295.5997924804688 1508.848388671875 301.6221008300781 1508.848388671875 307.7018127441406 C 1508.848388671875 313.8876342773438 1508.024291992188 320.0113830566406 1506.398803710938 325.9029541015625 C 1504.823974609375 331.6114807128906 1502.503784179688 337.0824584960938 1499.5029296875 342.1639099121094 C 1493.651489257812 352.0724792480469 1485.372802734375 360.2423706054688 1475.5390625 365.8195190429688 Z" stroke="none"/>
                <path d="M 1476.69482421875 250.8499450683594 L 1463.808837890625 271.0491333007812 C 1476.935791015625 278.3244323730469 1485.0439453125 292.2664184570312 1485.0439453125 307.7018127441406 C 1485.0439453125 322.6387329101562 1477.310302734375 336.37841796875 1464.797119140625 343.7973937988281 L 1475.744873046875 365.12548828125 C 1485.30419921875 359.5988464355469 1493.355346679688 351.5906372070312 1499.072387695312 341.90966796875 C 1502.050903320312 336.8661804199219 1504.353637695312 331.4360046386719 1505.916870117188 325.7699584960938 C 1507.5302734375 319.9217224121094 1508.348388671875 313.8427124023438 1508.348388671875 307.7018127441406 C 1508.348388671875 301.666259765625 1507.557495117188 295.68798828125 1505.997680664062 289.9329833984375 C 1504.486083984375 284.3562316894531 1502.25732421875 279.0013427734375 1499.373291015625 274.0170593261719 C 1493.836791992188 264.448974609375 1486.009033203125 256.4564208984375 1476.69482421875 250.8499450683594 M 1476.371826171875 249.4969787597656 C 1496.04833984375 260.9365234375 1509.348388671875 282.7071838378906 1509.348388671875 307.7018127441406 C 1509.348388671875 333.1354675292969 1495.5810546875 355.242431640625 1475.331298828125 366.5097045898438 L 1463.47265625 343.4070129394531 C 1475.7255859375 336.5333251953125 1484.0439453125 323.1207275390625 1484.0439453125 307.7018127441406 C 1484.0439453125 291.8305969238281 1475.228515625 278.0966186523438 1462.385986328125 271.4201049804688 L 1476.371826171875 249.4969787597656 Z" stroke="none" fill="#000"/>
              </g>
            </g>
            <g id="Elipse_4626" data-name="Elipse 4626" transform="translate(89.549 66.944)" fill="#fff" stroke="#000" stroke-miterlimit="10" stroke-width="1">
              <circle cx="16.98" cy="16.98" r="16.98" stroke="none"/>
              <circle cx="16.98" cy="16.98" r="16.48" fill="none"/>
            </g>
            <g id="Elipse_4627" data-name="Elipse 4627" transform="translate(156.846 66.944)" fill="#fff" stroke="#000" stroke-miterlimit="10" stroke-width="1">
              <circle cx="16.98" cy="16.98" r="16.98" stroke="none"/>
              <circle cx="16.98" cy="16.98" r="16.48" fill="none"/>
            </g>
            <g id="Elipse_4628" data-name="Elipse 4628" transform="translate(223.055 66.944)" fill="#fff" stroke="#000" stroke-miterlimit="10" stroke-width="1">
              <circle cx="16.98" cy="16.98" r="16.98" stroke="none"/>
              <circle cx="16.98" cy="16.98" r="16.48" fill="none"/>
            </g>
            <g id="Elipse_4629" data-name="Elipse 4629" transform="translate(290.616 66.944)" fill="#fff" stroke="#000" stroke-miterlimit="10" stroke-width="1">
              <circle cx="16.98" cy="16.98" r="16.98" stroke="none"/>
              <circle cx="16.98" cy="16.98" r="16.48" fill="none"/>
            </g>
            <g id="Elipse_4630" data-name="Elipse 4630" transform="translate(9.311 9.679)" fill="none" stroke="#000" stroke-miterlimit="10" stroke-width="1">
              <circle cx="8.844" cy="8.844" r="8.844" stroke="none"/>
              <circle cx="8.844" cy="8.844" r="8.344" fill="none"/>
            </g>
            <g id="Elipse_4631" data-name="Elipse 4631" transform="translate(9.311 140.894)" fill="none" stroke="#000" stroke-miterlimit="10" stroke-width="1">
              <circle cx="8.844" cy="8.844" r="8.844" stroke="none"/>
              <circle cx="8.844" cy="8.844" r="8.344" fill="none"/>
            </g>
            <g id="Elipse_4632" data-name="Elipse 4632" transform="translate(386.877 142.091)" fill="none" stroke="#000" stroke-miterlimit="10" stroke-width="1">
              <circle cx="8.844" cy="8.844" r="8.844" stroke="none"/>
              <circle cx="8.844" cy="8.844" r="8.344" fill="none"/>
            </g>
            <g id="Elipse_4633" data-name="Elipse 4633" transform="translate(386.877 9.679)" fill="none" stroke="#000" stroke-miterlimit="10" stroke-width="1">
              <circle cx="8.844" cy="8.844" r="8.844" stroke="none"/>
              <circle cx="8.844" cy="8.844" r="8.344" fill="none"/>
            </g>
            <line id="Línea_272" data-name="Línea 272" x1="15.055" transform="translate(10.628 18.529)" fill="none" stroke="#4e5ff9" stroke-miterlimit="10" stroke-width="1"/>
            <line id="Línea_273" data-name="Línea 273" y2="15.055" transform="translate(18.155 11.002)" fill="none" stroke="#4e5ff9" stroke-miterlimit="10" stroke-width="1"/>
            <line id="Línea_274" data-name="Línea 274" y2="70.642" transform="translate(18.155 142.091)" fill="none" stroke="#4e5ff9" stroke-miterlimit="10" stroke-width="1"/>
            <line id="Línea_275" data-name="Línea 275" y2="134.563" transform="translate(106.529 78.171)" fill="none" stroke="#4e5ff9" stroke-miterlimit="10" stroke-width="1"/>
            <line id="Línea_276" data-name="Línea 276" y1="12.449" transform="translate(106.529 60.51)" fill="none" stroke="#4e5ff9" stroke-miterlimit="10" stroke-width="1"/>
            <line id="Línea_277" data-name="Línea 277" y2="13.897" transform="translate(174.21 60.51)" fill="none" stroke="#4e5ff9" stroke-miterlimit="10" stroke-width="1"/>
            <line id="Línea_278" data-name="Línea 278" y2="134.563" transform="translate(173.826 78.171)" fill="none" stroke="#4e5ff9" stroke-miterlimit="10" stroke-width="1"/>
            <line id="Línea_279" data-name="Línea 279" x2="12.16" transform="translate(148.893 82.559)" fill="none" stroke="#4e5ff9" stroke-miterlimit="10" stroke-width="1"/>
            <line id="Línea_280" data-name="Línea 280" x2="13.366" transform="translate(166.844 82.559)" fill="none" stroke="#4e5ff9" stroke-miterlimit="10" stroke-width="1"/>
            <line id="Línea_281" data-name="Línea 281" x2="10.712" transform="translate(185.373 82.559)" fill="none" stroke="#4e5ff9" stroke-miterlimit="10" stroke-width="1"/>
            <line id="Línea_282" data-name="Línea 282" x2="12.16" transform="translate(82.707 84.215)" fill="none" stroke="#4e5ff9" stroke-miterlimit="10" stroke-width="1"/>
            <line id="Línea_283" data-name="Línea 283" x2="13.366" transform="translate(100.657 84.215)" fill="none" stroke="#4e5ff9" stroke-miterlimit="10" stroke-width="1"/>
            <line id="Línea_284" data-name="Línea 284" x2="10.712" transform="translate(119.186 84.215)" fill="none" stroke="#4e5ff9" stroke-miterlimit="10" stroke-width="1"/>
            <line id="Línea_285" data-name="Línea 285" y2="12.739" transform="translate(241.581 61.668)" fill="none" stroke="#4e5ff9" stroke-miterlimit="10" stroke-width="1"/>
            <line id="Línea_286" data-name="Línea 286" x2="12.449" transform="translate(215.773 82.559)" fill="none" stroke="#4e5ff9" stroke-miterlimit="10" stroke-width="1"/>
            <line id="Línea_287" data-name="Línea 287" x2="11.291" transform="translate(234.881 82.559)" fill="none" stroke="#4e5ff9" stroke-miterlimit="10" stroke-width="1"/>
            <line id="Línea_288" data-name="Línea 288" x2="9.844" transform="translate(251.673 82.559)" fill="none" stroke="#4e5ff9" stroke-miterlimit="10" stroke-width="1"/>
            <line id="Línea_289" data-name="Línea 289" y2="12.739" transform="translate(308.917 61.668)" fill="none" stroke="#4e5ff9" stroke-miterlimit="10" stroke-width="1"/>
            <line id="Línea_290" data-name="Línea 290" x2="13.607" transform="translate(281.494 82.559)" fill="none" stroke="#4e5ff9" stroke-miterlimit="10" stroke-width="1"/>
            <line id="Línea_291" data-name="Línea 291" x2="15.634" transform="translate(299.154 82.559)" fill="none" stroke="#4e5ff9" stroke-miterlimit="10" stroke-width="1"/>
            <line id="Línea_292" data-name="Línea 292" x1="11.291" transform="translate(318.263 82.267)" fill="none" stroke="#4e5ff9" stroke-miterlimit="10" stroke-width="1"/>
            <line id="Línea_293" data-name="Línea 293" y2="133.916" transform="translate(308.628 78.818)" fill="none" stroke="#4e5ff9" stroke-miterlimit="10" stroke-width="1"/>
            <line id="Línea_294" data-name="Línea 294" y2="133.916" transform="translate(241.581 78.818)" fill="none" stroke="#4e5ff9" stroke-miterlimit="10" stroke-width="1"/>
            <line id="Línea_295" data-name="Línea 295" x2="12.449" transform="translate(390.272 150.935)" fill="none" stroke="#4e5ff9" stroke-miterlimit="10" stroke-width="1"/>
            <line id="Línea_296" data-name="Línea 296" y2="66.132" transform="translate(395.72 146.602)" fill="none" stroke="#4e5ff9" stroke-miterlimit="10" stroke-width="1"/>
            <line id="Línea_297" data-name="Línea 297" x2="12.449" transform="translate(389.496 18.522)" fill="none" stroke="#4e5ff9" stroke-miterlimit="10" stroke-width="1"/>
            <line id="Línea_298" data-name="Línea 298" y2="13.318" transform="translate(395.72 11.863)" fill="none" stroke="#4e5ff9" stroke-miterlimit="10" stroke-width="1"/>
            <line id="Línea_299" data-name="Línea 299" x2="16.687" transform="translate(9.311 149.738)" fill="none" stroke="#4e5ff9" stroke-miterlimit="10" stroke-width="1"/>
            <g id="Grupo_62174" data-name="Grupo 62174" transform="translate(75.656 201.348)">
              <path id="Trazado_131055" data-name="Trazado 131055" d="M1320.286,354.514l-.057,7.9,11.469-3.951Z" transform="translate(-1302.615 -354.514)" fill="#4e5ff9"/>
              <line id="Línea_300" data-name="Línea 300" x2="17.639" transform="translate(0 3.951)" fill="none" stroke="#4e5ff9" stroke-miterlimit="10" stroke-width="1"/>
            </g>
            <g id="Grupo_62175" data-name="Grupo 62175" transform="translate(19.657 201.348)">
              <path id="Trazado_131056" data-name="Trazado 131056" d="M1287.208,354.514l.057,7.9-11.469-3.951Z" transform="translate(-1275.795 -354.514)" fill="#4e5ff9"/>
              <line id="Línea_301" data-name="Línea 301" x1="17.639" transform="translate(11.445 3.951)" fill="none" stroke="#4e5ff9" stroke-miterlimit="10" stroke-width="1"/>
            </g>
            <g id="Grupo_62176" data-name="Grupo 62176" transform="translate(151.023 201.348)">
              <path id="Trazado_131057" data-name="Trazado 131057" d="M1363.444,354.514l-.057,7.9,11.469-3.951Z" transform="translate(-1349.64 -354.514)" fill="#4e5ff9"/>
              <line id="Línea_302" data-name="Línea 302" x2="13.772" transform="translate(0 3.951)" fill="none" stroke="#4e5ff9" stroke-miterlimit="10" stroke-width="1"/>
            </g>
            <g id="Grupo_62177" data-name="Grupo 62177" transform="translate(108.169 201.348)">
              <path id="Trazado_131058" data-name="Trazado 131058" d="M1340.634,354.514l.056,7.9-11.469-3.951Z" transform="translate(-1329.222 -354.514)" fill="#4e5ff9"/>
              <line id="Línea_303" data-name="Línea 303" x1="10.285" transform="translate(11.445 3.951)" fill="none" stroke="#4e5ff9" stroke-miterlimit="10" stroke-width="1"/>
            </g>
            <g id="Grupo_62178" data-name="Grupo 62178" transform="translate(217.065 201.348)">
              <path id="Trazado_131059" data-name="Trazado 131059" d="M1403.307,354.514l-.057,7.9,11.469-3.951Z" transform="translate(-1389.503 -354.514)" fill="#4e5ff9"/>
              <line id="Línea_304" data-name="Línea 304" x2="13.772" transform="translate(0 3.951)" fill="none" stroke="#4e5ff9" stroke-miterlimit="10" stroke-width="1"/>
            </g>
            <g id="Grupo_62179" data-name="Grupo 62179" transform="translate(174.21 201.348)">
              <path id="Trazado_131060" data-name="Trazado 131060" d="M1380.5,354.514l.056,7.9-11.469-3.951Z" transform="translate(-1369.085 -354.514)" fill="#4e5ff9"/>
              <line id="Línea_305" data-name="Línea 305" x1="10.285" transform="translate(11.445 3.951)" fill="none" stroke="#4e5ff9" stroke-miterlimit="10" stroke-width="1"/>
            </g>
            <g id="Grupo_62180" data-name="Grupo 62180" transform="translate(285.137 201.348)">
              <path id="Trazado_131061" data-name="Trazado 131061" d="M1444.4,354.514l-.057,7.9,11.469-3.951Z" transform="translate(-1430.591 -354.514)" fill="#4e5ff9"/>
              <line id="Línea_306" data-name="Línea 306" x2="13.772" transform="translate(0 3.951)" fill="none" stroke="#4e5ff9" stroke-miterlimit="10" stroke-width="1"/>
            </g>
            <g id="Grupo_62181" data-name="Grupo 62181" transform="translate(242.282 201.348)">
              <path id="Trazado_131062" data-name="Trazado 131062" d="M1421.586,354.514l.056,7.9-11.469-3.951Z" transform="translate(-1410.173 -354.514)" fill="#4e5ff9"/>
              <line id="Línea_307" data-name="Línea 307" x1="10.285" transform="translate(11.445 3.951)" fill="none" stroke="#4e5ff9" stroke-miterlimit="10" stroke-width="1"/>
            </g>
            <g id="Grupo_62182" data-name="Grupo 62182" transform="translate(362.423 201.348)">
              <path id="Trazado_131063" data-name="Trazado 131063" d="M1492.843,354.514l-.069,7.9,13.935-3.951Z" transform="translate(-1476.07 -354.514)" fill="#4e5ff9"/>
              <line id="Línea_308" data-name="Línea 308" x2="16.733" transform="translate(0 3.951)" fill="none" stroke="#4e5ff9" stroke-miterlimit="10" stroke-width="1"/>
            </g>
            <g id="Grupo_62183" data-name="Grupo 62183" transform="translate(310.354 201.348)">
              <path id="Trazado_131064" data-name="Trazado 131064" d="M1465.129,354.514l.069,7.9-13.935-3.951Z" transform="translate(-1451.262 -354.514)" fill="#4e5ff9"/>
              <line id="Línea_309" data-name="Línea 309" x1="12.496" transform="translate(13.906 3.951)" fill="none" stroke="#4e5ff9" stroke-miterlimit="10" stroke-width="1"/>
            </g>
          </g>
        </g>
      </g>
    </g>
  </g>
</svg>
