<svg xmlns="http://www.w3.org/2000/svg" width="483.215" height="162.254" viewBox="0 0 483.215 162.254">
  <g id="Grupo_62140" data-name="Grupo 62140" transform="translate(0.5 2)">
    <g id="Grupo_62129" data-name="Grupo 62129" transform="translate(0 36.212)">
      <path id="Trazado_130982" data-name="Trazado 130982" d="M916.32,88.329l-28.883-.635-7.43-4.131a35.935,35.935,0,0,0-32.544-1.211l-9.214,4.259H546.757A45.054,45.054,0,0,0,501.7,131.665h0a45.055,45.055,0,0,0,45.054,45.054H783.565L929.389,138.2ZM547.288,153.584c-12.537,0-22.7-9.6-22.7-21.449s10.162-21.449,22.7-21.449,22.7,9.6,22.7,21.449S559.823,153.584,547.288,153.584Zm233.037,0c-12.537,0-22.7-9.6-22.7-21.449s10.162-21.449,22.7-21.449,22.7,9.6,22.7,21.449S792.86,153.584,780.325,153.584Z" transform="translate(-501.703 -79.034)" fill="#adddf7" stroke="#000" stroke-miterlimit="10" stroke-width="1"/>
    </g>
    <line id="Línea_203" data-name="Línea 203" x2="22.355" y2="76.008" transform="translate(90.294 10.427)" fill="none" stroke="#4e5ff9" stroke-miterlimit="10" stroke-width="1"/>
    <line id="Línea_204" data-name="Línea 204" x1="23.387" y2="77.727" transform="translate(211.013 10.083)" fill="none" stroke="#4e5ff9" stroke-miterlimit="10" stroke-width="1"/>
    <line id="Línea_205" data-name="Línea 205" x2="19.604" y2="28.074" transform="translate(314.191 12.305)" fill="none" stroke="#4e5ff9" stroke-miterlimit="10" stroke-width="1"/>
    <line id="Línea_206" data-name="Línea 206" x1="18.572" y2="28.074" transform="translate(391.574 12.305)" fill="none" stroke="#4e5ff9" stroke-miterlimit="10" stroke-width="1"/>
    <line id="Línea_207" data-name="Línea 207" y1="12.037" x2="45.398" transform="translate(432.157 82.308)" fill="none" stroke="#4e5ff9" stroke-miterlimit="10" stroke-width="1"/>
    <line id="Línea_208" data-name="Línea 208" x2="192.943" transform="translate(289.772 133.897)" fill="none" stroke="#4e5ff9" stroke-miterlimit="10" stroke-width="1"/>
    <g id="Grupo_62130" data-name="Grupo 62130" transform="translate(108.35 84.282)">
      <line id="Línea_209" data-name="Línea 209" y2="14.45" transform="translate(6.191)" fill="none" stroke="#4e5ff9" stroke-miterlimit="10" stroke-width="1"/>
      <line id="Línea_210" data-name="Línea 210" x2="12.381" transform="translate(0 7.225)" fill="none" stroke="#4e5ff9" stroke-miterlimit="10" stroke-width="1"/>
    </g>
    <g id="Grupo_62131" data-name="Grupo 62131" transform="translate(203.962 84.282)">
      <line id="Línea_211" data-name="Línea 211" y2="14.45" transform="translate(6.191)" fill="none" stroke="#4e5ff9" stroke-miterlimit="10" stroke-width="1"/>
      <line id="Línea_212" data-name="Línea 212" x2="12.381" transform="translate(0 7.225)" fill="none" stroke="#4e5ff9" stroke-miterlimit="10" stroke-width="1"/>
    </g>
    <g id="Grupo_62132" data-name="Grupo 62132" transform="translate(149.106 4.434)">
      <text id="_30" data-name="30" transform="translate(0 14)" fill="#4e5ff9" font-size="15" font-family="Roboto-Regular, Roboto"><tspan x="0" y="0">30</tspan></text>
      <circle id="Elipse_4609" data-name="Elipse 4609" cx="2.079" cy="2.079" r="2.079" transform="translate(19.917 2.18)" fill="none" stroke="#4e5ff9" stroke-miterlimit="10" stroke-width="1"/>
    </g>
    <g id="Grupo_62133" data-name="Grupo 62133" transform="translate(349.443)">
      <text id="_70" data-name="70" transform="translate(0 14)" fill="#4e5ff9" font-size="15" font-family="Roboto-Regular, Roboto"><tspan x="0" y="0">70</tspan></text>
      <circle id="Elipse_4610" data-name="Elipse 4610" cx="2.079" cy="2.079" r="2.079" transform="translate(19.917 2.18)" fill="none" stroke="#4e5ff9" stroke-miterlimit="10" stroke-width="1"/>
    </g>
    <g id="Grupo_62134" data-name="Grupo 62134" transform="translate(454.857 100.382)">
      <text id="_15" data-name="15" transform="translate(0 14)" fill="#4e5ff9" font-size="15" font-family="Roboto-Regular, Roboto"><tspan x="0" y="0">15</tspan></text>
      <circle id="Elipse_4611" data-name="Elipse 4611" cx="2.079" cy="2.079" r="2.079" transform="translate(19.917 2.18)" fill="none" stroke="#4e5ff9" stroke-miterlimit="10" stroke-width="1"/>
    </g>
    <g id="Grupo_62135" data-name="Grupo 62135" transform="translate(95.179 13.497)">
      <path id="Trazado_130983" data-name="Trazado 130983" d="M603.432,65.589s-23.62-.078-39.759,6.143" transform="translate(-554.157 -65.589)" fill="none" stroke="#4e5ff9" stroke-miterlimit="10" stroke-width="1"/>
      <path id="Trazado_130984" data-name="Trazado 130984" d="M566.659,66.836l3.042,7.288-11.661,2.155Z" transform="translate(-558.041 -64.729)" fill="#4e5ff9"/>
    </g>
    <g id="Grupo_62136" data-name="Grupo 62136" transform="translate(180.223 12.063)">
      <path id="Trazado_130985" data-name="Trazado 130985" d="M608.379,64.74s23.618-.078,39.759,6.141" transform="translate(-608.379 -64.74)" fill="none" stroke="#4e5ff9" stroke-miterlimit="10" stroke-width="1"/>
      <path id="Trazado_130986" data-name="Trazado 130986" d="M633.685,65.987l-3.042,7.288L642.3,75.429Z" transform="translate(-593.029 -63.88)" fill="#4e5ff9"/>
    </g>
    <g id="Grupo_62137" data-name="Grupo 62137" transform="translate(457.483 59.087)">
      <path id="Trazado_130987" data-name="Trazado 130987" d="M772.492,92.574s3.011,5.249,5.519,15.185" transform="translate(-772.492 -92.574)" fill="none" stroke="#4e5ff9" stroke-miterlimit="10" stroke-width="1"/>
      <path id="Trazado_130988" data-name="Trazado 130988" d="M781.221,100.705l-7.768,1.422L778,113.078Z" transform="translate(-771.83 -86.968)" fill="#4e5ff9"/>
    </g>
    <g id="Grupo_62138" data-name="Grupo 62138" transform="translate(464.939 133.897)">
      <path id="Trazado_130989" data-name="Trazado 130989" d="M776.905,158.505s3.011-5.249,5.519-15.183" transform="translate(-776.905 -132.396)" fill="none" stroke="#4e5ff9" stroke-miterlimit="10" stroke-width="1"/>
      <path id="Trazado_130990" data-name="Trazado 130990" d="M785.634,149.227l-7.768-1.422,4.549-10.951Z" transform="translate(-776.243 -136.855)" fill="#4e5ff9"/>
    </g>
    <g id="Grupo_62139" data-name="Grupo 62139" transform="translate(322.605 9.513)">
      <path id="Trazado_130991" data-name="Trazado 130991" d="M712.876,63.231s-5.937,1.166-15.083,5.786" transform="translate(-689.114 -63.231)" fill="none" stroke="#4e5ff9" stroke-miterlimit="10" stroke-width="1"/>
      <path id="Trazado_130992" data-name="Trazado 130992" d="M699.888,64.363l4.019,6.8-11.251,3.744Z" transform="translate(-692.656 -62.451)" fill="#4e5ff9"/>
    </g>
    <circle id="Elipse_4612" data-name="Elipse 4612" cx="10.748" cy="10.748" r="10.748" transform="translate(347.571 79.986) rotate(-45)" fill="#fff" stroke="#4e5ff9" stroke-miterlimit="10" stroke-width="1"/>
  </g>
</svg>
