<svg xmlns="http://www.w3.org/2000/svg" width="508.096" height="294" viewBox="0 0 508.096 294">
  <g id="Grupo_62899" data-name="Grupo 62899" transform="translate(-911.904 -585)">
    <rect id="Rectángulo_31238" data-name="Rectángulo 31238" width="505" height="294" transform="translate(915 585)" fill="#f6f6f6"/>
    <g id="Grupo_62786" data-name="Grupo 62786" transform="translate(-3.096 -679.577)">
      <path id="Trazado_132906" data-name="Trazado 132906" d="M0,367Z" transform="translate(915 1167.052)" fill="#fba321" opacity="0.208"/>
      <g id="Grupo_59823" data-name="Grupo 59823" transform="translate(922 1264.577)">
        <g id="Grupo_59511" data-name="Grupo 59511" transform="translate(4.25 6.664)">
          <path id="Trazado_125313" data-name="Trazado 125313" d="M0,0H484.446V287.336H0Z" transform="translate(0 0)" fill="#92a7ba"/>
          <path id="Trazado_124882" data-name="Trazado 124882" d="M484.214,346.606a276.935,276.935,0,0,1-78.18,20.963,254.726,254.726,0,0,1-149.278-28.716C213.2,315.46,175.631,282.508,156.086,241.2c-15.464-32.677-19.676-68.982-15.264-104.1H42.727V424.435H527.172V321.261A210.921,210.921,0,0,1,484.214,346.606Z" transform="translate(-42.726 -137.099)" fill="#849cb2"/>
          <g id="Grupo_59510" data-name="Grupo 59510" transform="translate(54.928 63.033)">
            <g id="Grupo_59504" data-name="Grupo 59504" transform="translate(66.696 60.917)">
              <rect id="Rectángulo_30293" data-name="Rectángulo 30293" width="5.478" height="100.35" fill="#fff" stroke="#17100d" stroke-miterlimit="10" stroke-width="1.818"/>
              <rect id="Rectángulo_30294" data-name="Rectángulo 30294" width="5.471" height="100.35" transform="translate(94.881)" fill="#fff" stroke="#17100d" stroke-miterlimit="10" stroke-width="1.818"/>
              <rect id="Rectángulo_30295" data-name="Rectángulo 30295" width="100.352" height="5.47" transform="translate(0 94.88)" fill="#fff" stroke="#17100d" stroke-miterlimit="10" stroke-width="1.818"/>
              <rect id="Rectángulo_30296" data-name="Rectángulo 30296" width="68.454" height="5.474" fill="#fff" stroke="#17100d" stroke-miterlimit="10" stroke-width="1.818"/>
              <path id="Trazado_124883" data-name="Trazado 124883" d="M160.891,253.559s-.129,19.488,26.427,21.523" transform="translate(-92.437 -248.085)" fill="#fff" stroke="#17100d" stroke-miterlimit="10" stroke-width="1.818"/>
            </g>
            <g id="Grupo_59505" data-name="Grupo 59505" transform="translate(173.38)">
              <rect id="Rectángulo_30297" data-name="Rectángulo 30297" width="5.474" height="100.35" fill="#fff" stroke="#17100d" stroke-miterlimit="10" stroke-width="1.818"/>
              <rect id="Rectángulo_30298" data-name="Rectángulo 30298" width="5.471" height="100.35" transform="translate(94.874)" fill="#fff" stroke="#17100d" stroke-miterlimit="10" stroke-width="1.818"/>
              <rect id="Rectángulo_30299" data-name="Rectángulo 30299" width="100.345" height="5.477" fill="#fff" stroke="#17100d" stroke-miterlimit="10" stroke-width="1.818"/>
              <rect id="Rectángulo_30300" data-name="Rectángulo 30300" width="68.447" height="5.473" transform="translate(0 94.877)" fill="#fff" stroke="#17100d" stroke-miterlimit="10" stroke-width="1.818"/>
              <path id="Trazado_124884" data-name="Trazado 124884" d="M219.137,231.252s-.115-19.486,26.427-21.524" transform="translate(-150.69 -136.375)" fill="#fff" stroke="#17100d" stroke-miterlimit="10" stroke-width="1.818"/>
            </g>
            <g id="Grupo_59506" data-name="Grupo 59506" transform="translate(274.241)">
              <rect id="Rectángulo_30301" data-name="Rectángulo 30301" width="5.474" height="100.35" transform="translate(94.877)" fill="#fff" stroke="#17100d" stroke-miterlimit="10" stroke-width="1.818"/>
              <rect id="Rectángulo_30302" data-name="Rectángulo 30302" width="100.352" height="5.479" fill="#fff" stroke="#17100d" stroke-miterlimit="10" stroke-width="1.818"/>
              <rect id="Rectángulo_30303" data-name="Rectángulo 30303" width="68.454" height="5.473" transform="translate(0 94.877)" fill="#fff" stroke="#17100d" stroke-miterlimit="10" stroke-width="1.818"/>
              <path id="Trazado_124885" data-name="Trazado 124885" d="M274.211,231.253s-.127-19.486,26.424-21.526" transform="translate(-205.757 -136.375)" fill="#fff" stroke="#17100d" stroke-miterlimit="10" stroke-width="1.818"/>
            </g>
            <g id="Grupo_59507" data-name="Grupo 59507" transform="translate(274.241 60.917)">
              <rect id="Rectángulo_30304" data-name="Rectángulo 30304" width="5.471" height="100.35" fill="#fff" stroke="#17100d" stroke-miterlimit="10" stroke-width="1.818"/>
              <rect id="Rectángulo_30305" data-name="Rectángulo 30305" width="5.474" height="100.35" transform="translate(94.877)" fill="#fff" stroke="#17100d" stroke-miterlimit="10" stroke-width="1.818"/>
              <rect id="Rectángulo_30306" data-name="Rectángulo 30306" width="100.352" height="5.476" transform="translate(0 94.875)" fill="#fff" stroke="#17100d" stroke-miterlimit="10" stroke-width="1.818"/>
              <rect id="Rectángulo_30307" data-name="Rectángulo 30307" width="68.454" height="5.474" fill="#fff" stroke="#17100d" stroke-miterlimit="10" stroke-width="1.818"/>
              <path id="Trazado_124886" data-name="Trazado 124886" d="M274.211,253.559s-.127,19.488,26.424,21.523" transform="translate(-205.757 -248.085)" fill="#fff" stroke="#17100d" stroke-miterlimit="10" stroke-width="1.818"/>
            </g>
            <rect id="Rectángulo_30308" data-name="Rectángulo 30308" width="94.874" height="5.476" transform="translate(173.166 155.792)" fill="#fff" stroke="#17100d" stroke-miterlimit="10" stroke-width="1.818"/>
            <rect id="Rectángulo_30309" data-name="Rectángulo 30309" width="69.409" height="5.474" transform="translate(166.498 93.758)" fill="#fff" stroke="#17100d" stroke-miterlimit="10" stroke-width="1.818"/>
            <rect id="Rectángulo_30310" data-name="Rectángulo 30310" width="28.523" height="10.285" transform="translate(233.593 135.905)" fill="#fff" stroke="#17100d" stroke-miterlimit="10" stroke-width="1.818"/>
            <path id="Trazado_124887" data-name="Trazado 124887" d="M228.253,277.264A14.338,14.338,0,1,1,213.906,291.6,14.333,14.333,0,0,1,228.253,277.264Z" transform="translate(19.607 -170.035)" fill="#fff" stroke="#17100d" stroke-miterlimit="10" stroke-width="1.818"/>
            <path id="Trazado_124888" data-name="Trazado 124888" d="M226.364,279.877a9.836,9.836,0,1,1-9.844,9.837A9.832,9.832,0,0,1,226.364,279.877Z" transform="translate(21.42 -168.146)" fill="#fff" stroke="#17100d" stroke-miterlimit="10" stroke-width="1.818"/>
            <rect id="Rectángulo_30311" data-name="Rectángulo 30311" width="4.075" height="89.401" transform="translate(218.665 66.391)" fill="#fff" stroke="#17100d" stroke-miterlimit="10" stroke-width="1.818"/>
            <path id="Trazado_124889" data-name="Trazado 124889" d="M191.42,257.746a4.076,4.076,0,1,1-4.078,4.078A4.075,4.075,0,0,1,191.42,257.746Z" transform="translate(-2.365 -156.307)" fill="#fff" stroke="#17100d" stroke-miterlimit="10" stroke-width="1.818"/>
            <path id="Trazado_124890" data-name="Trazado 124890" d="M239.237,257.785c-.067,0-.138-.007-.212-.007-6.679,0-12.085,4.481-12.085,10.014v8.48c0,5.532,5.406,10.014,12.085,10.014.074,0,.145,0,.212,0Z" transform="translate(29.564 -161.473)" fill="#fff" stroke="#17100d" stroke-miterlimit="10" stroke-width="1.818"/>
            <rect id="Rectángulo_30312" data-name="Rectángulo 30312" width="5.478" height="161.064" transform="translate(0 0.204)" fill="#fff" stroke="#17100d" stroke-miterlimit="10" stroke-width="1.818"/>
            <rect id="Rectángulo_30313" data-name="Rectángulo 30313" width="168.563" height="5.478" transform="translate(0 0.204)" fill="#fff" stroke="#17100d" stroke-miterlimit="10" stroke-width="1.818"/>
            <rect id="Rectángulo_30314" data-name="Rectángulo 30314" width="14.22" height="5.476" transform="translate(60.779 155.792)" fill="#fff" stroke="#17100d" stroke-miterlimit="10" stroke-width="1.818"/>
            <g id="Grupo_59508" data-name="Grupo 59508" transform="translate(99.651 21.107)">
              <path id="Trazado_124891" data-name="Trazado 124891" d="M168.247,185.074a22.6,22.6,0,1,1-22.6,22.594A22.595,22.595,0,0,1,168.247,185.074Z" transform="translate(-135.133 -175.301)" fill="#fff" stroke="#17100d" stroke-miterlimit="10" stroke-width="1.818"/>
              <path id="Trazado_124892" data-name="Trazado 124892" d="M143.449,193.815c2.157,0,3.9,2.777,3.9,6.209s-1.742,6.209-3.9,6.209-3.9-2.781-3.9-6.209S141.288,193.815,143.449,193.815Z" transform="translate(-139.545 -168.983)" fill="#fff" stroke="#17100d" stroke-miterlimit="10" stroke-width="1.818"/>
              <path id="Trazado_124893" data-name="Trazado 124893" d="M176.473,193.815c2.15,0,3.9,2.777,3.9,6.209s-1.747,6.209-3.9,6.209-3.907-2.781-3.907-6.209S174.313,193.815,176.473,193.815Z" transform="translate(-115.678 -168.983)" fill="#fff" stroke="#17100d" stroke-miterlimit="10" stroke-width="1.818"/>
              <path id="Trazado_124894" data-name="Trazado 124894" d="M167.578,216.922c0,2.15-2.775,3.9-6.207,3.9s-6.209-1.749-6.209-3.9,2.772-3.9,6.209-3.9S167.578,214.765,167.578,216.922Z" transform="translate(-128.257 -155.102)" fill="#fff" stroke="#17100d" stroke-miterlimit="10" stroke-width="1.818"/>
              <path id="Trazado_124895" data-name="Trazado 124895" d="M167.578,183.3c0,2.155-2.775,3.9-6.207,3.9s-6.209-1.745-6.209-3.9,2.772-3.9,6.209-3.9S167.578,181.146,167.578,183.3Z" transform="translate(-128.257 -179.401)" fill="#fff" stroke="#17100d" stroke-miterlimit="10" stroke-width="1.818"/>
            </g>
            <g id="Grupo_59509" data-name="Grupo 59509" transform="translate(10.7 10.929)">
              <path id="Trazado_124896" data-name="Trazado 124896" d="M108.123,173.493a12.735,12.735,0,0,1,12.736,12.731v40.449A12.739,12.739,0,0,1,108.123,239.4h0a12.735,12.735,0,0,1-12.738-12.731V186.224a12.731,12.731,0,0,1,12.738-12.731Z" transform="translate(-87.746 -173.493)" fill="#fff" stroke="#17100d" stroke-miterlimit="10" stroke-width="1.818"/>
              <path id="Trazado_124897" data-name="Trazado 124897" d="M94.77,173.493a4.012,4.012,0,0,1,3.819,4.179v59.139a4.015,4.015,0,0,1-3.819,4.183h0a4.011,4.011,0,0,1-3.819-4.183V177.672a4.007,4.007,0,0,1,3.819-4.179Z" transform="translate(-90.951 -173.493)" fill="#fff" stroke="#17100d" stroke-miterlimit="10" stroke-width="1.818"/>
            </g>
            <path id="Trazado_124898" data-name="Trazado 124898" d="M127.46,239.482a12.728,12.728,0,0,1-12.735-12.731V186.3a12.732,12.732,0,0,1,12.735-12.733h0A12.739,12.739,0,0,1,140.2,186.3v40.449a12.735,12.735,0,0,1-12.74,12.731Z" transform="translate(-56.341 -162.509)" fill="#fff" stroke="#17100d" stroke-miterlimit="10" stroke-width="1.818"/>
            <path id="Trazado_124899" data-name="Trazado 124899" d="M133.328,240.15a4.009,4.009,0,0,1-3.816-4.181V176.836a4.013,4.013,0,0,1,3.816-4.19h0a4.013,4.013,0,0,1,3.814,4.19v59.133a4.008,4.008,0,0,1-3.814,4.181Z" transform="translate(-48.8 -163.177)" fill="#fff" stroke="#17100d" stroke-miterlimit="10" stroke-width="1.818"/>
            <path id="Trazado_124900" data-name="Trazado 124900" d="M135.982,324.213s.212-34.969-47.433-38.626" transform="translate(-81.987 -164.019)" fill="#fff" stroke="#17100d" stroke-miterlimit="10" stroke-width="1.818"/>
          </g>
          <rect id="Rectángulo_30315" data-name="Rectángulo 30315" width="454.459" height="257.208" transform="translate(14.994 15.065)" fill="#fff" stroke="#17100d" stroke-miterlimit="10" stroke-width="1.818"/>
          <rect id="Rectángulo_30316" data-name="Rectángulo 30316" width="428.947" height="240.103" transform="translate(27.749 23.617)" fill="#fff" stroke="#17100d" stroke-miterlimit="10" stroke-width="1.72"/>
        </g>
        <g id="Grupo_62845" data-name="Grupo 62845" transform="translate(67.787 38.183)">
          <rect id="Rectángulo_31593" data-name="Rectángulo 31593" width="353.071" height="226.134" transform="translate(0.029 1.958)" fill="#a29fbd" opacity="0.4" style="mix-blend-mode: multiply;isolation: isolate"/>
          <rect id="Rectángulo_31594" data-name="Rectángulo 31594" width="352.869" height="208.775" transform="translate(0.029 1.958)" fill="#f1edf2"/>
          <path id="Trazado_133018" data-name="Trazado 133018" d="M412.9,309.033H60.029V84.735s-6.787,212.284,179.6,212.284S412.9,84.735,412.9,84.735Z" transform="translate(-59.998 -84.735)" fill="#e7dee8"/>
          <g id="Grupo_62823" data-name="Grupo 62823" transform="translate(35.097 6.469)">
            <path id="Trazado_133019" data-name="Trazado 133019" d="M105.062,167.8H183a1.366,1.366,0,0,0,1.369-1.369V127.169A1.366,1.366,0,0,0,183,125.8H157.515V97.3h4.338a1.365,1.365,0,0,0,1.369-1.363V88.488a1.37,1.37,0,0,0-1.369-1.369H105.062a1.37,1.37,0,0,0-1.368,1.369v17.371a1.368,1.368,0,0,0,2.737,0v-16h54.054v4.711h-4.333a1.366,1.366,0,0,0-1.369,1.368v31.233a1.365,1.365,0,0,0,1.369,1.363h25.482v36.526h-75.2v-9.867a1.368,1.368,0,0,0-2.737,0v11.236A1.366,1.366,0,0,0,105.062,167.8Z" transform="translate(81.868 -37.559)" fill="#a6a2b3"/>
            <path id="Trazado_133020" data-name="Trazado 133020" d="M137.116,242.227H253.878a1.366,1.366,0,0,0,1.369-1.369V188.315a1.368,1.368,0,0,0-2.737,0V239.49H138.484V197.071a1.366,1.366,0,0,0-1.368-1.369H70.24V130.13l-.555-48.453H252.51v57.306a1.368,1.368,0,1,0,2.737,0V80.308a1.366,1.366,0,0,0-1.369-1.368H68.317a1.366,1.366,0,0,0-1.369,1.368s.561,47.7.561,48.453v68.309a1.365,1.365,0,0,0,1.364,1.368h66.88v42.419A1.365,1.365,0,0,0,137.116,242.227Z" transform="translate(-66.948 -78.94)" fill="#a6a2b3"/>
            <path id="Trazado_133021" data-name="Trazado 133021" d="M81.936,152.723a1.366,1.366,0,0,0,1.368-1.368V80.419a1.366,1.366,0,0,0-2.732,0v70.935A1.365,1.365,0,0,0,81.936,152.723Z" transform="translate(-11.769 -78.47)" fill="#a6a2b3"/>
            <path id="Trazado_133022" data-name="Trazado 133022" d="M81.936,118.844a1.366,1.366,0,0,0,1.368-1.368V99.962a1.366,1.366,0,1,0-2.732,0v17.513A1.365,1.365,0,0,0,81.936,118.844Z" transform="translate(-11.769 13.572)" fill="#a6a2b3"/>
            <path id="Trazado_133023" data-name="Trazado 133023" d="M78.785,91.3H90.718c.136,0,.247-.611.247-1.369s-.111-1.368-.247-1.368H78.785c-.136,0-.247.611-.247,1.368S78.649,91.3,78.785,91.3Z" transform="translate(-20.01 -34.221)" fill="#a6a2b3"/>
            <path id="Trazado_133024" data-name="Trazado 133024" d="M67.981,91.3h33.768c.389,0,.7-.611.7-1.369s-.313-1.368-.7-1.368H67.981c-.389,0-.7.611-.7,1.368S67.592,91.3,67.981,91.3Z" transform="translate(-65.607 -34.221)" fill="#a6a2b3"/>
            <path id="Trazado_133025" data-name="Trazado 133025" d="M114.726,134.76a.981.981,0,0,0,.98-.98V95.836a.98.98,0,0,0-1.959,0V133.78A.981.981,0,0,0,114.726,134.76Z" transform="translate(122.577 -2.683)" fill="#a6a2b3"/>
            <path id="Trazado_133026" data-name="Trazado 133026" d="M88.016,120.156V107.809a.979.979,0,0,1,.975-.98h31.789a.981.981,0,0,1,.98.98v12.347a.981.981,0,0,1-.98.98H88.991A.98.98,0,0,1,88.016,120.156ZM119.8,108.788H89.97v10.393H119.8Z" transform="translate(18.374 51.725)" fill="#a6a2b3"/>
            <rect id="Rectángulo_31595" data-name="Rectángulo 31595" width="19.047" height="7.399" transform="translate(143.172 215.871) rotate(180)" fill="#a6a2b3"/>
            <rect id="Rectángulo_31596" data-name="Rectángulo 31596" width="19.047" height="7.399" transform="translate(292.096 100.734) rotate(-90)" fill="#a6a2b3"/>
            <path id="Trazado_133027" data-name="Trazado 133027" d="M87.235,116.625v-15.24a.981.981,0,0,1,.98-.98h39.667a.981.981,0,0,1,.98.98v15.24a.98.98,0,0,1-.98.975H88.215A.98.98,0,0,1,87.235,116.625ZM126.9,102.359H89.194v13.286H126.9Z" transform="translate(15.211 21.851)" fill="#a6a2b3"/>
            <path id="Trazado_133028" data-name="Trazado 133028" d="M82.82,119.646v-15.24a.98.98,0,0,1,.975-.98H98.843a.981.981,0,0,1,.98.98v15.24a.98.98,0,0,1-.98.975H83.795A.979.979,0,0,1,82.82,119.646Zm15.044-14.261H84.774v13.281H97.864Z" transform="translate(-2.669 36.037)" fill="#a6a2b3"/>
            <path id="Trazado_133029" data-name="Trazado 133029" d="M96.5,119.646v-15.24a.98.98,0,0,1,.975-.98h15.049a.981.981,0,0,1,.98.98v15.24a.98.98,0,0,1-.98.975H97.474A.978.978,0,0,1,96.5,119.646Zm15.043-14.261H98.453v13.281h13.089Z" transform="translate(52.729 36.037)" fill="#a6a2b3"/>
            <path id="Trazado_133030" data-name="Trazado 133030" d="M101.461,153.92V101.377a.973.973,0,0,1,.97-.97h11.438a.97.97,0,0,1,.97.97V153.92a.97.97,0,0,1-.97.97H102.431A.973.973,0,0,1,101.461,153.92Zm11.433-51.574h-9.489v50.6h9.489Z" transform="translate(72.825 25.583)" fill="#a6a2b3"/>
            <path id="Trazado_133031" data-name="Trazado 133031" d="M86.892,106.3V88.2a.981.981,0,0,1,.98-.98h85.236a.981.981,0,0,1,.98.98v18.1a.981.981,0,0,1-.98.98H87.872A.981.981,0,0,1,86.892,106.3Zm85.242-17.119H88.851v16.139h83.282Z" transform="translate(13.822 -39.948)" fill="#a6a2b3"/>
            <path id="Trazado_133032" data-name="Trazado 133032" d="M103.757,101.945V88.2a.981.981,0,0,1,.98-.98h13.791a.981.981,0,0,1,.98.98v13.741a.98.98,0,0,1-.98.975H104.737A.979.979,0,0,1,103.757,101.945Zm13.791-12.761H105.716v11.781h11.832Z" transform="translate(82.123 -40.082)" fill="#a6a2b3"/>
            <path id="Trazado_133033" data-name="Trazado 133033" d="M80.65,90.289V80.038a.98.98,0,0,1,.975-.98H91.916a.98.98,0,0,1,.975.98V90.289a.978.978,0,0,1-.975.975H81.625A.978.978,0,0,1,80.65,90.289Zm10.287-9.272H82.6v8.292h8.332Z" transform="translate(-11.457 -78.462)" fill="#a6a2b3"/>
            <path id="Trazado_133034" data-name="Trazado 133034" d="M99.9,121.158V80a.98.98,0,0,1,.975-.98h20.144A.981.981,0,0,1,122,80v41.161a.979.979,0,0,1-.98.975H100.874A.978.978,0,0,1,99.9,121.158Zm20.139-40.187H101.853v39.207h18.184Z" transform="translate(66.499 -78.628)" fill="#a6a2b3"/>
            <path id="Trazado_133035" data-name="Trazado 133035" d="M96.468,104.3V79.939a.981.981,0,0,1,.98-.98h17.22a.98.98,0,0,1,.975.98V104.3a.979.979,0,0,1-.975.98H97.448A.981.981,0,0,1,96.468,104.3Zm17.22-23.381H98.422v22.406h15.266Z" transform="translate(52.604 -78.863)" fill="#a6a2b3"/>
            <path id="Trazado_133036" data-name="Trazado 133036" d="M67.083,120.39V80.108a.979.979,0,0,1,.975-.975H85.283a.98.98,0,0,1,.98.975V120.39a.981.981,0,0,1-.98.98H68.058A.98.98,0,0,1,67.083,120.39Zm17.22-39.3H69.037v38.328H84.3Z" transform="translate(-66.401 -78.158)" fill="#a6a2b3"/>
            <path id="Trazado_133037" data-name="Trazado 133037" d="M67.194,110.931V89.621a.984.984,0,0,1,.98-.98H78.682a.981.981,0,0,1,.98.98v21.31a.981.981,0,0,1-.98.98H68.174A.984.984,0,0,1,67.194,110.931ZM77.708,90.6H69.153v19.356h8.554Z" transform="translate(-65.952 -33.164)" fill="#a6a2b3"/>
            <path id="Trazado_133038" data-name="Trazado 133038" d="M75.187,113.623V100.489a.981.981,0,0,1,.98-.98h27.875a.981.981,0,0,1,.98.98v13.135a.981.981,0,0,1-.98.98H76.167A.981.981,0,0,1,75.187,113.623Zm27.875-12.155H77.141v11.18h25.921Z" transform="translate(-33.581 17.488)" fill="#a6a2b3"/>
            <g id="Grupo_62822" data-name="Grupo 62822" transform="translate(185.956 72.719)">
              <path id="Trazado_133039" data-name="Trazado 133039" d="M104.747,102.183a.981.981,0,0,0,.98-.98V92.447a.977.977,0,0,0-1.954,0V101.2A.98.98,0,0,0,104.747,102.183Z" transform="translate(-103.772 -91.472)" fill="#a6a2b3"/>
              <path id="Trazado_133040" data-name="Trazado 133040" d="M104.747,105.308a.98.98,0,0,0,.98-.975V95.572a.977.977,0,1,0-1.954,0v8.762A.978.978,0,0,0,104.747,105.308Z" transform="translate(-103.772 -78.836)" fill="#a6a2b3"/>
              <path id="Trazado_133041" data-name="Trazado 133041" d="M104.747,108.43a.981.981,0,0,0,.98-.98V98.694a.977.977,0,1,0-1.954,0v8.756A.98.98,0,0,0,104.747,108.43Z" transform="translate(-103.772 -66.193)" fill="#a6a2b3"/>
            </g>
            <path id="Trazado_133042" data-name="Trazado 133042" d="M67.869,164.537h0l262.744-.576a.586.586,0,0,0,.586-.586l-.005-56.922a.591.591,0,0,0-.586-.591h0a.59.59,0,0,0-.586.591V162.79l-261.547.571L68.48,102.8a.588.588,0,0,0-1.177,0l-.02,61.123a.587.587,0,0,0,.586.611Z" transform="translate(-65.592 37.854)" fill="#a6a2b3"/>
            <path id="Trazado_133043" data-name="Trazado 133043" d="M104.392,240.473h97.154a.591.591,0,0,0,.586-.591V79.772a.587.587,0,0,0-.586-.591H105.215a.588.588,0,0,0,0,1.177h95.74V239.3H104.392a.588.588,0,1,0,0,1.177Z" transform="translate(82.301 -77.964)" fill="#a6a2b3"/>
            <rect id="Rectángulo_31597" data-name="Rectángulo 31597" width="6.568" height="6.568" transform="translate(218.02 95.928) rotate(180)" fill="#a6a2b3"/>
            <rect id="Rectángulo_31598" data-name="Rectángulo 31598" width="6.568" height="6.568" transform="translate(131.324 26.323) rotate(180)" fill="#a6a2b3"/>
            <rect id="Rectángulo_31599" data-name="Rectángulo 31599" width="6.568" height="6.568" transform="translate(40.073 95.601) rotate(180)" fill="#a6a2b3"/>
            <rect id="Rectángulo_31600" data-name="Rectángulo 31600" width="6.568" height="6.568" transform="translate(126.544 133.955) rotate(180)" fill="#a6a2b3"/>
            <rect id="Rectángulo_31601" data-name="Rectángulo 31601" width="6.568" height="6.568" transform="translate(25.96 29.607) rotate(180)" fill="#a6a2b3"/>
          </g>
        </g>
        <g id="Grupo_59822" data-name="Grupo 59822" transform="translate(44.476 178.067)">
          <g id="Grupo_59810" data-name="Grupo 59810" transform="translate(0 6.832)">
            <path id="Trazado_125268" data-name="Trazado 125268" d="M54.3,99.92l18.851-36.6a6.775,6.775,0,0,0-12.046-6.2L42.25,93.716Z" transform="translate(-39.083 -53.444)" fill="#d32f2f"/>
            <path id="Trazado_125269" data-name="Trazado 125269" d="M67.554,63.54c-1.726,3.494-3.542,7.173-4.185,11.051a9.715,9.715,0,0,0,.316,5.441,6.675,6.675,0,0,0,1.88,2.483L75.8,62.653a4.632,4.632,0,0,0-3.64-6.729A45.988,45.988,0,0,0,67.554,63.54Z" transform="translate(-42.94 -53.902)" fill="#fff" opacity="0.5" style="mix-blend-mode: soft-light;isolation: isolate"/>
            <path id="Trazado_125270" data-name="Trazado 125270" d="M54.29,82.09c.737-5.981,3.374-11.582,6-16.941a72.024,72.024,0,0,1,6.951-11.7A6.775,6.775,0,0,0,61.1,57.118L42.25,93.716,54.3,99.92l3.676-7.138C54.85,90.2,53.773,86.289,54.29,82.09Z" transform="translate(-39.083 -53.444)" fill="#d32f2f" style="mix-blend-mode: multiply;isolation: isolate"/>
            <path id="Trazado_125271" data-name="Trazado 125271" d="M51.571,102.853a14.634,14.634,0,0,1-4.325-7.334,20.627,20.627,0,0,1-.306-3.847l-4.69,9.1,12.045,6.2.757-1.472A15.4,15.4,0,0,1,51.571,102.853Z" transform="translate(-39.083 -60.505)" fill="#c7cacf" style="mix-blend-mode: multiply;isolation: isolate"/>
            <path id="Trazado_125272" data-name="Trazado 125272" d="M41.373,116.757l3.057,1.575-1.718,3.336-4.347.926Z" transform="translate(-38.365 -65.138)" fill="#c61f1b"/>
            <path id="Trazado_125273" data-name="Trazado 125273" d="M43.639,117.84l-2.285,4.436,1.911-.407,1.718-3.336Z" transform="translate(-38.917 -65.338)" fill="#c7cacf" style="mix-blend-mode: multiply;isolation: isolate"/>
            <path id="Trazado_125274" data-name="Trazado 125274" d="M54.1,109.048l-6.033-3.108-6.034-3.108c2.811,3.821-.333,9.676-.333,9.676-1.293,2.324,0,2.811,0,2.811l1.217.627,1.216.626s1.146.766,2.286-1.635C46.412,114.937,49.354,108.978,54.1,109.048Z" transform="translate(-38.874 -62.566)" fill="#141717"/>
            <path id="Trazado_125275" data-name="Trazado 125275" d="M46.936,112.241a3.843,3.843,0,0,0,1.215.973c.78-1.236,2.337-3.8,4.93-3.766l-4.646-2.393C46.793,108.1,45.638,110.651,46.936,112.241Z" transform="translate(-39.845 -63.346)" fill="#fff" opacity="0.2" style="mix-blend-mode: soft-light;isolation: isolate"/>
            <path id="Trazado_125276" data-name="Trazado 125276" d="M46.7,114.413a5.261,5.261,0,0,1-1.661-1.336c-1.943-2.382-.613-6.078,1.808-7.763l-4.818-2.482c2.811,3.821-.333,9.676-.333,9.676-1.293,2.324,0,2.811,0,2.811l2.434,1.253s1.146.766,2.286-1.635C46.412,114.937,46.513,114.737,46.7,114.413Z" transform="translate(-38.874 -62.566)" fill="#c7cacf" style="mix-blend-mode: multiply;isolation: isolate"/>
          </g>
          <g id="Grupo_59811" data-name="Grupo 59811" transform="translate(14.406 14.252)">
            <path id="Trazado_125277" data-name="Trazado 125277" d="M71.962,109.02l18.851-36.6a6.775,6.775,0,1,0-12.045-6.2l-18.851,36.6Z" transform="translate(-56.752 -62.545)" fill="#fba321"/>
            <path id="Trazado_125278" data-name="Trazado 125278" d="M85.222,72.64c-1.728,3.494-3.543,7.173-4.185,11.052a9.716,9.716,0,0,0,.316,5.441,6.681,6.681,0,0,0,1.88,2.483L93.464,71.754a4.631,4.631,0,0,0-3.64-6.729A46.092,46.092,0,0,0,85.222,72.64Z" transform="translate(-60.61 -63.003)" fill="#fff" opacity="0.5" style="mix-blend-mode: soft-light;isolation: isolate"/>
            <path id="Trazado_125279" data-name="Trazado 125279" d="M71.958,91.191c.737-5.981,3.374-11.583,6-16.941a71.974,71.974,0,0,1,6.95-11.7,6.775,6.775,0,0,0-6.137,3.671l-18.851,36.6,12.044,6.2,3.677-7.138C72.517,99.3,71.441,95.39,71.958,91.191Z" transform="translate(-56.752 -62.545)" fill="#c7cacf" style="mix-blend-mode: multiply;isolation: isolate"/>
            <path id="Trazado_125280" data-name="Trazado 125280" d="M69.238,111.954a14.629,14.629,0,0,1-4.325-7.334,20.627,20.627,0,0,1-.306-3.847l-4.69,9.1,12.044,6.2.758-1.472A15.4,15.4,0,0,1,69.238,111.954Z" transform="translate(-56.752 -69.605)" fill="#c7cacf" style="mix-blend-mode: multiply;isolation: isolate"/>
            <path id="Trazado_125281" data-name="Trazado 125281" d="M59.042,125.858l3.057,1.575-1.718,3.336-4.346.926Z" transform="translate(-56.035 -74.239)" fill="#117a84"/>
            <path id="Trazado_125282" data-name="Trazado 125282" d="M61.309,126.941l-2.285,4.435,1.909-.407,1.718-3.336Z" transform="translate(-56.587 -74.439)" fill="#c7cacf" style="mix-blend-mode: multiply;isolation: isolate"/>
            <path id="Trazado_125283" data-name="Trazado 125283" d="M71.765,118.149l-6.033-3.108L59.7,111.932c2.813,3.822-.331,9.676-.331,9.676-1.293,2.324,0,2.811,0,2.811l1.217.628,1.216.626s1.146.766,2.286-1.636C64.08,124.037,67.022,118.079,71.765,118.149Z" transform="translate(-56.544 -71.666)" fill="#141717"/>
            <path id="Trazado_125284" data-name="Trazado 125284" d="M64.6,121.341a3.827,3.827,0,0,0,1.216.973c.782-1.236,2.337-3.8,4.93-3.766L66.1,116.157C64.461,117.2,63.3,119.751,64.6,121.341Z" transform="translate(-57.514 -72.447)" fill="#fff" opacity="0.2" style="mix-blend-mode: soft-light;isolation: isolate"/>
            <path id="Trazado_125285" data-name="Trazado 125285" d="M64.369,123.513a5.234,5.234,0,0,1-1.659-1.335c-1.944-2.383-.613-6.077,1.806-7.763L59.7,111.932c2.813,3.822-.331,9.676-.331,9.676-1.293,2.324,0,2.811,0,2.811l2.434,1.254s1.146.766,2.286-1.636C64.08,124.037,64.179,123.837,64.369,123.513Z" transform="translate(-56.544 -71.666)" fill="#c7cacf" style="mix-blend-mode: multiply;isolation: isolate"/>
          </g>
          <g id="Grupo_59812" data-name="Grupo 59812" transform="translate(29.277 21.911)">
            <path id="Trazado_125286" data-name="Trazado 125286" d="M90.2,118.415l18.851-36.6a6.775,6.775,0,1,0-12.045-6.2l-18.852,36.6Z" transform="translate(-74.992 -71.939)" fill="#92a7ba"/>
            <path id="Trazado_125287" data-name="Trazado 125287" d="M103.462,82.036c-1.728,3.494-3.543,7.173-4.185,11.051a9.708,9.708,0,0,0,.316,5.441,6.658,6.658,0,0,0,1.881,2.483L111.7,81.149a4.634,4.634,0,0,0-3.639-6.729A45.926,45.926,0,0,0,103.462,82.036Z" transform="translate(-78.85 -72.397)" fill="#fff" opacity="0.5" style="mix-blend-mode: soft-light;isolation: isolate"/>
            <path id="Trazado_125288" data-name="Trazado 125288" d="M90.2,100.586c.737-5.981,3.375-11.583,6-16.941a71.841,71.841,0,0,1,6.951-11.7,6.773,6.773,0,0,0-6.138,3.671l-18.852,36.6,12.047,6.2,3.676-7.137C90.756,108.7,89.679,104.785,90.2,100.586Z" transform="translate(-74.992 -71.94)" fill="#c7cacf" style="mix-blend-mode: multiply;isolation: isolate"/>
            <path id="Trazado_125289" data-name="Trazado 125289" d="M87.478,121.349a14.617,14.617,0,0,1-4.325-7.334,20.706,20.706,0,0,1-.307-3.848l-4.69,9.1,12.047,6.2L90.96,124A15.4,15.4,0,0,1,87.478,121.349Z" transform="translate(-74.992 -79)" fill="#c7cacf" style="mix-blend-mode: multiply;isolation: isolate"/>
            <path id="Trazado_125290" data-name="Trazado 125290" d="M77.282,135.253l3.057,1.575-1.718,3.336-4.346.926Z" transform="translate(-74.275 -83.633)" fill="#003553"/>
            <path id="Trazado_125291" data-name="Trazado 125291" d="M79.547,136.336l-2.285,4.435,1.911-.407,1.718-3.336Z" transform="translate(-74.827 -83.833)" fill="#c7cacf" style="mix-blend-mode: multiply;isolation: isolate"/>
            <path id="Trazado_125292" data-name="Trazado 125292" d="M90.005,127.544l-6.035-3.109-6.033-3.108c2.812,3.822-.332,9.676-.332,9.676-1.294,2.324,0,2.812,0,2.812l1.215.626,1.218.628s1.146.766,2.287-1.637C82.321,133.432,85.262,127.474,90.005,127.544Z" transform="translate(-74.784 -81.061)" fill="#141717"/>
            <path id="Trazado_125293" data-name="Trazado 125293" d="M82.842,130.736a3.818,3.818,0,0,0,1.216.973c.78-1.236,2.337-3.8,4.928-3.766l-4.643-2.392C82.7,126.6,81.544,129.146,82.842,130.736Z" transform="translate(-75.755 -81.842)" fill="#fff" opacity="0.2" style="mix-blend-mode: soft-light;isolation: isolate"/>
            <path id="Trazado_125294" data-name="Trazado 125294" d="M82.607,132.908a5.25,5.25,0,0,1-1.659-1.335c-1.943-2.382-.611-6.077,1.808-7.763l-4.818-2.483c2.812,3.822-.332,9.676-.332,9.676-1.294,2.324,0,2.812,0,2.812l2.433,1.254s1.146.766,2.287-1.637C82.321,133.432,82.42,133.233,82.607,132.908Z" transform="translate(-74.784 -81.061)" fill="#c7cacf" style="mix-blend-mode: multiply;isolation: isolate"/>
          </g>
          <g id="Grupo_59815" data-name="Grupo 59815" transform="translate(17.375)">
            <g id="Grupo_59813" data-name="Grupo 59813" transform="translate(0)">
              <path id="Trazado_125295" data-name="Trazado 125295" d="M74.155,67.624l6.2-12.035A7.219,7.219,0,0,0,67.52,48.978l-6.2,12.035Z" transform="translate(-59.98 -45.064)" fill="#d32f2f"/>
              <path id="Trazado_125296" data-name="Trazado 125296" d="M67.852,64.245l6,3.092,6.419-12.459a4.936,4.936,0,0,0-3.879-7.171,49.085,49.085,0,0,0-4.9,8.115A60.393,60.393,0,0,0,67.852,64.245Z" transform="translate(-61.186 -45.552)" fill="#d32f2f" opacity="0.5" style="mix-blend-mode: soft-light;isolation: isolate"/>
              <path id="Trazado_125297" data-name="Trazado 125297" d="M64.284,62.54c.758-1.692,1.564-3.359,2.368-5a76.727,76.727,0,0,1,7.408-12.47,7.22,7.22,0,0,0-6.54,3.913l-6.2,12.035Z" transform="translate(-59.98 -45.064)" fill="#d32f2f" style="mix-blend-mode: multiply;isolation: isolate"/>
              <rect id="Rectángulo_30445" data-name="Rectángulo 30445" width="2.927" height="14.437" transform="translate(0 18.551) rotate(-62.747)" fill="#d32f2f"/>
            </g>
            <g id="Grupo_59814" data-name="Grupo 59814" transform="translate(1.811 12.553)">
              <path id="Trazado_125298" data-name="Trazado 125298" d="M65.678,80.108a2,2,0,0,1-2.7.862h0a2,2,0,0,1-.863-2.7l8.616-16.728a2,2,0,0,1,2.7-.863h0a2,2,0,0,1,.863,2.7Z" transform="translate(-61.897 -60.461)" fill="#d32f2f"/>
              <path id="Trazado_125299" data-name="Trazado 125299" d="M65.678,80.108a2,2,0,0,1-2.7.862h0a2,2,0,0,1-.863-2.7l8.616-16.728a2,2,0,0,1,2.7-.863h0a2,2,0,0,1,.863,2.7Z" transform="translate(-61.897 -60.461)" fill="#d32f2f"/>
              <path id="Trazado_125300" data-name="Trazado 125300" d="M73.839,60.836,63.4,81.1a2,2,0,0,0,2.553-.918l8.617-16.728A2,2,0,0,0,73.839,60.836Z" transform="translate(-62.175 -60.53)" fill="#d32f2f" style="mix-blend-mode: multiply;isolation: isolate"/>
            </g>
          </g>
          <g id="Grupo_59818" data-name="Grupo 59818" transform="translate(31.966 7.515)">
            <g id="Grupo_59816" data-name="Grupo 59816" transform="translate(0)">
              <path id="Trazado_125301" data-name="Trazado 125301" d="M92.05,76.842l6.2-12.035A7.218,7.218,0,1,0,85.416,58.2l-6.2,12.035Z" transform="translate(-77.876 -54.281)" fill="#fba321"/>
              <path id="Trazado_125302" data-name="Trazado 125302" d="M85.748,73.462l6,3.092,6.42-12.46a4.938,4.938,0,0,0-3.879-7.171,49.031,49.031,0,0,0-4.9,8.115A60.068,60.068,0,0,0,85.748,73.462Z" transform="translate(-79.083 -54.77)" fill="#fba321" opacity="0.5" style="mix-blend-mode: soft-light;isolation: isolate"/>
              <path id="Trazado_125303" data-name="Trazado 125303" d="M82.179,71.757c.759-1.691,1.564-3.358,2.368-5a76.642,76.642,0,0,1,7.408-12.471A7.219,7.219,0,0,0,85.416,58.2l-6.2,12.035Z" transform="translate(-77.876 -54.282)" fill="#fba321" style="mix-blend-mode: multiply;isolation: isolate"/>
              <rect id="Rectángulo_30446" data-name="Rectángulo 30446" width="2.927" height="14.436" transform="translate(0 18.552) rotate(-62.745)" fill="#fba321"/>
            </g>
            <g id="Grupo_59817" data-name="Grupo 59817" transform="translate(1.81 12.554)">
              <path id="Trazado_125304" data-name="Trazado 125304" d="M83.574,89.324a2,2,0,0,1-2.695.863h0a2,2,0,0,1-.863-2.7l8.617-16.727a2,2,0,0,1,2.7-.863h0a2,2,0,0,1,.862,2.7Z" transform="translate(-79.793 -69.679)" fill="#fba321"/>
              <path id="Trazado_125305" data-name="Trazado 125305" d="M83.574,89.324a2,2,0,0,1-2.695.863h0a2,2,0,0,1-.863-2.7l8.617-16.727a2,2,0,0,1,2.7-.863h0a2,2,0,0,1,.862,2.7Z" transform="translate(-79.793 -69.679)" fill="#fba321"/>
              <path id="Trazado_125306" data-name="Trazado 125306" d="M91.734,70.054,81.3,90.313a2,2,0,0,0,2.553-.92l8.616-16.728A1.994,1.994,0,0,0,91.734,70.054Z" transform="translate(-80.071 -69.748)" fill="#fba321" style="mix-blend-mode: multiply;isolation: isolate"/>
            </g>
          </g>
          <g id="Grupo_59821" data-name="Grupo 59821" transform="translate(46.835 15.175)">
            <g id="Grupo_59819" data-name="Grupo 59819" transform="translate(0)">
              <path id="Trazado_125307" data-name="Trazado 125307" d="M110.289,86.237l6.2-12.035a7.219,7.219,0,0,0-12.834-6.611l-6.2,12.035Z" transform="translate(-96.115 -63.676)" fill="#92a7ba"/>
              <path id="Trazado_125308" data-name="Trazado 125308" d="M103.986,82.857l6,3.092,6.419-12.459a4.938,4.938,0,0,0-3.879-7.171,49.061,49.061,0,0,0-4.9,8.115A60.314,60.314,0,0,0,103.986,82.857Z" transform="translate(-97.321 -64.165)" fill="#92a7ba" opacity="0.5" style="mix-blend-mode: soft-light;isolation: isolate"/>
              <path id="Trazado_125309" data-name="Trazado 125309" d="M100.419,81.152c.759-1.691,1.564-3.358,2.368-5a76.8,76.8,0,0,1,7.406-12.47,7.217,7.217,0,0,0-6.538,3.912l-6.2,12.035Z" transform="translate(-96.115 -63.677)" fill="#92a7ba" style="mix-blend-mode: multiply;isolation: isolate"/>
              <rect id="Rectángulo_30447" data-name="Rectángulo 30447" width="2.927" height="14.437" transform="translate(0 18.552) rotate(-62.748)" fill="#92a7ba"/>
            </g>
            <g id="Grupo_59820" data-name="Grupo 59820" transform="translate(1.812 12.554)">
              <path id="Trazado_125310" data-name="Trazado 125310" d="M101.813,98.72a2,2,0,0,1-2.7.863h0a2,2,0,0,1-.863-2.7l8.616-16.728a2,2,0,0,1,2.7-.863h0a2,2,0,0,1,.863,2.7Z" transform="translate(-98.033 -79.074)" fill="#92a7ba"/>
              <path id="Trazado_125311" data-name="Trazado 125311" d="M101.813,98.72a2,2,0,0,1-2.7.863h0a2,2,0,0,1-.863-2.7l8.616-16.728a2,2,0,0,1,2.7-.863h0a2,2,0,0,1,.863,2.7Z" transform="translate(-98.033 -79.074)" fill="#92a7ba"/>
              <path id="Trazado_125312" data-name="Trazado 125312" d="M109.974,79.449,99.539,99.708a2,2,0,0,0,2.553-.919l8.616-16.728A1.994,1.994,0,0,0,109.974,79.449Z" transform="translate(-98.311 -79.143)" fill="#92a7ba" style="mix-blend-mode: multiply;isolation: isolate"/>
            </g>
          </g>
        </g>
        <g id="Grupo_59806" data-name="Grupo 59806" transform="translate(0 81.994)">
          <path id="Trazado_125246" data-name="Trazado 125246" d="M25.827,234.179l-5.95,12.071,12.358-5.329Z" transform="translate(-19.877 -161.466)" fill="#e4be84"/>
          <path id="Trazado_125247" data-name="Trazado 125247" d="M21.987,240.85l-2.11,4.279,4.38-1.89Z" transform="translate(-19.877 -160.345)" fill="#2d353d"/>
          <rect id="Rectángulo_30423" data-name="Rectángulo 30423" width="95.288" height="3.101" transform="translate(5.945 72.708) rotate(-43.54)" fill="#2e363e"/>
          <rect id="Rectángulo_30424" data-name="Rectángulo 30424" width="95.288" height="3.1" transform="matrix(0.725, -0.689, 0.689, 0.725, 8.079, 74.954)" fill="#252b31"/>
          <rect id="Rectángulo_30425" data-name="Rectángulo 30425" width="95.288" height="3.101" transform="translate(10.234 77.221) rotate(-43.57)" fill="#1a1f23"/>
          <rect id="Rectángulo_30426" data-name="Rectángulo 30426" width="4.822" height="9.301" transform="matrix(0.725, -0.689, 0.689, 0.725, 75.013, 7.064)" fill="#8a898f"/>
          <rect id="Rectángulo_30427" data-name="Rectángulo 30427" width="0.862" height="9.301" transform="matrix(0.725, -0.689, 0.689, 0.725, 76.054, 6.076)" fill="#cfd1d6"/>
          <rect id="Rectángulo_30428" data-name="Rectángulo 30428" width="0.862" height="9.301" transform="matrix(0.725, -0.689, 0.689, 0.725, 77.26, 4.929)" fill="#cfd1d6"/>
          <path id="Trazado_125248" data-name="Trazado 125248" d="M93.5,182.408l2.592-2.462a4.649,4.649,0,1,0-6.406-6.739l-2.592,2.462Z" transform="translate(-8.582 -171.928)" fill="#db4139"/>
          <path id="Trazado_125249" data-name="Trazado 125249" d="M91.927,176.282c.267.953.8,2.252,1.871,2.529a4.715,4.715,0,0,0,1.293.15,3.808,3.808,0,0,0-.8-5.952A2.617,2.617,0,0,0,91.927,176.282Z" transform="translate(-7.784 -171.746)" fill="#fff" style="mix-blend-mode: soft-light;isolation: isolate"/>
          <path id="Trazado_125250" data-name="Trazado 125250" d="M94.817,180.237a4.418,4.418,0,0,1-2.98-3.556,3.971,3.971,0,0,1,2.476-4.53,4.649,4.649,0,0,0-4.631,1.055l-2.592,2.462,6.406,6.738,2.147-2.042A4.576,4.576,0,0,1,94.817,180.237Z" transform="translate(-8.582 -171.927)" fill="#b6b8bf" style="mix-blend-mode: multiply;isolation: isolate"/>
        </g>
        <g id="Grupo_59808" data-name="Grupo 59808" transform="translate(162.038 0)">
          <path id="Trazado_125256" data-name="Trazado 125256" d="M172.2,157.658l7.992,10.826.935-13.425Z" transform="translate(-143.039 -52.157)" fill="#e4be84"/>
          <path id="Trazado_125257" data-name="Trazado 125257" d="M176.617,163.4l2.833,3.838.333-4.76Z" transform="translate(-142.297 -50.91)" fill="#2d353d"/>
          <rect id="Rectángulo_30435" data-name="Rectángulo 30435" width="3.099" height="95.288" transform="translate(2.534 14.01) rotate(-16.226)" fill="#f9a529"/>
          <rect id="Rectángulo_30436" data-name="Rectángulo 30436" width="3.098" height="95.288" transform="translate(5.502 13.146) rotate(-16.236)" fill="#d17d21"/>
          <rect id="Rectángulo_30437" data-name="Rectángulo 30437" width="3.101" height="95.288" transform="translate(8.486 12.277) rotate(-16.225)" fill="#ab561a"/>
          <rect id="Rectángulo_30438" data-name="Rectángulo 30438" width="9.299" height="4.822" transform="translate(1.185 9.38) rotate(-16.229)" fill="#8a898f"/>
          <path id="Trazado_125258" data-name="Trazado 125258" d="M158.022,75.671l-8.927,2.6-.242-.827,8.929-2.6Z" transform="translate(-146.963 -65.637)" fill="#cfd1d6"/>
          <path id="Trazado_125259" data-name="Trazado 125259" d="M157.624,74.3,148.7,76.9l-.242-.827,8.929-2.6Z" transform="translate(-147.03 -65.867)" fill="#cfd1d6"/>
          <path id="Trazado_125260" data-name="Trazado 125260" d="M157.343,73.745l-1-3.433a4.646,4.646,0,1,0-8.922,2.6l1,3.433Z" transform="translate(-147.235 -66.962)" fill="#db4139"/>
          <path id="Trazado_125261" data-name="Trazado 125261" d="M151.362,71.624c.968.2,2.369.321,3.1-.5a4.672,4.672,0,0,0,.728-1.079,3.807,3.807,0,0,0-5.653-2.025A2.618,2.618,0,0,0,151.362,71.624Z" transform="translate(-146.887 -66.883)" fill="#fff" style="mix-blend-mode: soft-light;isolation: isolate"/>
          <path id="Trazado_125262" data-name="Trazado 125262" d="M156.022,71.381A4.409,4.409,0,0,1,151.5,72.4a3.971,3.971,0,0,1-2.889-4.279,4.646,4.646,0,0,0-1.186,4.6l1,3.433,8.923-2.6-.828-2.847A4.421,4.421,0,0,1,156.022,71.381Z" transform="translate(-147.235 -66.767)" fill="#b6b8bf" style="mix-blend-mode: multiply;isolation: isolate"/>
        </g>
        <g id="Grupo_59807" data-name="Grupo 59807" transform="translate(417.28 68.658)">
          <path id="Trazado_125251" data-name="Trazado 125251" d="M239.715,376.907l6.827,7.576-.285-10.194Z" transform="translate(-210.27 -299.123)" fill="#e4be84"/>
          <path id="Trazado_125252" data-name="Trazado 125252" d="M244.691,382.651l2.422,2.686-.1-3.615Z" transform="translate(-210.841 -299.976)" fill="#2d353d"/>
          <rect id="Rectángulo_30429" data-name="Rectángulo 30429" width="2.348" height="72.213" transform="translate(2.613 10.741) rotate(-21.816)" fill="#db4139"/>
          <rect id="Rectángulo_30430" data-name="Rectángulo 30430" width="2.349" height="72.213" transform="translate(4.803 9.865) rotate(-21.799)" fill="#c43132"/>
          <rect id="Rectángulo_30431" data-name="Rectángulo 30431" width="2.349" height="72.213" transform="translate(6.975 8.996) rotate(-21.814)" fill="#932726"/>
          <rect id="Rectángulo_30432" data-name="Rectángulo 30432" width="7.047" height="3.654" transform="translate(1.26 7.347) rotate(-21.81)" fill="#8a898f"/>
          <rect id="Rectángulo_30433" data-name="Rectángulo 30433" width="7.047" height="0.653" transform="translate(1.971 9.124) rotate(-21.804)" fill="#cfd1d6"/>
          <rect id="Rectángulo_30434" data-name="Rectángulo 30434" width="7.046" height="0.653" transform="translate(1.502 7.953) rotate(-21.81)" fill="#cfd1d6"/>
          <path id="Trazado_125253" data-name="Trazado 125253" d="M214.25,294.1l-1.006-2.515a3.522,3.522,0,0,0-6.541,2.617l1.008,2.515Z" transform="translate(-206.451 -289.374)" fill="#db4139"/>
          <path id="Trazado_125254" data-name="Trazado 125254" d="M210.066,293.032a2.532,2.532,0,0,0,2.3-.607,3.576,3.576,0,0,0,.468-.868,2.885,2.885,0,0,0-4.412-1.111A1.983,1.983,0,0,0,210.066,293.032Z" transform="translate(-206.665 -289.427)" fill="#fff" style="mix-blend-mode: soft-light;isolation: isolate"/>
          <path id="Trazado_125255" data-name="Trazado 125255" d="M213.094,292.731a3.342,3.342,0,0,1-3.338,1.1,3.008,3.008,0,0,1-2.494-3.015,3.527,3.527,0,0,0-.559,3.556l1.008,2.515,6.539-2.617-.834-2.085A3.351,3.351,0,0,1,213.094,292.731Z" transform="translate(-206.451 -289.539)" fill="#b6b8bf" style="mix-blend-mode: multiply;isolation: isolate"/>
        </g>
        <g id="Grupo_59809" data-name="Grupo 59809" transform="translate(405.736 148.793)">
          <path id="Trazado_125263" data-name="Trazado 125263" d="M340.855,348.126l-3.335,9.638,8.788-5.173Z" transform="translate(-337.52 -286.037)" fill="#e4be84"/>
          <path id="Trazado_125264" data-name="Trazado 125264" d="M338.7,355.154l-1.183,3.416,3.115-1.834Z" transform="translate(-337.52 -286.844)" fill="#2d353d"/>
          <rect id="Rectángulo_30439" data-name="Rectángulo 30439" width="72.213" height="2.35" transform="matrix(0.633, -0.774, 0.774, 0.633, 3.34, 62.094)" fill="#1ba4b6"/>
          <rect id="Rectángulo_30440" data-name="Rectángulo 30440" width="72.213" height="2.35" transform="translate(5.145 63.571) rotate(-50.675)" fill="#168b98"/>
          <rect id="Rectángulo_30441" data-name="Rectángulo 30441" width="72.213" height="2.349" transform="matrix(0.633, -0.774, 0.774, 0.633, 6.971, 65.067)" fill="#0e737c"/>
          <rect id="Rectángulo_30442" data-name="Rectángulo 30442" width="3.654" height="7.048" transform="translate(49.081 6.215) rotate(-50.69)" fill="#8a898f"/>
          <rect id="Rectángulo_30443" data-name="Rectángulo 30443" width="0.653" height="7.048" transform="translate(49.769 5.373) rotate(-50.689)" fill="#cfd1d6"/>
          <rect id="Rectángulo_30444" data-name="Rectángulo 30444" width="0.652" height="7.048" transform="translate(50.57 4.397) rotate(-50.689)" fill="#cfd1d6"/>
          <path id="Trazado_125265" data-name="Trazado 125265" d="M401.033,285.834l1.717-2.1a3.523,3.523,0,0,0-5.452-4.463l-1.716,2.1Z" transform="translate(-344.186 -277.984)" fill="#db4139"/>
          <path id="Trazado_125266" data-name="Trazado 125266" d="M400.434,281.538c.289.69.813,1.617,1.645,1.724a3.551,3.551,0,0,0,.985-.01,2.883,2.883,0,0,0-1.159-4.4A1.982,1.982,0,0,0,400.434,281.538Z" transform="translate(-344.726 -278.083)" fill="#fff" style="mix-blend-mode: soft-light;isolation: isolate"/>
          <path id="Trazado_125267" data-name="Trazado 125267" d="M401.822,284.078a3.341,3.341,0,0,1-2.576-2.393,3.009,3.009,0,0,1,1.435-3.639,3.52,3.52,0,0,0-3.382,1.229l-1.716,2.1,5.451,4.463,1.423-1.738A3.544,3.544,0,0,1,401.822,284.078Z" transform="translate(-344.186 -277.984)" fill="#b6b8bf" style="mix-blend-mode: multiply;isolation: isolate"/>
        </g>
      </g>
    </g>
  </g>
</svg>
