<svg xmlns="http://www.w3.org/2000/svg" width="351" height="232" viewBox="0 0 351 232">
  <g id="Grupo_62896" data-name="Grupo 62896" transform="translate(-915 -1427)">
    <g id="Grupo_62064" data-name="Grupo 62064" transform="translate(630 -398)">
      <g id="Grupo_59591" data-name="Grupo 59591" transform="translate(285 2017)">
        <g id="Grupo_59590" data-name="Grupo 59590">
          <rect id="Rectángulo_29951" data-name="Rectángulo 29951" width="351" height="40" fill="#e8e8e8"/>
          <path id="Trazado_133995" data-name="Trazado 133995" d="M8.176,14H6.951L2.3,6.878V14H1.073V4.758H2.3l4.666,7.154V4.758H8.176Zm1.669-3.5a4.057,4.057,0,0,1,.4-1.815,2.96,2.96,0,0,1,1.1-1.244A3.007,3.007,0,0,1,12.962,7a2.9,2.9,0,0,1,2.269.971A3.736,3.736,0,0,1,16.1,10.56v.083a4.092,4.092,0,0,1-.384,1.8,2.916,2.916,0,0,1-1.1,1.241,3.041,3.041,0,0,1-1.641.444,2.889,2.889,0,0,1-2.263-.971,3.718,3.718,0,0,1-.866-2.571Zm1.181.14a2.938,2.938,0,0,0,.53,1.834,1.8,1.8,0,0,0,2.841-.01,3.213,3.213,0,0,0,.527-1.965,2.933,2.933,0,0,0-.536-1.831,1.705,1.705,0,0,0-1.425-.7,1.686,1.686,0,0,0-1.4.692A3.189,3.189,0,0,0,11.026,10.642Zm8.138-5.173V7.132h1.282V8.04H19.164V12.3a.953.953,0,0,0,.171.62.721.721,0,0,0,.584.207,2.843,2.843,0,0,0,.559-.076V14a3.424,3.424,0,0,1-.9.126,1.462,1.462,0,0,1-1.187-.476,2.045,2.045,0,0,1-.4-1.352V8.04h-1.25V7.132h1.25V5.469ZM26.057,14a2.467,2.467,0,0,1-.165-.724,2.62,2.62,0,0,1-1.955.851,2.424,2.424,0,0,1-1.666-.574A1.859,1.859,0,0,1,21.62,12.1a1.942,1.942,0,0,1,.816-1.666,3.846,3.846,0,0,1,2.295-.594h1.143V9.3a1.319,1.319,0,0,0-.368-.981,1.48,1.48,0,0,0-1.085-.365,1.712,1.712,0,0,0-1.054.317.935.935,0,0,0-.425.768H21.76a1.621,1.621,0,0,1,.365-.993,2.491,2.491,0,0,1,.99-.759A3.331,3.331,0,0,1,24.489,7a2.715,2.715,0,0,1,1.86.594,2.141,2.141,0,0,1,.7,1.635v3.161a3.865,3.865,0,0,0,.241,1.5V14Zm-1.949-.9a2.064,2.064,0,0,0,1.047-.286,1.728,1.728,0,0,0,.717-.743V10.667h-.92q-2.158,0-2.158,1.263a1.069,1.069,0,0,0,.368.863A1.415,1.415,0,0,0,24.108,13.1Zm4.805.279a.735.735,0,0,1,.181-.508.689.689,0,0,1,.543-.2.71.71,0,0,1,.549.2.721.721,0,0,1,.187.508.681.681,0,0,1-.187.489.723.723,0,0,1-.549.2.653.653,0,0,1-.724-.686ZM37.02,14H35.8V4.758H37.02Zm3.148-6.868.032.762A2.536,2.536,0,0,1,42.237,7a1.964,1.964,0,0,1,1.961,1.1,2.6,2.6,0,0,1,.892-.8,2.634,2.634,0,0,1,1.3-.3q2.26,0,2.3,2.393V14H47.512V9.468a1.577,1.577,0,0,0-.336-1.1A1.482,1.482,0,0,0,46.046,8a1.557,1.557,0,0,0-1.085.39,1.584,1.584,0,0,0-.5,1.051V14H43.278V9.5A1.31,1.31,0,0,0,41.812,8a1.571,1.571,0,0,0-1.581.984V14H39.057V7.132ZM54.7,14a2.467,2.467,0,0,1-.165-.724,2.62,2.62,0,0,1-1.955.851,2.424,2.424,0,0,1-1.666-.574,1.859,1.859,0,0,1-.651-1.457,1.942,1.942,0,0,1,.816-1.666,3.846,3.846,0,0,1,2.295-.594h1.143V9.3a1.319,1.319,0,0,0-.368-.981,1.48,1.48,0,0,0-1.085-.365,1.712,1.712,0,0,0-1.054.317.935.935,0,0,0-.425.768H50.4a1.621,1.621,0,0,1,.365-.993,2.491,2.491,0,0,1,.99-.759A3.331,3.331,0,0,1,53.13,7a2.715,2.715,0,0,1,1.86.594,2.141,2.141,0,0,1,.7,1.635v3.161a3.865,3.865,0,0,0,.241,1.5V14Zm-1.949-.9a2.064,2.064,0,0,0,1.047-.286,1.728,1.728,0,0,0,.717-.743V10.667h-.92q-2.158,0-2.158,1.263a1.069,1.069,0,0,0,.368.863A1.415,1.415,0,0,0,52.749,13.1Zm4.5-2.6a4.037,4.037,0,0,1,.743-2.555,2.56,2.56,0,0,1,3.929-.06l.057-.762h1.073v6.7a2.794,2.794,0,0,1-.79,2.1,2.916,2.916,0,0,1-2.123.768,3.532,3.532,0,0,1-1.454-.317,2.5,2.5,0,0,1-1.085-.87l.609-.7a2.3,2.3,0,0,0,1.847.933,1.8,1.8,0,0,0,1.336-.482,1.844,1.844,0,0,0,.479-1.358v-.59a2.414,2.414,0,0,1-1.923.813A2.346,2.346,0,0,1,58,13.156,4.244,4.244,0,0,1,57.25,10.509Zm1.181.133a3.08,3.08,0,0,0,.476,1.825,1.547,1.547,0,0,0,1.333.663,1.72,1.72,0,0,0,1.631-1.009V8.985A1.74,1.74,0,0,0,60.252,8a1.561,1.561,0,0,0-1.339.667A3.354,3.354,0,0,0,58.43,10.642Zm9.242,3.485A3,3,0,0,1,65.4,13.21a3.4,3.4,0,0,1-.876-2.453v-.216a4.121,4.121,0,0,1,.39-1.825,3.045,3.045,0,0,1,1.092-1.257A2.745,2.745,0,0,1,67.526,7a2.572,2.572,0,0,1,2.082.882,3.82,3.82,0,0,1,.743,2.526V10.9H65.7a2.441,2.441,0,0,0,.594,1.641,1.866,1.866,0,0,0,1.444.625,2.045,2.045,0,0,0,1.054-.254,2.648,2.648,0,0,0,.755-.673l.717.559A2.884,2.884,0,0,1,67.672,14.127ZM67.526,7.97a1.566,1.566,0,0,0-1.193.517,2.515,2.515,0,0,0-.6,1.45h3.44V9.849a2.237,2.237,0,0,0-.482-1.387A1.475,1.475,0,0,0,67.526,7.97Zm5.294-.838L72.858,8A2.5,2.5,0,0,1,74.915,7q2.177,0,2.2,2.457V14H75.937V9.455a1.581,1.581,0,0,0-.34-1.1A1.361,1.361,0,0,0,74.56,8a1.7,1.7,0,0,0-1,.3,2.069,2.069,0,0,0-.673.8V14H71.709V7.132Zm12.13,7a3,3,0,0,1-2.272-.917,3.4,3.4,0,0,1-.876-2.453v-.216a4.121,4.121,0,0,1,.39-1.825,3.045,3.045,0,0,1,1.092-1.257A2.745,2.745,0,0,1,84.8,7a2.572,2.572,0,0,1,2.082.882,3.82,3.82,0,0,1,.743,2.526V10.9H82.977a2.441,2.441,0,0,0,.594,1.641,1.866,1.866,0,0,0,1.444.625,2.045,2.045,0,0,0,1.054-.254,2.648,2.648,0,0,0,.755-.673l.717.559A2.884,2.884,0,0,1,84.951,14.127ZM84.8,7.97a1.566,1.566,0,0,0-1.193.517,2.515,2.515,0,0,0-.6,1.45h3.44V9.849a2.237,2.237,0,0,0-.482-1.387A1.475,1.475,0,0,0,84.8,7.97Zm6.487,1.669,1.523-2.507h1.371l-2.247,3.4L94.256,14H92.9l-1.587-2.571L89.724,14H88.359l2.317-3.472-2.247-3.4h1.358Zm5.732-4.17V7.132h1.282V8.04H97.024V12.3a.953.953,0,0,0,.171.62.721.721,0,0,0,.584.207,2.843,2.843,0,0,0,.559-.076V14a3.424,3.424,0,0,1-.9.126,1.462,1.462,0,0,1-1.187-.476,2.045,2.045,0,0,1-.4-1.352V8.04H94.6V7.132h1.25V5.469ZM103,8.186a3.519,3.519,0,0,0-.578-.044,1.547,1.547,0,0,0-1.568.984V14H99.677V7.132h1.143l.019.793A1.829,1.829,0,0,1,102.477,7a1.2,1.2,0,0,1,.521.089ZM108.063,14a2.467,2.467,0,0,1-.165-.724,2.62,2.62,0,0,1-1.955.851,2.424,2.424,0,0,1-1.666-.574,1.859,1.859,0,0,1-.651-1.457,1.942,1.942,0,0,1,.816-1.666,3.846,3.846,0,0,1,2.295-.594h1.143V9.3a1.319,1.319,0,0,0-.368-.981,1.48,1.48,0,0,0-1.085-.365,1.712,1.712,0,0,0-1.054.317.935.935,0,0,0-.425.768h-1.181a1.621,1.621,0,0,1,.365-.993,2.491,2.491,0,0,1,.99-.759A3.331,3.331,0,0,1,106.495,7a2.715,2.715,0,0,1,1.86.594,2.141,2.141,0,0,1,.7,1.635v3.161a3.865,3.865,0,0,0,.241,1.5V14Zm-1.949-.9a2.064,2.064,0,0,0,1.047-.286,1.728,1.728,0,0,0,.717-.743V10.667h-.92q-2.158,0-2.158,1.263a1.069,1.069,0,0,0,.368.863A1.415,1.415,0,0,0,106.114,13.1Zm6.056.9h-1.181V7.132h1.181Zm.013-9.744H113.6l-1.7,1.866-.946,0Zm1.638,6.252a4.023,4.023,0,0,1,.749-2.542,2.548,2.548,0,0,1,3.872-.136V4.25h1.174V14h-1.079l-.057-.736a2.391,2.391,0,0,1-1.961.863,2.346,2.346,0,0,1-1.946-.978,4.069,4.069,0,0,1-.752-2.552Zm1.174.133a3.046,3.046,0,0,0,.482,1.828,1.56,1.56,0,0,0,1.333.66,1.713,1.713,0,0,0,1.631-1V8.973A1.726,1.726,0,0,0,116.822,8a1.567,1.567,0,0,0-1.346.667A3.354,3.354,0,0,0,114.994,10.642ZM125.677,14a2.467,2.467,0,0,1-.165-.724,2.62,2.62,0,0,1-1.955.851,2.424,2.424,0,0,1-1.666-.574,1.859,1.859,0,0,1-.651-1.457,1.942,1.942,0,0,1,.816-1.666,3.846,3.846,0,0,1,2.295-.594h1.143V9.3a1.319,1.319,0,0,0-.368-.981,1.48,1.48,0,0,0-1.085-.365,1.712,1.712,0,0,0-1.054.317.935.935,0,0,0-.425.768H121.38a1.621,1.621,0,0,1,.365-.993,2.491,2.491,0,0,1,.99-.759A3.331,3.331,0,0,1,124.109,7a2.715,2.715,0,0,1,1.86.594,2.141,2.141,0,0,1,.7,1.635v3.161a3.865,3.865,0,0,0,.241,1.5V14Zm-1.949-.9a2.064,2.064,0,0,0,1.047-.286,1.728,1.728,0,0,0,.717-.743V10.667h-.92q-2.158,0-2.158,1.263a1.069,1.069,0,0,0,.368.863A1.415,1.415,0,0,0,123.729,13.1Zm7.712-2.6a4.023,4.023,0,0,1,.749-2.542,2.548,2.548,0,0,1,3.872-.136V4.25h1.174V14h-1.079l-.057-.736a2.391,2.391,0,0,1-1.961.863,2.346,2.346,0,0,1-1.946-.978,4.069,4.069,0,0,1-.752-2.552Zm1.174.133a3.046,3.046,0,0,0,.482,1.828,1.56,1.56,0,0,0,1.333.66,1.713,1.713,0,0,0,1.631-1V8.973A1.726,1.726,0,0,0,134.443,8a1.567,1.567,0,0,0-1.346.667A3.354,3.354,0,0,0,132.615,10.642Zm9.293,3.485a3,3,0,0,1-2.272-.917,3.4,3.4,0,0,1-.876-2.453v-.216a4.121,4.121,0,0,1,.39-1.825,3.045,3.045,0,0,1,1.092-1.257A2.745,2.745,0,0,1,141.762,7a2.572,2.572,0,0,1,2.082.882,3.82,3.82,0,0,1,.743,2.526V10.9h-4.653a2.441,2.441,0,0,0,.594,1.641,1.866,1.866,0,0,0,1.444.625,2.045,2.045,0,0,0,1.054-.254,2.647,2.647,0,0,0,.755-.673l.717.559A2.884,2.884,0,0,1,141.908,14.127Zm-.146-6.157a1.566,1.566,0,0,0-1.193.517,2.515,2.515,0,0,0-.6,1.45h3.44V9.849a2.237,2.237,0,0,0-.482-1.387A1.475,1.475,0,0,0,141.762,7.97Zm12.689,3.612h-3.872L149.709,14h-1.257l3.529-9.242h1.066L156.584,14h-1.25Zm-3.5-1h3.142l-1.574-4.323Zm10.867,2.736a2.494,2.494,0,0,1-2.012.806,2.135,2.135,0,0,1-1.673-.638,2.761,2.761,0,0,1-.581-1.888V7.132h1.174v4.437q0,1.562,1.27,1.562a1.758,1.758,0,0,0,1.79-1v-5h1.174V14H161.84Zm4.52-7.852V7.132h1.282V8.04h-1.282V12.3a.953.953,0,0,0,.171.62.721.721,0,0,0,.584.207,2.843,2.843,0,0,0,.559-.076V14a3.424,3.424,0,0,1-.9.126,1.462,1.462,0,0,1-1.187-.476,2.045,2.045,0,0,1-.4-1.352V8.04h-1.25V7.132h1.25V5.469Zm2.215,5.034a4.057,4.057,0,0,1,.4-1.815,2.959,2.959,0,0,1,1.1-1.244A3.007,3.007,0,0,1,171.666,7a2.9,2.9,0,0,1,2.269.971,3.736,3.736,0,0,1,.866,2.583v.083a4.092,4.092,0,0,1-.384,1.8,2.916,2.916,0,0,1-1.1,1.241,3.041,3.041,0,0,1-1.641.444,2.889,2.889,0,0,1-2.263-.971,3.718,3.718,0,0,1-.866-2.571Zm1.181.14a2.938,2.938,0,0,0,.53,1.834,1.8,1.8,0,0,0,2.841-.01,3.213,3.213,0,0,0,.527-1.965,2.933,2.933,0,0,0-.536-1.831,1.705,1.705,0,0,0-1.425-.7,1.686,1.686,0,0,0-1.4.692A3.189,3.189,0,0,0,169.73,10.642Zm6.259-.133a4.023,4.023,0,0,1,.749-2.542,2.548,2.548,0,0,1,3.872-.136V4.25h1.174V14h-1.079l-.057-.736a2.391,2.391,0,0,1-1.961.863,2.346,2.346,0,0,1-1.946-.978,4.069,4.069,0,0,1-.752-2.552Zm1.174.133a3.046,3.046,0,0,0,.482,1.828,1.56,1.56,0,0,0,1.333.66,1.713,1.713,0,0,0,1.631-1V8.973A1.726,1.726,0,0,0,178.991,8a1.567,1.567,0,0,0-1.346.667A3.354,3.354,0,0,0,177.163,10.642Zm9.293,3.485a3,3,0,0,1-2.272-.917,3.4,3.4,0,0,1-.876-2.453v-.216a4.121,4.121,0,0,1,.39-1.825,3.045,3.045,0,0,1,1.092-1.257A2.745,2.745,0,0,1,186.31,7a2.572,2.572,0,0,1,2.082.882,3.82,3.82,0,0,1,.743,2.526V10.9h-4.653a2.441,2.441,0,0,0,.594,1.641,1.866,1.866,0,0,0,1.444.625,2.045,2.045,0,0,0,1.054-.254,2.647,2.647,0,0,0,.755-.673l.717.559A2.884,2.884,0,0,1,186.456,14.127ZM186.31,7.97a1.566,1.566,0,0,0-1.193.517,2.515,2.515,0,0,0-.6,1.45h3.44V9.849a2.237,2.237,0,0,0-.482-1.387A1.475,1.475,0,0,0,186.31,7.97Zm8.182,4.208a.865.865,0,0,0-.359-.74,3.452,3.452,0,0,0-1.25-.454,5.912,5.912,0,0,1-1.416-.457,2.014,2.014,0,0,1-.774-.635,1.518,1.518,0,0,1-.251-.876,1.782,1.782,0,0,1,.714-1.428A2.789,2.789,0,0,1,192.981,7a2.87,2.87,0,0,1,1.895.6A1.915,1.915,0,0,1,195.6,9.15h-1.181a1.06,1.06,0,0,0-.409-.832,1.534,1.534,0,0,0-1.031-.349,1.605,1.605,0,0,0-1,.279.879.879,0,0,0-.362.73.712.712,0,0,0,.336.641,4.139,4.139,0,0,0,1.216.413,6.334,6.334,0,0,1,1.425.47,2.079,2.079,0,0,1,.809.657,1.615,1.615,0,0,1,.263.936,1.758,1.758,0,0,1-.736,1.476,3.089,3.089,0,0,1-1.911.555,3.459,3.459,0,0,1-1.46-.292,2.375,2.375,0,0,1-.993-.816,1.966,1.966,0,0,1-.359-1.133h1.174a1.216,1.216,0,0,0,.473.936,1.835,1.835,0,0,0,1.165.346,1.894,1.894,0,0,0,1.07-.27A.829.829,0,0,0,194.492,12.178Zm4.621-1.358-.736.768V14H197.2V4.25h1.174v5.9l.628-.755,2.139-2.26h1.428L199.9,10l2.983,4h-1.377Zm7.846-.571a9.814,9.814,0,0,1,.384-2.755,8,8,0,0,1,1.146-2.4,4.874,4.874,0,0,1,1.581-1.523l.241.774a5.056,5.056,0,0,0-1.52,2.171,9.411,9.411,0,0,0-.651,3.269l-.006.54a9.46,9.46,0,0,0,.9,4.253,5.079,5.079,0,0,0,1.282,1.688l-.241.717a5.031,5.031,0,0,1-1.612-1.574A8.823,8.823,0,0,1,206.959,10.249ZM217.382,14h-6.056v-.844l3.2-3.555a7.6,7.6,0,0,0,.981-1.311,2.188,2.188,0,0,0,.27-1.044,1.658,1.658,0,0,0-.438-1.187A1.531,1.531,0,0,0,214.17,5.6a1.814,1.814,0,0,0-1.362.5,1.9,1.9,0,0,0-.486,1.387h-1.174a2.726,2.726,0,0,1,.822-2.063,3.047,3.047,0,0,1,2.2-.787,2.928,2.928,0,0,1,2.038.676,2.306,2.306,0,0,1,.749,1.8,5.287,5.287,0,0,1-1.739,3.25l-2.476,2.685h4.64Zm7.04-3.942a5.371,5.371,0,0,1-.7,3.066,2.928,2.928,0,0,1-4.393.022,5.1,5.1,0,0,1-.736-2.929V8.649a5.251,5.251,0,0,1,.7-3.028,2.98,2.98,0,0,1,4.405-.035,5.068,5.068,0,0,1,.724,2.948Zm-1.174-1.606a4.3,4.3,0,0,0-.419-2.174A1.442,1.442,0,0,0,221.5,5.6a1.423,1.423,0,0,0-1.314.679,4.2,4.2,0,0,0-.425,2.088v1.879a4.372,4.372,0,0,0,.435,2.212,1.439,1.439,0,0,0,1.317.714,1.42,1.42,0,0,0,1.292-.673,4.214,4.214,0,0,0,.441-2.12ZM231.981,14h-6.056v-.844l3.2-3.555a7.6,7.6,0,0,0,.981-1.311,2.188,2.188,0,0,0,.27-1.044,1.658,1.658,0,0,0-.438-1.187A1.531,1.531,0,0,0,228.77,5.6a1.814,1.814,0,0,0-1.362.5,1.9,1.9,0,0,0-.486,1.387h-1.174a2.726,2.726,0,0,1,.822-2.063,3.047,3.047,0,0,1,2.2-.787,2.928,2.928,0,0,1,2.038.676,2.306,2.306,0,0,1,.749,1.8,5.287,5.287,0,0,1-1.739,3.25l-2.476,2.685h4.64Zm7.04-3.942a5.371,5.371,0,0,1-.7,3.066,2.928,2.928,0,0,1-4.393.022,5.1,5.1,0,0,1-.736-2.929V8.649a5.251,5.251,0,0,1,.7-3.028,2.98,2.98,0,0,1,4.405-.035,5.068,5.068,0,0,1,.724,2.948Zm-1.174-1.606a4.3,4.3,0,0,0-.419-2.174A1.442,1.442,0,0,0,236.1,5.6a1.423,1.423,0,0,0-1.314.679,4.2,4.2,0,0,0-.425,2.088v1.879a4.372,4.372,0,0,0,.435,2.212,1.439,1.439,0,0,0,1.317.714,1.42,1.42,0,0,0,1.292-.673,4.214,4.214,0,0,0,.441-2.12Zm5.51,1.86a9.819,9.819,0,0,1-.371,2.714,8.024,8.024,0,0,1-1.136,2.4,4.978,4.978,0,0,1-1.6,1.562L240,16.266a5.1,5.1,0,0,0,1.571-2.326,10.065,10.065,0,0,0,.606-3.5v-.2a10.449,10.449,0,0,0-.279-2.479,8.366,8.366,0,0,0-.778-2.053A4.743,4.743,0,0,0,240,4.288l.248-.717a4.959,4.959,0,0,1,1.6,1.549,8.041,8.041,0,0,1,1.136,2.393A10.045,10.045,0,0,1,243.356,10.312Z" transform="translate(15 11)" fill="#12263f"/>
        </g>
      </g>
      <g id="Grupo_62159" data-name="Grupo 62159">
        <g id="Grupo_62895" data-name="Grupo 62895">
          <path id="Trazado_133996" data-name="Trazado 133996" d="M0,0H351V192H0Z" transform="translate(285 1825)" fill="#fff"/>
        </g>
        <g id="Grupo_62155" data-name="Grupo 62155" transform="translate(-118.168 1305.457)">
          <g id="Grupo_62155-2" data-name="Grupo 62155" transform="translate(472.128 533.543)">
            <path id="Trazado_131009" data-name="Trazado 131009" d="M491.381,559.138H479.166l-2.9,8.359h-4.48l11.7-32.454h3.767L498.715,567.5h-4.48Zm-10.944-3.678h9.7l-4.726-13.932h-.133Z" transform="translate(-471.789 -532.724)"/>
            <path id="Trazado_131010" data-name="Trazado 131010" d="M507.088,560.986a8.156,8.156,0,0,1-2.919,2.987,7.986,7.986,0,0,1-4.125,1.048,7.747,7.747,0,0,1-6.151-2.518q-2.208-2.521-2.206-7.846V540.436h4.39V554.7q0,3.856,1.136,5.306a4.227,4.227,0,0,0,3.545,1.449,7.211,7.211,0,0,0,3.866-.948,5.922,5.922,0,0,0,2.308-2.685V540.436h4.391v24.117h-3.945Z" transform="translate(-460.926 -529.78)"/>
            <path id="Trazado_131011" data-name="Trazado 131011" d="M515.383,536.672v5.819h4.57v3.253h-4.57V560.39a3.274,3.274,0,0,0,.7,2.384,2.539,2.539,0,0,0,1.861.691,4.112,4.112,0,0,0,.847-.1,5.911,5.911,0,0,0,.779-.212l.6,3.01a3.874,3.874,0,0,1-1.448.657,7.354,7.354,0,0,1-1.9.257,5.694,5.694,0,0,1-4.257-1.615q-1.582-1.616-1.583-5.071V545.744h-3.834v-3.253h3.834v-5.819Z" transform="translate(-452.48 -531.835)"/>
            <path id="Trazado_131012" data-name="Trazado 131012" d="M517.812,552.43a13.275,13.275,0,0,1,2.9-8.817A10.737,10.737,0,0,1,536.5,543.6a13.238,13.238,0,0,1,2.908,8.827v.49a13.212,13.212,0,0,1-2.9,8.826,10.786,10.786,0,0,1-15.793-.011,13.191,13.191,0,0,1-2.909-8.815Zm4.392.49a11.438,11.438,0,0,0,1.615,6.331,5.84,5.84,0,0,0,9.574,0,11.375,11.375,0,0,0,1.628-6.331v-.49a11.353,11.353,0,0,0-1.639-6.309,5.368,5.368,0,0,0-4.8-2.518,5.3,5.3,0,0,0-4.76,2.518,11.465,11.465,0,0,0-1.615,6.309Z" transform="translate(-446.663 -529.938)"/>
            <path id="Trazado_131013" data-name="Trazado 131013" d="M534.61,556.7a16.094,16.094,0,0,1,2.486-9.384,8.01,8.01,0,0,1,6.966-3.568,8.641,8.641,0,0,1,3.755.781,7.723,7.723,0,0,1,2.8,2.274V533.543h4.39v34.773H551.64l-.669-3.053a7.8,7.8,0,0,1-2.919,2.63,8.736,8.736,0,0,1-4.035.892,8.281,8.281,0,0,1-6.91-3.2,13.289,13.289,0,0,1-2.5-8.415Zm4.392.469a10.22,10.22,0,0,0,1.493,5.85,5.212,5.212,0,0,0,4.636,2.2,5.811,5.811,0,0,0,3.3-.892,6.66,6.66,0,0,0,2.184-2.5V550.573a6.759,6.759,0,0,0-2.2-2.375,5.8,5.8,0,0,0-3.242-.88,5.022,5.022,0,0,0-4.67,2.608A13.461,13.461,0,0,0,539,556.7Z" transform="translate(-437.493 -533.543)"/>
            <path id="Trazado_131014" data-name="Trazado 131014" d="M562.391,565.179a10.2,10.2,0,0,1-8.1-3.322,12.773,12.773,0,0,1-2.909-8.738v-.98a12.51,12.51,0,0,1,3-8.592,9.4,9.4,0,0,1,7.323-3.4q4.837,0,7.255,3.011a12.39,12.39,0,0,1,2.418,8v2.319H555.949l-.067.11a9.969,9.969,0,0,0,1.6,5.9,5.6,5.6,0,0,0,4.9,2.262,11.073,11.073,0,0,0,3.911-.634,8.694,8.694,0,0,0,2.886-1.752l1.718,2.854a10.545,10.545,0,0,1-3.41,2.107A13.619,13.619,0,0,1,562.391,565.179ZM561.7,543.6a4.771,4.771,0,0,0-3.8,1.772,8.383,8.383,0,0,0-1.84,4.536l.045.111h10.877v-.356a7.03,7.03,0,0,0-1.292-4.347A4.674,4.674,0,0,0,561.7,543.6Z" transform="translate(-428.338 -529.938)"/>
            <path id="Trazado_131015" data-name="Trazado 131015" d="M581.789,558.224a2.926,2.926,0,0,0-1.1-2.362,10.666,10.666,0,0,0-4.179-1.606,17.487,17.487,0,0,1-6.542-2.563,5.175,5.175,0,0,1-2.285-4.412,6.363,6.363,0,0,1,2.508-5.038,11.061,11.061,0,0,1,13.141.134,6.386,6.386,0,0,1,2.43,5.193l-.045.134h-4.191a3.8,3.8,0,0,0-1.371-2.832,4.9,4.9,0,0,0-3.466-1.269,4.989,4.989,0,0,0-3.466,1.048,3.268,3.268,0,0,0-1.147,2.5,2.649,2.649,0,0,0,.991,2.208,10.982,10.982,0,0,0,4.09,1.425,17.3,17.3,0,0,1,6.731,2.653,5.339,5.339,0,0,1,2.3,4.482,6.347,6.347,0,0,1-2.6,5.236,10.71,10.71,0,0,1-6.788,2.03,10.6,10.6,0,0,1-7.266-2.341,6.677,6.677,0,0,1-2.518-5.462l.045-.133h4.189a4.06,4.06,0,0,0,1.739,3.421,6.712,6.712,0,0,0,3.811,1.081,6.011,6.011,0,0,0,3.667-.991A3.034,3.034,0,0,0,581.789,558.224Z" transform="translate(-419.807 -529.938)"/>
            <path id="Trazado_131016" data-name="Trazado 131016" d="M589.6,557.193h-2.251v11.123h-4.391V533.543h4.391v20.15h2.208L596.8,544.2h5.259L593.3,555.321l9.518,13h-5.194Z" transform="translate(-411.099 -533.543)"/>
          </g>
          <g id="Grupo_62156" data-name="Grupo 62156" transform="translate(471.168 575.532)">
            <path id="Trazado_131017" data-name="Trazado 131017" d="M492.032,586.3H479.794l-4.146,8.359h-4.48L487.73,562.2H491.5l6.6,32.454h-4.482Zm-10.409-3.678h9.7l-2.631-13.932-.133-.022Z" transform="translate(-471.168 -559.885)"/>
            <path id="Trazado_131018" data-name="Trazado 131018" d="M506.316,591.714l.244-3.455a9.837,9.837,0,0,1-3.353,2.922,9.17,9.17,0,0,1-4.292,1,6.649,6.649,0,0,1-5.706-2.551q-1.9-2.553-1.093-7.813l2.118-14.221h4.39l-2.14,14.264q-.6,3.991.312,5.372t3.366,1.382a7.431,7.431,0,0,0,6.754-3.789L509.48,567.6h4.39l-3.61,24.117Z" transform="translate(-459.862 -556.941)"/>
            <path id="Trazado_131019" data-name="Trazado 131019" d="M518.141,563.833l-.87,5.819h4.57l-.49,3.253h-4.57L514.6,587.551a3,3,0,0,0,.323,2.418,2.265,2.265,0,0,0,1.772.657,4.516,4.516,0,0,0,.86-.1,5.932,5.932,0,0,0,.813-.213l.156,3.01a4.666,4.666,0,0,1-1.549.657,7.743,7.743,0,0,1-1.929.257,4.946,4.946,0,0,1-3.978-1.628q-1.394-1.626-.858-5.058L512.39,572.9h-3.834l.49-3.253h3.834l.869-5.819Z" transform="translate(-450.756 -558.996)"/>
            <path id="Trazado_131020" data-name="Trazado 131020" d="M518.49,579.59a15.379,15.379,0,0,1,4.2-8.917,11.416,11.416,0,0,1,8.393-3.365,8.4,8.4,0,0,1,7.3,3.488q2.486,3.49,1.705,8.795l-.09.49a15.412,15.412,0,0,1-4.213,8.928,11.471,11.471,0,0,1-8.4,3.332,8.4,8.4,0,0,1-7.3-3.477q-2.486-3.478-1.682-8.782Zm4.3.49a10.511,10.511,0,0,0,.646,6.4,4.566,4.566,0,0,0,4.458,2.429,6.312,6.312,0,0,0,5.071-2.528,12.86,12.86,0,0,0,2.64-6.3l.091-.49a10.52,10.52,0,0,0-.68-6.375,4.565,4.565,0,0,0-4.448-2.452,6.311,6.311,0,0,0-5.094,2.551,12.642,12.642,0,0,0-2.6,6.276Z" transform="translate(-445.489 -557.099)"/>
            <path id="Trazado_131021" data-name="Trazado 131021" d="M535.214,583.865a18.272,18.272,0,0,1,3.879-9.5,9.509,9.509,0,0,1,7.51-3.455,7.46,7.46,0,0,1,3.6.826,6.546,6.546,0,0,1,2.486,2.384l2.005-13.419h4.392l-5.216,34.773H550.5l-.2-3.053a9.785,9.785,0,0,1-3.321,2.63,9.571,9.571,0,0,1-4.169.892,7.052,7.052,0,0,1-6.352-3.233q-2.094-3.23-1.316-8.381Zm4.324.467a9.364,9.364,0,0,0,.591,5.907q1.171,2.138,4.335,2.14a6.364,6.364,0,0,0,3.389-.914,8.641,8.641,0,0,0,2.608-2.542l1.673-11.168a5.443,5.443,0,0,0-1.84-2.395,5.168,5.168,0,0,0-3.11-.881,6.007,6.007,0,0,0-5,2.641,14.65,14.65,0,0,0-2.575,6.745Z" transform="translate(-436.355 -560.704)"/>
            <path id="Trazado_131022" data-name="Trazado 131022" d="M561.157,592.34q-4.993,0-7.5-3.366t-1.705-8.694l.156-.98a14.441,14.441,0,0,1,4.247-8.693,11.1,11.1,0,0,1,7.856-3.3q4.661,0,6.711,3.053t1.314,7.958l-.334,2.319H556.3a9.568,9.568,0,0,0,.758,6.051q1.271,2.219,4.615,2.217a11.872,11.872,0,0,0,3.979-.646,10.372,10.372,0,0,0,3.175-1.739l1.294,2.854a12.693,12.693,0,0,1-3.723,2.107A14.707,14.707,0,0,1,561.157,592.34Zm2.542-21.577a5.558,5.558,0,0,0-4,1.782,10.167,10.167,0,0,0-2.574,4.5l.043.133h10.855l.045-.356a6.437,6.437,0,0,0-.625-4.38Q566.418,570.763,563.7,570.763Z" transform="translate(-427.171 -557.099)"/>
            <path id="Trazado_131023" data-name="Trazado 131023" d="M581.827,585.385A2.586,2.586,0,0,0,581.07,583a9.316,9.316,0,0,0-3.968-1.583,15.233,15.233,0,0,1-6.207-2.565,4.451,4.451,0,0,1-1.66-4.412,7.428,7.428,0,0,1,3.2-5.1,11.219,11.219,0,0,1,6.808-2.028,8.579,8.579,0,0,1,6.242,2.252,5.54,5.54,0,0,1,1.806,5.17l-.045.134h-4.213a3.315,3.315,0,0,0-.958-2.852,4.327,4.327,0,0,0-3.3-1.249,5.623,5.623,0,0,0-3.577,1.059,3.813,3.813,0,0,0-1.551,2.484,2.345,2.345,0,0,0,.669,2.229,9.834,9.834,0,0,0,3.924,1.405,14.891,14.891,0,0,1,6.352,2.651,4.657,4.657,0,0,1,1.671,4.482,7.474,7.474,0,0,1-3.321,5.293,12.164,12.164,0,0,1-7.088,1.973,9.373,9.373,0,0,1-6.832-2.362,5.8,5.8,0,0,1-1.861-5.44l.043-.133h4.213a3.553,3.553,0,0,0,1.272,3.421,5.993,5.993,0,0,0,3.655,1.081,6.577,6.577,0,0,0,3.744-1A3.714,3.714,0,0,0,581.827,585.385Z" transform="translate(-418.819 -557.099)"/>
            <path id="Trazado_131024" data-name="Trazado 131024" d="M590.672,584.354H588.4l-1.671,11.123h-4.392l5.216-34.773h4.392l-3.032,20.15h2.206l8.671-9.494h5.083l.066.133-10.3,10.989,7.557,13H597Z" transform="translate(-410.478 -560.704)"/>
          </g>
          <g id="Grupo_62157" data-name="Grupo 62157" transform="translate(473.53 616.175)">
            <path id="Trazado_131025" data-name="Trazado 131025" d="M495.488,612.1l-12.432-.017-5.807,8.22L472.7,620.3l23.024-31.916,3.826,0,.507,31.948-4.553-.006Zm-9.872-3.634,9.851.014-.012-13.712-.13-.022Z" transform="translate(-472.696 -586.236)"/>
            <path id="Trazado_131026" data-name="Trazado 131026" d="M508.01,617.454l.909-3.4a13.065,13.065,0,0,1-3.967,2.869,10.79,10.79,0,0,1-4.55.982q-3.873-.007-5.31-2.52t.382-7.688L500.34,593.7l4.462.006-4.9,14.036q-1.373,3.926-.708,5.287t3.155,1.365a9.2,9.2,0,0,0,4.244-.971,10.273,10.273,0,0,0,3.342-2.747l5.895-16.954,4.46.006-8.274,23.729Z" transform="translate(-460.815 -583.331)"/>
            <path id="Trazado_131027" data-name="Trazado 131027" d="M525.343,590.032l-1.994,5.723,4.642.006-1.119,3.2-4.642-.006-5.017,14.408q-.607,1.732-.133,2.382a1.946,1.946,0,0,0,1.676.648,5.01,5.01,0,0,0,.889-.1,7.355,7.355,0,0,0,.869-.207l-.416,2.96a5.876,5.876,0,0,1-1.7.645,8.7,8.7,0,0,1-2.007.25,4.212,4.212,0,0,1-3.732-1.608q-1.106-1.6.094-4.979l5.015-14.41-3.894,0,1.119-3.2,3.894,0,2-5.725Z" transform="translate(-451.168 -585.339)"/>
            <path id="Trazado_131028" data-name="Trazado 131028" d="M522.571,605.533a19.047,19.047,0,0,1,5.97-8.766,14.134,14.134,0,0,1,9.169-3.3q4.893,0,6.751,3.441t.053,8.656l-.184.484a19.079,19.079,0,0,1-5.984,8.779,14.194,14.194,0,0,1-9.174,3.268q-4.891-.007-6.753-3.432t-.032-8.645Zm4.278.49q-1.37,3.9-.566,6.3t4.066,2.4a7.96,7.96,0,0,0,5.633-2.484,15.7,15.7,0,0,0,3.886-6.192l.186-.484q1.338-3.861.526-6.273t-4.049-2.421a7.969,7.969,0,0,0-5.663,2.506,15.405,15.405,0,0,0-3.835,6.17Z" transform="translate(-446.063 -583.461)"/>
            <path id="Trazado_131029" data-name="Trazado 131029" d="M539.491,609.759a22.309,22.309,0,0,1,5.752-9.339,11.926,11.926,0,0,1,8.292-3.392,6.9,6.9,0,0,1,3.5.816,4.963,4.963,0,0,1,2.07,2.351l4.6-13.2,4.462.006-11.939,34.213-3.42,0,.38-3.007a12.97,12.97,0,0,1-3.877,2.586,11.244,11.244,0,0,1-4.4.87q-4.327-.007-5.837-3.189t.264-8.249Zm4.3.465q-1.31,3.708-.529,5.814t4,2.11a7.576,7.576,0,0,0,3.616-.894,11.457,11.457,0,0,0,3.135-2.5l3.831-10.987a4.146,4.146,0,0,0-1.411-2.362,4.623,4.623,0,0,0-2.99-.869,7.6,7.6,0,0,0-5.589,2.593,17.7,17.7,0,0,0-3.9,6.632Z" transform="translate(-436.84 -586.994)"/>
            <path id="Trazado_131030" data-name="Trazado 131030" d="M563.5,618.137q-5.071,0-6.978-3.321t-.071-8.557l.346-.965a17.972,17.972,0,0,1,5.973-8.551,13.8,13.8,0,0,1,8.612-3.236q4.733.007,6.233,3.015t-.184,7.832l-.782,2.282-15.852-.022q-1.252,3.773-.385,5.958t4.264,2.189a13.81,13.81,0,0,0,7.725-2.339l.768,2.809a16.5,16.5,0,0,1-4.183,2.068A16.738,16.738,0,0,1,563.5,618.137Zm6.7-21.23a6.956,6.956,0,0,0-4.406,1.752,12.9,12.9,0,0,0-3.474,4.427l.019.13,11.029.014.113-.349a5.954,5.954,0,0,0,.2-4.312Q572.962,596.911,570.2,596.907Z" transform="translate(-427.464 -583.437)"/>
            <path id="Trazado_131031" data-name="Trazado 131031" d="M585.975,611.323a2.219,2.219,0,0,0-.315-2.348q-.8-.879-3.729-1.563a12.844,12.844,0,0,1-5.817-2.531,3.757,3.757,0,0,1-.844-4.344,9.468,9.468,0,0,1,4.224-5.021,13.533,13.533,0,0,1,7.306-1.988q3.986.007,5.912,2.226a4.716,4.716,0,0,1,.846,5.089l-.071.133-4.279,0a2.83,2.83,0,0,0-.428-2.811,3.714,3.714,0,0,0-3.114-1.232,6.789,6.789,0,0,0-3.839,1.037,4.861,4.861,0,0,0-2.047,2.443,2.017,2.017,0,0,0,.254,2.194q.74.751,3.718,1.388,4.19.927,5.947,2.619a3.927,3.927,0,0,1,.843,4.412,9.524,9.524,0,0,1-4.384,5.205,14.567,14.567,0,0,1-7.578,1.931q-4.485,0-6.49-2.334a4.951,4.951,0,0,1-.853-5.354l.071-.131,4.281,0q-.651,2.3.637,3.37a5.363,5.363,0,0,0,3.508,1.068,7.858,7.858,0,0,0,4-.982A4.773,4.773,0,0,0,585.975,611.323Z" transform="translate(-419.13 -583.427)"/>
            <path id="Trazado_131032" data-name="Trazado 131032" d="M596.227,610.324l-2.31,0L590.1,621.263l-4.462-.006,11.938-34.212,4.462.006-6.927,19.825,2.242,0,10.624-9.333,5.162.006.043.131-12.561,10.8,5.2,12.8-5.278-.006Z" transform="translate(-411.039 -586.966)"/>
          </g>
          <g id="Grupo_62158" data-name="Grupo 62158" transform="translate(474.387 659.825)">
            <path id="Trazado_131033" data-name="Trazado 131033" d="M496.288,640.826H484.051l-6.321,8.359h-4.48l25.007-32.455h3.766l-1.847,32.455H495.7Zm-9.452-3.676h9.7l.994-13.934-.128-.023Z" transform="translate(-473.25 -614.41)"/>
            <path id="Trazado_131034" data-name="Trazado 131034" d="M507.892,646.24l1.146-3.457a14.3,14.3,0,0,1-4.114,2.922,10.805,10.805,0,0,1-4.551,1q-3.815,0-5.043-2.551t.938-7.813l5.819-14.221h4.392l-5.853,14.267q-1.639,3.986-1.085,5.369t3.007,1.384a9.222,9.222,0,0,0,4.248-.994,11.279,11.279,0,0,0,3.491-2.8l7.046-17.231h4.392l-9.886,24.118Z" transform="translate(-461.439 -611.466)"/>
            <path id="Trazado_131035" data-name="Trazado 131035" d="M527.158,618.358l-2.382,5.819h4.568l-1.337,3.254h-4.568l-6,14.645q-.726,1.762-.306,2.419a1.758,1.758,0,0,0,1.6.657,4.908,4.908,0,0,0,.883-.1,7.062,7.062,0,0,0,.869-.213l-.628,3.012a6.173,6.173,0,0,1-1.719.657,8.456,8.456,0,0,1-1.994.255,3.793,3.793,0,0,1-3.556-1.625q-.972-1.63.458-5.061l6-14.645h-3.832l1.336-3.254h3.834l2.384-5.819Z" transform="translate(-451.985 -613.521)"/>
            <path id="Trazado_131036" data-name="Trazado 131036" d="M523.06,634.115a21.462,21.462,0,0,1,6.524-8.915,14.621,14.621,0,0,1,9.266-3.365q4.816,0,6.394,3.488t-.584,8.793l-.216.49a21.5,21.5,0,0,1-6.535,8.928,14.665,14.665,0,0,1-9.27,3.332q-4.819,0-6.4-3.477t.6-8.782Zm4.176.49q-1.635,3.97-1.019,6.4t3.826,2.432a8.343,8.343,0,0,0,5.731-2.532,17.714,17.714,0,0,0,4.279-6.3l.216-.49q1.6-3.921.979-6.374t-3.808-2.453a8.353,8.353,0,0,0-5.759,2.554,17.364,17.364,0,0,0-4.23,6.273Z" transform="translate(-446.866 -611.623)"/>
            <path id="Trazado_131037" data-name="Trazado 131037" d="M539.687,638.389a25.165,25.165,0,0,1,6.351-9.5,12.435,12.435,0,0,1,8.41-3.454,6.288,6.288,0,0,1,3.387.824,4.5,4.5,0,0,1,1.864,2.384l5.5-13.419h4.391L555.322,650h-3.366l.6-3.053a14.154,14.154,0,0,1-4.007,2.63,11.173,11.173,0,0,1-4.4.891q-4.257,0-5.511-3.231t.866-8.381Zm4.2.47q-1.561,3.768-.948,5.907t3.78,2.14a7.682,7.682,0,0,0,3.625-.914,12.67,12.67,0,0,0,3.268-2.542l4.579-11.168a3.882,3.882,0,0,0-1.215-2.4,4.205,4.205,0,0,0-2.882-.88,8,8,0,0,0-5.692,2.641,19.984,19.984,0,0,0-4.329,6.742Z" transform="translate(-437.809 -615.229)"/>
            <path id="Trazado_131038" data-name="Trazado 131038" d="M562.426,646.864q-4.995,0-6.624-3.364t.557-8.693l.411-.982a20.215,20.215,0,0,1,6.508-8.693,14.3,14.3,0,0,1,8.714-3.3q4.659,0,5.915,3.055t-.754,7.955l-.937,2.319h-15.6Q559.1,639,559.8,641.215t4.035,2.219a13.458,13.458,0,0,0,4.149-.648,14.317,14.317,0,0,0,3.627-1.739l.552,2.852a17.528,17.528,0,0,1-4.271,2.109A16.622,16.622,0,0,1,562.426,646.864Zm8.156-21.577a7.233,7.233,0,0,0-4.466,1.784,14.526,14.526,0,0,0-3.746,4.5l.011.133h10.854l.138-.357a6.319,6.319,0,0,0,.516-4.38Q573.3,625.288,570.583,625.288Z" transform="translate(-428.562 -611.623)"/>
            <path id="Trazado_131039" data-name="Trazado 131039" d="M585.093,639.909a2.263,2.263,0,0,0-.138-2.384q-.726-.891-3.556-1.581a11.453,11.453,0,0,1-5.541-2.565q-1.633-1.646-.513-4.412a10.6,10.6,0,0,1,4.528-5.1,13.738,13.738,0,0,1,7.337-2.028q3.924,0,5.655,2.249a4.8,4.8,0,0,1,.461,5.173l-.079.133h-4.213a2.888,2.888,0,0,0-.216-2.852,3.349,3.349,0,0,0-2.974-1.249,6.911,6.911,0,0,0-3.854,1.059,5.438,5.438,0,0,0-2.2,2.486,2.062,2.062,0,0,0,.09,2.229q.67.758,3.556,1.4,4.06.937,5.663,2.653t.505,4.48a10.655,10.655,0,0,1-4.7,5.293,14.761,14.761,0,0,1-7.6,1.973q-4.413,0-6.216-2.362a5.031,5.031,0,0,1-.447-5.439l.08-.133h4.211q-.807,2.34.382,3.42a4.834,4.834,0,0,0,3.373,1.084,7.93,7.93,0,0,0,4.007-1A5.321,5.321,0,0,0,585.093,639.909Z" transform="translate(-420.396 -611.623)"/>
            <path id="Trazado_131040" data-name="Trazado 131040" d="M595.648,638.88h-2.274L588.809,650h-4.392l14.266-34.774h4.389L594.8,635.382h2.206l11.142-9.5h5.081l.031.133L600.1,637.008l4.176,13h-5.193Z" transform="translate(-412.56 -615.229)"/>
          </g>
        </g>
      </g>
    </g>
  </g>
</svg>
