<svg xmlns="http://www.w3.org/2000/svg" width="553" height="171" viewBox="0 0 553 171">
  <g id="Grupo_62908" data-name="Grupo 62908" transform="translate(-810 -4993)">
    <g id="Grupo_62154" data-name="Grupo 62154" transform="translate(810 4993)">
      <rect id="Rectángulo_31214" data-name="Rectángulo 31214" width="553" height="171" fill="none"/>
      <g id="Grupo_62153" data-name="Grupo 62153" transform="translate(24 0)">
        <path id="Trazado_130997" data-name="Trazado 130997" d="M73.028,568.476H33.24L32.182,570.7a12.23,12.23,0,0,0,.325,11.153l1.107,2.014H63.27l76.2,58.934,10.511,28.153.792.172a11.623,11.623,0,0,0,12.214-5.024l.507-.78-12.012-36.786Z" transform="translate(-30.993 -515.549)" fill="#adddf7" stroke="#000" stroke-miterlimit="10" stroke-width="1"/>
        <path id="Trazado_130998" data-name="Trazado 130998" d="M190.877,568.476h-39.79l-1.058,2.223a12.23,12.23,0,0,0,.325,11.153l1.109,2.014h29.654l76.2,58.934,10.511,28.153.792.172a11.626,11.626,0,0,0,12.215-5.024l.505-.78-12.012-36.786Z" transform="translate(26.31 -515.549)" fill="#adddf7" stroke="#000" stroke-miterlimit="10" stroke-width="1"/>
        <path id="Trazado_130999" data-name="Trazado 130999" d="M306.842,568.476h-39.79l-1.058,2.223a12.229,12.229,0,0,0,.325,11.153l1.109,2.014h29.654l76.2,58.934,10.511,28.153.792.172A11.622,11.622,0,0,0,396.8,666.1l.507-.78-12.012-36.786Z" transform="translate(82.697 -515.549)" fill="#adddf7" stroke="#000" stroke-miterlimit="10" stroke-width="1"/>
        <line id="Línea_222" data-name="Línea 222" y2="107.356" transform="translate(121.239)" fill="none" stroke="#4e5ff9" stroke-miterlimit="10" stroke-width="1"/>
        <line id="Línea_223" data-name="Línea 223" y2="48.423" transform="translate(41.66)" fill="none" stroke="#4e5ff9" stroke-miterlimit="10" stroke-width="1"/>
        <text id="_4" data-name="4" transform="translate(75.954 14.588)" fill="#4e5ff9" font-size="13" font-family="Roboto-Regular, Roboto"><tspan x="0" y="0">4</tspan></text>
        <g id="Grupo_62144" data-name="Grupo 62144" transform="translate(88.802 8.018)">
          <line id="Línea_224" data-name="Línea 224" x2="21.632" y2="0.52" transform="translate(0 2.342)" fill="none" stroke="#4e5ff9" stroke-miterlimit="10" stroke-width="1"/>
          <path id="Trazado_131000" data-name="Trazado 131000" d="M104.686,543.984V538.26l10.236,3.213Z" transform="translate(-83.963 -538.26)" fill="#4e5ff9"/>
        </g>
        <g id="Grupo_62145" data-name="Grupo 62145" transform="translate(42.996 7.758)">
          <line id="Línea_225" data-name="Línea 225" x1="21.632" y2="0.52" transform="translate(9.328 2.342)" fill="none" stroke="#4e5ff9" stroke-miterlimit="10" stroke-width="1"/>
          <path id="Trazado_131001" data-name="Trazado 131001" d="M70.158,543.809v-5.724L59.922,541.3Z" transform="translate(-59.922 -538.085)" fill="#4e5ff9"/>
        </g>
        <g id="Grupo_62146" data-name="Grupo 62146" transform="translate(20.442 10.88)">
          <path id="Trazado_131002" data-name="Trazado 131002" d="M60.179,554.941H44.748l6.471-14.756Z" transform="translate(-44.748 -540.186)" fill="#e36c08"/>
          <rect id="Rectángulo_31262" data-name="Rectángulo 31262" width="2.674" height="19.35" transform="translate(6.379 13.883)" fill="#e36c08"/>
        </g>
        <g id="Grupo_62147" data-name="Grupo 62147" transform="translate(211.404 10.458)">
          <path id="Trazado_131003" data-name="Trazado 131003" d="M189.508,557.123l-12.6-8.914,13.805-8.307Z" transform="translate(-171.445 -539.902)" fill="#e36c08"/>
          <rect id="Rectángulo_31263" data-name="Rectángulo 31263" width="2.674" height="19.35" transform="matrix(0.816, 0.578, -0.578, 0.816, 11.177, 11.28)" fill="#e36c08"/>
        </g>
        <g id="Grupo_62148" data-name="Grupo 62148" transform="translate(444.146 32.477)">
          <path id="Trazado_131004" data-name="Trazado 131004" d="M342.435,570.146l-.24-15.429,14.855,6.24Z" transform="translate(-323.818 -554.717)" fill="#e36c08"/>
          <rect id="Rectángulo_31264" data-name="Rectángulo 31264" width="2.674" height="19.35" transform="translate(19.348 6.365) rotate(89.108)" fill="#e36c08"/>
        </g>
        <line id="Línea_226" data-name="Línea 226" x1="32.484" y2="44.501" transform="translate(219.245 5.717)" fill="none" stroke="#4e5ff9" stroke-miterlimit="10" stroke-width="1"/>
        <line id="Línea_227" data-name="Línea 227" x1="32.38" y2="43.462" transform="translate(298.723 65.801)" fill="none" stroke="#4e5ff9" stroke-miterlimit="10" stroke-width="1"/>
        <line id="Línea_228" data-name="Línea 228" x2="110.473" transform="translate(394.477 52.927)" fill="none" stroke="#4e5ff9" stroke-miterlimit="10" stroke-width="1"/>
        <line id="Línea_229" data-name="Línea 229" x2="30.995" transform="translate(473.955 113.246)" fill="none" stroke="#4e5ff9" stroke-miterlimit="10" stroke-width="1"/>
        <text id="_5" data-name="5" transform="translate(278.458 48.093)" fill="#4e5ff9" font-size="13" font-family="Roboto-Regular, Roboto"><tspan x="0" y="0">5</tspan></text>
        <g id="Grupo_62149" data-name="Grupo 62149" transform="translate(289.994 48.488)">
          <line id="Línea_230" data-name="Línea 230" x2="16.794" y2="13.645" fill="none" stroke="#4e5ff9" stroke-miterlimit="10" stroke-width="1"/>
          <path id="Trazado_131005" data-name="Trazado 131005" d="M235.749,577.3l3.5-4.528,6.132,8.8Z" transform="translate(-221.425 -561.948)" fill="#4e5ff9"/>
        </g>
        <g id="Grupo_62150" data-name="Grupo 62150" transform="translate(253.385 20.949)">
          <line id="Línea_231" data-name="Línea 231" x1="17.43" y1="12.823" transform="translate(7.593 5.429)" fill="none" stroke="#4e5ff9" stroke-miterlimit="10" stroke-width="1"/>
          <path id="Trazado_131006" data-name="Trazado 131006" d="M208.041,555.208l3.5-4.528-10.063-3.72Z" transform="translate(-201.48 -546.96)" fill="#4e5ff9"/>
        </g>
        <text id="_3" data-name="3" transform="translate(487.186 86.647)" fill="#4e5ff9" font-size="13" font-family="Roboto-Regular, Roboto"><tspan x="0" y="0">3</tspan></text>
        <g id="Grupo_62151" data-name="Grupo 62151" transform="translate(489.656 91.601)">
          <line id="Línea_232" data-name="Línea 232" y2="14.687" transform="translate(2.859)" fill="none" stroke="#4e5ff9" stroke-miterlimit="10" stroke-width="1"/>
          <path id="Trazado_131007" data-name="Trazado 131007" d="M360.451,603.909l5.724.015-3.249,7.783Z" transform="translate(-360.451 -589.921)" fill="#4e5ff9"/>
        </g>
        <g id="Grupo_62152" data-name="Grupo 62152" transform="translate(490.115 54.951)">
          <line id="Línea_233" data-name="Línea 233" y1="12.753" x2="0.465" transform="translate(2.4 7.101)" fill="none" stroke="#4e5ff9" stroke-miterlimit="10" stroke-width="1"/>
          <path id="Trazado_131008" data-name="Trazado 131008" d="M360.76,577.624l5.724.015-3.177-7.8Z" transform="translate(-360.76 -569.838)" fill="#4e5ff9"/>
        </g>
      </g>
    </g>
  </g>
</svg>
