<svg xmlns="http://www.w3.org/2000/svg" width="505" height="166" viewBox="0 0 505 166">
  <g id="Grupo_62910" data-name="Grupo 62910" transform="translate(-810 -5826)">
    <g id="Grupo_62165" data-name="Grupo 62165" transform="translate(810 5826)">
      <rect id="Rectángulo_31214" data-name="Rectángulo 31214" width="505" height="166" fill="none"/>
      <g id="Grupo_62164" data-name="Grupo 62164" transform="translate(8 23.001)">
        <circle id="Elipse_4614" data-name="Elipse 4614" cx="39.517" cy="39.517" r="39.517" transform="translate(0 28.44)" fill="#e5d8cc" stroke="#000" stroke-miterlimit="10" stroke-width="1"/>
        <circle id="Elipse_4615" data-name="Elipse 4615" cx="39.517" cy="39.517" r="39.517" transform="translate(119.442 28.44)" fill="#e5d8cc" stroke="#000" stroke-miterlimit="10" stroke-width="1"/>
        <circle id="Elipse_4616" data-name="Elipse 4616" cx="39.517" cy="39.517" r="39.517" transform="translate(239.494 28.44)" fill="#e5d8cc" stroke="#000" stroke-miterlimit="10" stroke-width="1"/>
        <circle id="Elipse_4617" data-name="Elipse 4617" cx="39.517" cy="39.517" r="39.517" transform="translate(359.228 28.44)" fill="#e5d8cc" stroke="#000" stroke-miterlimit="10" stroke-width="1"/>
        <g id="Grupo_62160" data-name="Grupo 62160" transform="translate(33.2 61.832)">
          <line id="Línea_234" data-name="Línea 234" y2="12.25" transform="translate(6.317)" fill="none" stroke="#4e5ff9" stroke-miterlimit="10" stroke-width="1"/>
          <line id="Línea_235" data-name="Línea 235" x2="12.633" transform="translate(0 6.125)" fill="none" stroke="#4e5ff9" stroke-miterlimit="10" stroke-width="1"/>
        </g>
        <g id="Grupo_62161" data-name="Grupo 62161" transform="translate(152.642 61.832)">
          <line id="Línea_236" data-name="Línea 236" y2="12.25" transform="translate(6.317)" fill="none" stroke="#4e5ff9" stroke-miterlimit="10" stroke-width="1"/>
          <line id="Línea_237" data-name="Línea 237" x2="12.633" transform="translate(0 6.125)" fill="none" stroke="#4e5ff9" stroke-miterlimit="10" stroke-width="1"/>
        </g>
        <path id="Trazado_131041" data-name="Trazado 131041" d="M786.538,354.149c.87.347,6.081,3.3,6.081,3.3l-7.471,7.3Z" transform="translate(-724.44 -331.898)" fill="#4e5ff9"/>
        <path id="Trazado_131042" data-name="Trazado 131042" d="M807.479,344.246H797.4l-9.258,16.389" transform="translate(-722.968 -336.763)" fill="none" stroke="#4e5ff9" stroke-miterlimit="10" stroke-width="1"/>
        <path id="Trazado_131043" data-name="Trazado 131043" d="M866.56,354.149c.869.347,6.081,3.3,6.081,3.3l-7.471,7.3Z" transform="translate(-685.129 -331.898)" fill="#4e5ff9"/>
        <path id="Trazado_131044" data-name="Trazado 131044" d="M887.5,344.246H877.424l-9.258,16.389" transform="translate(-683.657 -336.763)" fill="none" stroke="#4e5ff9" stroke-miterlimit="10" stroke-width="1"/>
        <path id="Trazado_131045" data-name="Trazado 131045" d="M946.164,354.149c.869.347,6.081,3.3,6.081,3.3l-7.471,7.3Z" transform="translate(-646.023 -331.898)" fill="#4e5ff9"/>
        <path id="Trazado_131046" data-name="Trazado 131046" d="M967.1,344.246H957.028l-9.258,16.389" transform="translate(-644.551 -336.763)" fill="none" stroke="#4e5ff9" stroke-miterlimit="10" stroke-width="1"/>
        <path id="Trazado_131047" data-name="Trazado 131047" d="M1026.553,354.667c.868.347,6.08,3.3,6.08,3.3l-7.47,7.3Z" transform="translate(-606.531 -331.644)" fill="#4e5ff9"/>
        <path id="Trazado_131048" data-name="Trazado 131048" d="M1047.493,344.764h-10.077l-9.258,16.389" transform="translate(-605.06 -336.509)" fill="none" stroke="#4e5ff9" stroke-miterlimit="10" stroke-width="1"/>
        <path id="Trazado_131049" data-name="Trazado 131049" d="M991.653,415.013l6.255,3.388,2.606-9.9Z" transform="translate(-622.993 -305.199)" fill="#4e5ff9"/>
        <line id="Línea_238" data-name="Línea 238" y1="9.13" x2="6.259" transform="translate(365.271 111.369)" fill="none" stroke="#4e5ff9" stroke-miterlimit="10" stroke-width="1"/>
        <line id="Línea_239" data-name="Línea 239" y2="35.967" transform="translate(158.958 22.25)" fill="none" stroke="#4e5ff9" stroke-miterlimit="10" stroke-width="1"/>
        <line id="Línea_240" data-name="Línea 240" x1="34.4" transform="translate(113.786 67.957)" fill="none" stroke="#4e5ff9" stroke-miterlimit="10" stroke-width="1"/>
        <line id="Línea_241" data-name="Línea 241" x2="35.703" transform="translate(169.556 67.957)" fill="none" stroke="#4e5ff9" stroke-miterlimit="10" stroke-width="1"/>
        <line id="Línea_242" data-name="Línea 242" y2="37.393" transform="translate(158.958 78.541)" fill="none" stroke="#4e5ff9" stroke-miterlimit="10" stroke-width="1"/>
        <line id="Línea_243" data-name="Línea 243" y1="39.635" x2="22.412" transform="translate(279.011 28.322)" fill="none" stroke="#4e5ff9" stroke-miterlimit="10" stroke-width="1"/>
        <line id="Línea_244" data-name="Línea 244" y1="70.98" x2="41.111" transform="translate(377.52 33.621)" fill="none" stroke="#4e5ff9" stroke-miterlimit="10" stroke-width="1"/>
        <text id="R2_" data-name="R2”" transform="translate(88.117 12)" fill="#4e5ff9" font-size="13" font-family="Roboto-Regular, Roboto"><tspan x="0" y="0">R2”</tspan></text>
        <text id="R2_mm" data-name="R2 mm" transform="translate(326.051 12)" fill="#4e5ff9" font-size="13" font-family="Roboto-Regular, Roboto"><tspan x="0" y="0">R2 mm</tspan></text>
        <text id="Ø2_" data-name="Ø2”" transform="translate(208.256 12)" fill="#4e5ff9" font-size="13" font-family="Roboto-Regular, Roboto"><tspan x="0" y="0">Ø2”</tspan></text>
        <text id="Ø4_mm" data-name="Ø4 mm" transform="translate(446.191 12)" fill="#4e5ff9" font-size="13" font-family="Roboto-Regular, Roboto"><tspan x="0" y="0">Ø4 mm</tspan></text>
      </g>
    </g>
  </g>
</svg>
